<svg id="bckgrd" xmlns="http://www.w3.org/2000/svg" viewBox="0 0 1400 300"><defs><style>.cls-1{fill:#8dc63f;}.cls-2{opacity:0.64;}.cls-3{fill:#b1ef50;stroke:#fff;stroke-width:0.5px;}.cls-3,.cls-7{stroke-miterlimit:10;}.cls-4{fill:#fff;}.cls-5{fill:#333;}.cls-6{fill:#3a3a3a;}.cls-7{fill:#fcfcfc;stroke:#8dc63f;}</style></defs><title>Artboard 1</title><rect class="cls-1" width="700" height="302.5"/><g class="cls-2"><path class="cls-3" d="M326,227.36q-11.17-12.13-11.17-31.61a61.89,61.89,0,0,1,7.57-30.66,102.14,102.14,0,0,1,20.79-25.6l-5.28-9.86a221.75,221.75,0,0,1-11.79-24.16A57.47,57.47,0,0,1,322.07,84q0-19.47,11.18-31.25t30.41-11.78q18,0,29.69,9.73T405,77q0,17.07-10.46,32.82a188.54,188.54,0,0,1-26.08,30.89l29.33,46.16q7-13.46,9.62-38.95H432.9q0,13.47-5.65,29A111.91,111.91,0,0,1,414.15,203a26.87,26.87,0,0,0,8.41,7.09,21.66,21.66,0,0,0,10.58,2.77v26.44h-3.37a25,25,0,0,1-11.9-2.88,45.45,45.45,0,0,1-8.77-5.89q-3.37-3-10.34-10a50.78,50.78,0,0,1-17.55,13.82,54.58,54.58,0,0,1-24.28,5.17Q337.2,239.5,326,227.36Zm57.1-23.68-29.81-45.92a60.93,60.93,0,0,0-9.25,17.55,62.11,62.11,0,0,0-3.49,20.44q0,9.62,3.85,16t12.5,6.38Q371.59,218.11,383.13,203.68Zm-9.61-100.25A68.14,68.14,0,0,0,379.29,77q0-7-4.21-10.94t-11.42-4q-8.18,0-12,6.38T347.79,84a69,69,0,0,0,3.13,20.32,190.91,190.91,0,0,0,8.65,22.48A89.24,89.24,0,0,0,373.52,103.43Z"/></g><path class="cls-4" d="M7.77,115.54Q.78,106,0,89.44l13.08-4.08q.64,11.77,4,19t11.05,7.25q5.76,0,8.7-3.7t2.94-10.64q0-7.55-2.74-12.52a52,52,0,0,0-8.76-11L10.45,55.64A34.17,34.17,0,0,1,2.67,44,42.69,42.69,0,0,1,.25,28.64q0-13.42,6.67-20.82T25.1.43q12.56,0,19,7.69T51.77,32L39.22,35.88q-.66-10.71-3.6-16.52T25.1,13.55q-5.62,0-8.63,3.4t-3,10A23.36,23.36,0,0,0,15,36.11a23.91,23.91,0,0,0,5.36,7.46L38.3,61.68A60.37,60.37,0,0,1,49.35,77.07a41.79,41.79,0,0,1,4.12,18.85q0,13.44-7.06,21.28T28.1,125Q14.77,125,7.77,115.54Z"/><path class="cls-4" d="M65.9,119.76a27.6,27.6,0,0,1-2.62-12.67V36.48h14v65.78q0,5,1.31,7.47t4.71,2.49q4.18,0,9.8-5.43V36.48h14v87.2h-14v-8.6q-9,9.81-18.43,9.81Q68.51,124.89,65.9,119.76Z"/><path class="cls-4" d="M124,118.25q-5.68-6.63-6.47-17.8l11.63-4.07q1,8.45,3.6,12.52A8.08,8.08,0,0,0,140,113a6.94,6.94,0,0,0,5.69-2.49,10.31,10.31,0,0,0,2-6.71A15.58,15.58,0,0,0,146.31,97a22.1,22.1,0,0,0-4.7-6.18L128.66,78a34.37,34.37,0,0,1-6.86-9.28,26.77,26.77,0,0,1-2.42-12q0-10.11,5.23-15.77t14.25-5.65q8.63,0,13.54,6.41t5.68,16.52l-9.41,4.07q-.91-7.39-3-11.24a6.75,6.75,0,0,0-6.28-3.85A6.56,6.56,0,0,0,134,49.76a9.85,9.85,0,0,0-2,6.34,12.31,12.31,0,0,0,3.79,8.75L149.06,79A50.51,50.51,0,0,1,157,89.74a26.92,26.92,0,0,1,2.81,12.82q0,10.86-5.62,16.6t-15.3,5.73A18.6,18.6,0,0,1,124,118.25Z"/><path class="cls-4" d="M174,104.07V47.19h-8V36.48h8V11h14V36.48h12.16V47.19H188V103q0,5.28,1.44,7.39c.95,1.41,2.79,2.11,5.49,2.11a28.62,28.62,0,0,0,5.1-.45V124a57.44,57.44,0,0,1-9.68.9Q174,124.89,174,104.07Z"/><path class="cls-4" d="M216.34,122a19.14,19.14,0,0,1-5.43-7.54,25,25,0,0,1-2-9.8q0-10.26,3.79-16.68a30.13,30.13,0,0,1,9.68-10.18,140.87,140.87,0,0,1,16.35-8.6V63c0-5.74-.51-9.78-1.51-12.15s-3-3.54-6.08-3.54q-8,0-8,12.37v4.37l-13.86-.6q.27-14.49,5.76-21.35t17-6.86q10.85,0,15.75,6.86t4.91,20.74v39.83a181,181,0,0,0,1.3,21H241.25q-1.44-8.59-1.83-12.82a22.82,22.82,0,0,1-5.43,10,13,13,0,0,1-9.87,4.07A11.89,11.89,0,0,1,216.34,122ZM235,108.52a18.78,18.78,0,0,0,3.8-4.75V79a81.14,81.14,0,0,0-8.7,6.26A23.89,23.89,0,0,0,225,91.4a16.18,16.18,0,0,0-2,8.3q0,5.43,1.7,8.37a5.42,5.42,0,0,0,5,2.94A7.79,7.79,0,0,0,235,108.52Z"/><path class="cls-4" d="M267.14,6.61h14v16.9h-14Zm0,29.87h14v87.2h-14Z"/><path class="cls-4" d="M296.17,36.48h14v8.6q9-9.8,18.44-9.8,6.15,0,8.76,5.13A27.73,27.73,0,0,1,340,53.08v70.6H326V57.76q0-5-1.3-7.4C323.8,48.76,322.24,48,320,48q-4.19,0-9.81,5.43v70.3h-14Z"/><path class="cls-4" d="M335.79,170H364.3q14.9,0,21.63,9.16t6.74,26.82q0,15.9-7.24,24.73t-21,8.84H351.82v60.55h-16Zm23.4,56.54q7.1,0,11-1.77a10.67,10.67,0,0,0,5.61-6.1q1.69-4.33,1.7-12.53,0-10-1.28-14.62a9.9,9.9,0,0,0-5-6.58Q367.42,183,359.33,183h-7.51V226.5Z"/><path class="cls-4" d="M403,207.22H418.2v13.17q4.24-7.86,8.72-11.08a15.9,15.9,0,0,1,9.43-3.21,16.81,16.81,0,0,1,2.41.16v19a21.67,21.67,0,0,0-8.37-1.93,11.31,11.31,0,0,0-6.59,2q-2.91,2-5.6,7v67.78H403Z"/><path class="cls-4" d="M452.17,292.59q-5.48-8.76-5.46-25.46v-27q0-16.71,5.46-25.46t18.51-8.75q12.9,0,18.36,8.75t5.46,25.46v27q0,16.71-5.46,25.46t-18.36,8.75Q457.63,301.34,452.17,292.59Zm24.46-6.67a14.57,14.57,0,0,0,2.27-6.74,107.26,107.26,0,0,0,.43-10.93V239.18a109.62,109.62,0,0,0-.43-11,14.66,14.66,0,0,0-2.27-6.82q-1.85-2.73-5.95-2.73t-6,2.73a14.15,14.15,0,0,0-2.34,6.82,109.62,109.62,0,0,0-.43,11v29.07a107.26,107.26,0,0,0,.43,10.93,14.06,14.06,0,0,0,2.34,6.74c1.27,1.83,3.28,2.73,6,2.73S475.4,287.75,476.63,285.92Z"/><path class="cls-4" d="M512.52,279.18V218.63h-8.66V207.22h8.66V180.08h15.17v27.14h13.19v11.41H527.69v59.42q0,5.63,1.56,7.87t6,2.25a31.51,31.51,0,0,0,5.53-.48v12.69a63.17,63.17,0,0,1-10.49,1Q512.5,301.34,512.52,279.18Z"/><path class="cls-4" d="M560,297.25q-5.25-4.1-7.37-12.13t-2.13-20.88V243q0-19.28,5.32-28.19t18.93-8.91q9.93,0,15,4.66t6.66,13.09q1.64,8.43,1.63,22.72V254H565.7v18.63q0,8.52,2.2,12.29a7.52,7.52,0,0,0,7,3.77c3.22,0,5.39-1.25,6.53-3.77s1.7-6.35,1.7-11.49v-5.62H597.9v3.54q0,14.61-5.53,22.32t-17.59,7.71Q565.29,301.34,560,297.25Zm23.12-52.6v-8.36q0-9.47-1.63-13.57t-6.88-4.09a7.56,7.56,0,0,0-5.6,1.92c-1.28,1.29-2.15,3.4-2.63,6.35a86.68,86.68,0,0,0-.71,12.77v5Z"/><path class="cls-4" d="M619.32,296.92a22.39,22.39,0,0,1-7.16-12.36,88,88,0,0,1-1.92-20.16V243a90.86,90.86,0,0,1,1.92-20.56q1.9-8,7.16-12.29t14.89-4.25q8.79,0,13.69,3.21a16.77,16.77,0,0,1,6.81,9.56,58.6,58.6,0,0,1,1.91,16.46v5.46H642.86V235q0-9.15-1.77-12.77t-6.74-3.61q-3.83,0-5.67,1.92t-2.55,6.27a83.64,83.64,0,0,0-.71,12.69v29.23a66.61,66.61,0,0,0,.85,12.28q.86,4.26,2.76,6a8,8,0,0,0,5.46,1.68q5.25,0,6.81-3.93t1.56-12.13V265h13.76v6.43q0,15.09-4.89,22.48t-17.52,7.39Q624.56,301.34,619.32,296.92Z"/><path class="cls-4" d="M674.21,279.18V218.63h-8.65V207.22h8.65V180.08h15.18v27.14h13.19v11.41H689.39v59.42c0,3.75.51,6.37,1.56,7.87s3,2.25,5.95,2.25a31.42,31.42,0,0,0,5.53-.48v12.69a63.17,63.17,0,0,1-10.49,1Q674.21,301.34,674.21,279.18Z"/><path class="cls-5" d="M769,78.06q-3.59-4.23-4-11.59l6.7-1.81a20.88,20.88,0,0,0,2,8.44,5.92,5.92,0,0,0,5.66,3.21,5.74,5.74,0,0,0,4.46-1.64,6.75,6.75,0,0,0,1.5-4.72,10.15,10.15,0,0,0-1.4-5.56,24,24,0,0,0-4.49-4.89l-9.11-8a15.23,15.23,0,0,1-4-5.19,16.64,16.64,0,0,1-1.24-6.81q0-6,3.42-9.24t9.31-3.28q6.43,0,9.72,3.41t4,10.59l-6.43,1.74a17.16,17.16,0,0,0-1.85-7.34c-1-1.71-2.8-2.58-5.39-2.58a6.09,6.09,0,0,0-4.42,1.51,6,6,0,0,0-1.54,4.46,9.22,9.22,0,0,0,.8,4.05,10.85,10.85,0,0,0,2.75,3.32l9.18,8A27.63,27.63,0,0,1,790.27,61a16.54,16.54,0,0,1,2.11,8.38q0,6-3.62,9.44a12.93,12.93,0,0,1-9.38,3.49Q772.56,82.28,769,78.06Z"/><path class="cls-5" d="M798.14,29.68h7.17v7.51h-7.17Zm0,13.27h7.17V81.67h-7.17Z"/><path class="cls-5" d="M814.09,91.89a5.84,5.84,0,0,1-3.35-5.53,6.66,6.66,0,0,1,1.57-4.42,11.56,11.56,0,0,1,4-3,5.62,5.62,0,0,1-2.78-1.68,3.72,3.72,0,0,1-1-2.48,6,6,0,0,1,1-3.48,21.73,21.73,0,0,1,3.28-3.55,10.52,10.52,0,0,1-3.38-4.39,18.81,18.81,0,0,1-1.11-7.14q0-6.76,2.78-10.28c1.86-2.34,4.57-3.52,8.15-3.52a10.38,10.38,0,0,1,5,1.07,6.91,6.91,0,0,1,3,3.22,10.08,10.08,0,0,1,2-2,15.55,15.55,0,0,1,3.25-2l1.08-.47,1.81,4.62A27,27,0,0,0,835.63,48a10.06,10.06,0,0,0-2.85,1.34,18.76,18.76,0,0,1,.84,3.35,23.17,23.17,0,0,1,.37,3.76q0,6.36-2.48,9.88c-1.66,2.34-4.4,3.52-8.24,3.52a15.3,15.3,0,0,1-3.69-.47,5.92,5.92,0,0,0-1.27,2.94,1.3,1.3,0,0,0,.77,1.18,6.22,6.22,0,0,0,2.44.57l6,.53q4.56.41,6.77,2.75c1.47,1.56,2.21,3.8,2.21,6.7q0,9.65-13.47,9.65A19.13,19.13,0,0,1,814.09,91.89Zm15.14-4.75A3.06,3.06,0,0,0,831,84.22a3.33,3.33,0,0,0-1.14-2.78,8.22,8.22,0,0,0-4.15-1.17l-6.1-.54a19.57,19.57,0,0,0-2.15,2.48,4.06,4.06,0,0,0-.73,2.35,2.81,2.81,0,0,0,1.5,2.64c1,.56,2.78.84,5.33.84A13.28,13.28,0,0,0,829.23,87.14ZM827,62.78a17.89,17.89,0,0,0,.87-6.57,19,19,0,0,0-.87-6.73c-.58-1.41-1.81-2.11-3.69-2.11a3.74,3.74,0,0,0-3.78,2.11,17.14,17.14,0,0,0-1,6.73,16.36,16.36,0,0,0,1,6.37,3.67,3.67,0,0,0,3.72,2.21Q826.15,64.79,827,62.78Z"/><path class="cls-5" d="M842.16,43h7.17v3.82q4.62-4.37,9.45-4.36a4.77,4.77,0,0,1,4.48,2.28,10.89,10.89,0,0,1,1.35,5.63V81.67h-7.17V52.4a6.42,6.42,0,0,0-.67-3.29A2.64,2.64,0,0,0,854.35,48q-2.15,0-5,2.41V81.67h-7.17Z"/><path class="cls-5" d="M888,79.93a10.84,10.84,0,0,1-1.34-5.63V43h7.17V72.16a6.52,6.52,0,0,0,.67,3.32,2.59,2.59,0,0,0,2.41,1.1q2.15,0,5-2.41V43h7.17V81.67h-7.17V77.86q-4.62,4.35-9.44,4.35A4.79,4.79,0,0,1,888,79.93Z"/><path class="cls-5" d="M916.39,43h7.17V46a9.53,9.53,0,0,1,7.37-3.62q5.3,0,7.07,4.53a27.22,27.22,0,0,1,1.78,10v9.38q0,7.11-2.18,11.49t-7.47,4.39q-3.42,0-6.57-3.42V94.4h-7.17ZM931.9,74.07a31,31,0,0,0,.71-7.74V57a20.87,20.87,0,0,0-.81-6.6A3.22,3.22,0,0,0,928.45,48a7.63,7.63,0,0,0-4.89,2V74.84a8.47,8.47,0,0,0,5.16,1.74A3.05,3.05,0,0,0,931.9,74.07Z"/><path class="cls-5" d="M963.53,78.56Q961,74.91,961,67.94V56.68q0-7,2.58-10.62t8.74-3.65q6.09,0,8.68,3.65t2.58,10.62V67.94q0,7-2.58,10.62t-8.68,3.65Q966.11,82.21,963.53,78.56Zm11.55-2.78A5.63,5.63,0,0,0,976.16,73a41.09,41.09,0,0,0,.2-4.55V56.28a42.29,42.29,0,0,0-.2-4.59,5.67,5.67,0,0,0-1.08-2.85,3.33,3.33,0,0,0-2.81-1.13,3.45,3.45,0,0,0-2.85,1.13,5.5,5.5,0,0,0-1.1,2.85,39.87,39.87,0,0,0-.2,4.59V68.41a38.76,38.76,0,0,0,.2,4.55,5.47,5.47,0,0,0,1.1,2.82,3.42,3.42,0,0,0,2.85,1.14A3.3,3.3,0,0,0,975.08,75.78Z"/><path class="cls-5" d="M990.29,43h7.17v5.49a14,14,0,0,1,4.12-4.62,8.21,8.21,0,0,1,4.46-1.34,8.31,8.31,0,0,1,1.14.07v7.9a11.48,11.48,0,0,0-4-.8,5.82,5.82,0,0,0-3.11.84,8.57,8.57,0,0,0-2.65,2.91V81.67h-7.17Z"/><path class="cls-5" d="M1027.54,27.4h11.8q8.78,0,12.42,4T1055.42,44v20q0,9-3.59,13.37t-11.89,4.38h-12.4Zm11.86,48.85c2.64,0,4.55-.52,5.73-1.54a6.84,6.84,0,0,0,2.21-4.19,53.6,53.6,0,0,0,.44-8V44.89a33.2,33.2,0,0,0-.57-7.07,5.58,5.58,0,0,0-2.38-3.61A10.49,10.49,0,0,0,1039.2,33h-4.08V76.25Z"/><path class="cls-5" d="M1064.16,78.56q-2.58-3.65-2.58-10.62V56.68q0-7,2.58-10.62t8.74-3.65q6.11,0,8.68,3.65t2.58,10.62V67.94q0,7-2.58,10.62t-8.68,3.65Q1066.73,82.21,1064.16,78.56Zm11.56-2.78a5.62,5.62,0,0,0,1.07-2.82,41.09,41.09,0,0,0,.2-4.55V56.28a42.29,42.29,0,0,0-.2-4.59,5.66,5.66,0,0,0-1.07-2.85,3.35,3.35,0,0,0-2.82-1.13,3.43,3.43,0,0,0-2.84,1.13,5.43,5.43,0,0,0-1.11,2.85,42.29,42.29,0,0,0-.2,4.59V68.41A41.09,41.09,0,0,0,1069,73a5.39,5.39,0,0,0,1.11,2.82,3.4,3.4,0,0,0,2.84,1.14A3.32,3.32,0,0,0,1075.72,75.78Z"/><path class="cls-5" d="M1090.72,43h7.17v3.82c3.09-2.91,6.23-4.36,9.45-4.36a4.79,4.79,0,0,1,4.49,2.28,11,11,0,0,1,1.34,5.63V81.67H1106V52.4a6.32,6.32,0,0,0-.67-3.29,2.63,2.63,0,0,0-2.41-1.07q-2.14,0-5,2.41V81.67h-7.17Z"/><path class="cls-5" d="M1123.12,80.94a8.69,8.69,0,0,1-2.78-3.35,9.92,9.92,0,0,1-1-4.36,12.86,12.86,0,0,1,2-7.4,14.21,14.21,0,0,1,5-4.52,75.43,75.43,0,0,1,8.38-3.82V54.74a13.4,13.4,0,0,0-.77-5.39,3.13,3.13,0,0,0-3.12-1.58q-4.08,0-4.08,5.5v1.94l-7.11-.27q.13-6.44,3-9.48t8.71-3.05q5.57,0,8.07,3.05t2.52,9.21V72.36a69,69,0,0,0,.67,9.31h-6.57q-.74-3.81-.94-5.69a9.68,9.68,0,0,1-2.78,4.42,7.18,7.18,0,0,1-5.06,1.81A6.65,6.65,0,0,1,1123.12,80.94Zm9.55-6a8.71,8.71,0,0,0,1.94-2.11v-11a44.08,44.08,0,0,0-4.46,2.78,11.2,11.2,0,0,0-2.61,2.72,6.42,6.42,0,0,0-1,3.68,6.69,6.69,0,0,0,.87,3.72,2.87,2.87,0,0,0,2.55,1.31A4.3,4.3,0,0,0,1132.67,74.94Z"/><path class="cls-5" d="M1150.08,73V47.71H1146V43h4.08V31.63h7.17V43h6.24v4.76h-6.24V72.5a5.48,5.48,0,0,0,.74,3.28,3.45,3.45,0,0,0,2.82.94,17.24,17.24,0,0,0,2.61-.2v5.29a33.34,33.34,0,0,1-5,.4Q1150.09,82.21,1150.08,73Z"/><path class="cls-5" d="M1172.53,80.5a9,9,0,0,1-3.48-5.06,31,31,0,0,1-1-8.71V57.89q0-8,2.51-11.76t9-3.72q4.68,0,7.07,2a9.4,9.4,0,0,1,3.15,5.46,46.42,46.42,0,0,1,.77,9.48v3.15h-15.28v7.77a9.61,9.61,0,0,0,1,5.12,3.69,3.69,0,0,0,3.32,1.58,3.14,3.14,0,0,0,3.08-1.58,11,11,0,0,0,.8-4.79V68.21h7v1.47q0,6.1-2.61,9.31c-1.74,2.15-4.52,3.22-8.31,3.22A12.17,12.17,0,0,1,1172.53,80.5Zm10.92-21.94V55.08a15,15,0,0,0-.77-5.67c-.51-1.13-1.6-1.7-3.25-1.7a3.82,3.82,0,0,0-2.64.8,4.48,4.48,0,0,0-1.24,2.65,31,31,0,0,0-.34,5.32v2.08Z"/><path class="cls-5" d="M1218.89,33h-9.18V27.4h25.67V33h-8.92V81.67h-7.57Z"/><path class="cls-5" d="M1241.1,78.56q-2.58-3.65-2.58-10.62V56.68q0-7,2.58-10.62t8.75-3.65q6.09,0,8.67,3.65t2.58,10.62V67.94q0,7-2.58,10.62t-8.67,3.65Q1243.69,82.21,1241.1,78.56Zm11.56-2.78a5.62,5.62,0,0,0,1.07-2.82,38.76,38.76,0,0,0,.2-4.55V56.28a39.87,39.87,0,0,0-.2-4.59,5.66,5.66,0,0,0-1.07-2.85,3.34,3.34,0,0,0-2.81-1.13,3.43,3.43,0,0,0-2.85,1.13,5.6,5.6,0,0,0-1.11,2.85,42.29,42.29,0,0,0-.2,4.59V68.41a41.09,41.09,0,0,0,.2,4.55,5.56,5.56,0,0,0,1.11,2.82,3.41,3.41,0,0,0,2.85,1.14A3.31,3.31,0,0,0,1252.66,75.78Z"/><path class="cls-5" d="M1269.28,78.56c-1.57-2.43-2.35-6.47-2.35-12.09V59q0-7.69,2-12.13c1.36-2.94,3.85-4.42,7.47-4.42a9,9,0,0,1,6.43,3v-18h7.17V81.67h-7.17V79.2a8.41,8.41,0,0,1-6.23,3Q1271.63,82.21,1269.28,78.56Zm13.6-3.45V49.72a8.32,8.32,0,0,0-4.56-1.68q-4.21,0-4.22,8.11V67.07a22.06,22.06,0,0,0,.87,7.1,3.39,3.39,0,0,0,3.49,2.41A8.19,8.19,0,0,0,1282.88,75.11Z"/><path class="cls-5" d="M1300.26,80.94a8.78,8.78,0,0,1-2.78-3.35,9.91,9.91,0,0,1-1-4.36,12.86,12.86,0,0,1,1.94-7.4,14.33,14.33,0,0,1,5-4.52,76,76,0,0,1,8.37-3.82V54.74a13.23,13.23,0,0,0-.77-5.39,3.11,3.11,0,0,0-3.11-1.58q-4.09,0-4.09,5.5v1.94l-7.1-.27q.13-6.44,3-9.48c1.87-2,4.78-3.05,8.71-3.05,3.7,0,6.4,1,8.07,3.05s2.51,5.1,2.51,9.21V72.36a70.68,70.68,0,0,0,.67,9.31H1313c-.49-2.54-.81-4.44-.94-5.69a9.77,9.77,0,0,1-2.78,4.42,7.2,7.2,0,0,1-5.06,1.81A6.7,6.7,0,0,1,1300.26,80.94Zm9.55-6a8.71,8.71,0,0,0,1.94-2.11v-11a43.75,43.75,0,0,0-4.45,2.78,11.2,11.2,0,0,0-2.61,2.72,6.35,6.35,0,0,0-1,3.68,6.69,6.69,0,0,0,.87,3.72,2.87,2.87,0,0,0,2.54,1.31A4.28,4.28,0,0,0,1309.81,74.94Z"/><path class="cls-5" d="M1325.22,85.9a17,17,0,0,0,5.53-.61,2.25,2.25,0,0,0,1.5-2.28,68.83,68.83,0,0,0-1.47-7.1L1323,43h7.24l5.22,28.94,5-28.94h7.23l-9.24,40.87a8.56,8.56,0,0,1-4,5.83q-3,1.74-8.44,1.74h-.87Z"/><path class="cls-6" d="M766.35,138.9h-1.81l-3.16-10.52c-.16-.46-.32-1-.51-1.76a10.25,10.25,0,0,1-.29-1.28,25.09,25.09,0,0,1-.75,3.1l-3.07,10.46H755l-4.18-15.71h1.94l2.48,9.7a37.39,37.39,0,0,1,.75,3.7,26.46,26.46,0,0,1,.86-3.85l2.81-9.55h1.94l3,9.64a30.45,30.45,0,0,1,.87,3.76,32.72,32.72,0,0,1,.77-3.72l2.48-9.68h1.93Z"/><path class="cls-6" d="M772.59,123.93a1.17,1.17,0,0,1,.3-.89,1.1,1.1,0,0,1,1.49,0,1.15,1.15,0,0,1,.32.89,1.19,1.19,0,0,1-.32.9,1.08,1.08,0,0,1-1.49,0A1.22,1.22,0,0,1,772.59,123.93Zm1.93,15h-1.78V127.12h1.78Z"/><path class="cls-6" d="M782.11,137.64a5.41,5.41,0,0,0,.91-.07,7.11,7.11,0,0,0,.7-.14v1.36a3.35,3.35,0,0,1-.85.23,6.61,6.61,0,0,1-1,.09q-3.42,0-3.42-3.6v-7h-1.68v-.86l1.68-.74.76-2.51h1v2.72h3.41v1.39h-3.41v6.93a2.36,2.36,0,0,0,.5,1.63A1.77,1.77,0,0,0,782.11,137.64Z"/><path class="cls-6" d="M794.13,138.9v-7.62a3.06,3.06,0,0,0-.66-2.15,2.67,2.67,0,0,0-2.05-.71,3.37,3.37,0,0,0-2.71,1,5.13,5.13,0,0,0-.86,3.31v6.16h-1.78V122.18h1.78v5.06a10.78,10.78,0,0,1-.08,1.52h.11a3.66,3.66,0,0,1,1.49-1.34,4.83,4.83,0,0,1,2.22-.49,4.52,4.52,0,0,1,3.24,1,4.31,4.31,0,0,1,1.08,3.26v7.68Z"/><path class="cls-6" d="M803.42,127.12h1.91l2.58,6.72a23.78,23.78,0,0,1,1.05,3.32h.09c.09-.37.29-1,.58-1.88s1.27-3.6,2.92-8.16h1.91l-5.06,13.41a6.73,6.73,0,0,1-1.75,2.82,3.76,3.76,0,0,1-2.47.83,7.29,7.29,0,0,1-1.61-.18v-1.43a5.9,5.9,0,0,0,1.32.13,2.72,2.72,0,0,0,2.62-2.06l.66-1.68Z"/><path class="cls-6" d="M826.54,133a6.54,6.54,0,0,1-1.45,4.5,5.15,5.15,0,0,1-4,1.61,5.32,5.32,0,0,1-2.8-.74,4.8,4.8,0,0,1-1.89-2.13,7.3,7.3,0,0,1-.67-3.24,6.51,6.51,0,0,1,1.44-4.49,5.09,5.09,0,0,1,4-1.6,5,5,0,0,1,3.92,1.64A6.48,6.48,0,0,1,826.54,133Zm-9,0a5.62,5.62,0,0,0,.9,3.44,3.58,3.58,0,0,0,5.31,0,5.51,5.51,0,0,0,.91-3.44,5.44,5.44,0,0,0-.91-3.41,3.18,3.18,0,0,0-2.68-1.17,3.14,3.14,0,0,0-2.64,1.15A5.51,5.51,0,0,0,817.57,133Z"/><path class="cls-6" d="M831.34,127.12v7.64a3.11,3.11,0,0,0,.65,2.15,2.71,2.71,0,0,0,2.06.71,3.36,3.36,0,0,0,2.7-1,5.08,5.08,0,0,0,.85-3.3v-6.19h1.78V138.9h-1.47l-.25-1.58h-.1a3.58,3.58,0,0,1-1.52,1.33,5.09,5.09,0,0,1-2.22.46,4.53,4.53,0,0,1-3.22-1,4.35,4.35,0,0,1-1.07-3.26v-7.71Z"/><path class="cls-6" d="M848.54,126.91a6.6,6.6,0,0,1,1.4.13l-.24,1.65a6,6,0,0,0-1.29-.16,3.17,3.17,0,0,0-2.45,1.16,4.26,4.26,0,0,0-1,2.89v6.32h-1.78V127.12h1.47l.2,2.18h.09a5.16,5.16,0,0,1,1.58-1.77A3.57,3.57,0,0,1,848.54,126.91Z"/><path class="cls-6" d="M865.92,138.9v-7.62a3.06,3.06,0,0,0-.66-2.15,2.67,2.67,0,0,0-2-.71,3.37,3.37,0,0,0-2.71,1,5.13,5.13,0,0,0-.86,3.31v6.16h-1.78V122.18h1.78v5.06a10.78,10.78,0,0,1-.08,1.52h.11a3.66,3.66,0,0,1,1.49-1.34,4.83,4.83,0,0,1,2.22-.49,4.52,4.52,0,0,1,3.24,1,4.31,4.31,0,0,1,1.08,3.26v7.68Z"/><path class="cls-6" d="M876.34,139.11a5.4,5.4,0,0,1-4.12-1.59,6.13,6.13,0,0,1-1.51-4.41,6.87,6.87,0,0,1,1.4-4.53,4.68,4.68,0,0,1,3.77-1.67,4.44,4.44,0,0,1,3.5,1.45,5.57,5.57,0,0,1,1.29,3.84v1.13h-8.11a4.67,4.67,0,0,0,1,3.15,3.63,3.63,0,0,0,2.8,1.07,9.47,9.47,0,0,0,3.76-.79v1.59a8.84,8.84,0,0,1-1.79.58A9.86,9.86,0,0,1,876.34,139.11Zm-.49-10.71a2.92,2.92,0,0,0-2.26.93,4.23,4.23,0,0,0-1,2.55h6.15a3.93,3.93,0,0,0-.75-2.58A2.63,2.63,0,0,0,875.85,128.4Z"/><path class="cls-6" d="M885.49,138.9h-1.78V122.18h1.78Z"/><path class="cls-6" d="M894.75,139.11a5.11,5.11,0,0,1-2.1-.42,4,4,0,0,1-1.6-1.31h-.12a17,17,0,0,1,.12,2v4.84h-1.78V127.12h1.45l.25,1.61h.08a4.13,4.13,0,0,1,1.61-1.39,4.76,4.76,0,0,1,2.09-.43,4.36,4.36,0,0,1,3.62,1.6,7.1,7.1,0,0,1,1.27,4.49,7,7,0,0,1-1.3,4.51A4.35,4.35,0,0,1,894.75,139.11Zm-.26-10.69a3.19,3.19,0,0,0-2.61,1,5.18,5.18,0,0,0-.83,3.18v.4a5.9,5.9,0,0,0,.83,3.55,3.16,3.16,0,0,0,2.66,1.07,2.76,2.76,0,0,0,2.39-1.24,5.9,5.9,0,0,0,.86-3.4,5.68,5.68,0,0,0-.86-3.38A2.87,2.87,0,0,0,894.49,128.42Z"/><path class="cls-6" d="M912.27,137.64a5.33,5.33,0,0,0,.91-.07,6.55,6.55,0,0,0,.7-.14v1.36a3.35,3.35,0,0,1-.85.23,6.61,6.61,0,0,1-1,.09q-3.4,0-3.41-3.6v-7h-1.69v-.86l1.69-.74.75-2.51h1v2.72h3.42v1.39h-3.42v6.93a2.41,2.41,0,0,0,.5,1.63A1.77,1.77,0,0,0,912.27,137.64Z"/><path class="cls-6" d="M924.29,138.9v-7.62a3.11,3.11,0,0,0-.65-2.15,2.71,2.71,0,0,0-2.06-.71,3.37,3.37,0,0,0-2.71,1,5.13,5.13,0,0,0-.85,3.31v6.16h-1.79V122.18H918v5.06a10.59,10.59,0,0,1-.09,1.52H918a3.63,3.63,0,0,1,1.5-1.34,4.81,4.81,0,0,1,2.22-.49,4.48,4.48,0,0,1,3.23,1,4.31,4.31,0,0,1,1.08,3.26v7.68Z"/><path class="cls-6" d="M934.71,139.11a5.42,5.42,0,0,1-4.12-1.59,6.13,6.13,0,0,1-1.51-4.41,6.87,6.87,0,0,1,1.4-4.53,4.68,4.68,0,0,1,3.77-1.67,4.44,4.44,0,0,1,3.5,1.45A5.57,5.57,0,0,1,939,132.2v1.13h-8.11a4.67,4.67,0,0,0,1.05,3.15,3.6,3.6,0,0,0,2.8,1.07,9.51,9.51,0,0,0,3.76-.79v1.59a9,9,0,0,1-1.79.58A10,10,0,0,1,934.71,139.11Zm-.48-10.71a2.89,2.89,0,0,0-2.26.93,4.17,4.17,0,0,0-1,2.55h6.16a3.93,3.93,0,0,0-.75-2.58A2.65,2.65,0,0,0,934.23,128.4Z"/><path class="cls-6" d="M952.9,138.9h-1.83V124.81h-5v-1.62h11.77v1.62h-5Z"/><path class="cls-6" d="M962.06,132.37v6.53h-1.83V123.19h4.31a6.75,6.75,0,0,1,4.27,1.11,4,4,0,0,1,1.38,3.33,4.16,4.16,0,0,1-3.16,4.21l4.27,7.06h-2.16l-3.8-6.53Zm0-1.57h2.5a4.34,4.34,0,0,0,2.84-.77,2.86,2.86,0,0,0,.9-2.3,2.61,2.61,0,0,0-.92-2.25,5,5,0,0,0-3-.69h-2.37Z"/><path class="cls-6" d="M983.71,138.9l-2-5h-6.29l-1.94,5h-1.85l6.21-15.77h1.54l6.18,15.77Zm-2.53-6.64-1.82-4.87c-.24-.61-.48-1.37-.74-2.26a19.57,19.57,0,0,1-.67,2.26l-1.85,4.87Z"/><path class="cls-6" d="M997.63,138.9l-2-5h-6.29l-1.94,5H985.6l6.21-15.77h1.53l6.18,15.77Zm-2.53-6.64-1.82-4.87c-.24-.61-.48-1.37-.73-2.26a22,22,0,0,1-.68,2.26L990,132.26Z"/><path class="cls-6" d="M1011.83,139.11a5,5,0,0,1-4-1.57,6.5,6.5,0,0,1-1.4-4.45,6.67,6.67,0,0,1,1.42-4.57,5.14,5.14,0,0,1,4.06-1.61,8.09,8.09,0,0,1,1.69.18,5.87,5.87,0,0,1,1.34.43l-.55,1.52a8.51,8.51,0,0,0-1.29-.4,6,6,0,0,0-1.24-.15q-3.58,0-3.58,4.57a5.46,5.46,0,0,0,.87,3.33,3,3,0,0,0,2.6,1.16,7.93,7.93,0,0,0,3-.63v1.58A6.35,6.35,0,0,1,1011.83,139.11Z"/><path class="cls-6" d="M1024.84,138.9l-.36-1.68h-.08a5,5,0,0,1-1.76,1.5,5.35,5.35,0,0,1-2.18.39,3.94,3.94,0,0,1-2.75-.9,3.3,3.3,0,0,1-1-2.57c0-2.38,1.9-3.62,5.7-3.74l2-.06v-.73a3,3,0,0,0-.6-2.05,2.43,2.43,0,0,0-1.9-.66,7.76,7.76,0,0,0-3.33.9l-.55-1.36a8.07,8.07,0,0,1,1.91-.74,8.17,8.17,0,0,1,2.07-.27,4.48,4.48,0,0,1,3.12.93,3.91,3.91,0,0,1,1,3v8Zm-4-1.26a3.63,3.63,0,0,0,2.62-.91,3.4,3.4,0,0,0,1-2.56v-1.06l-1.79.07a6.43,6.43,0,0,0-3.06.66,2,2,0,0,0-.94,1.82,1.85,1.85,0,0,0,.58,1.48A2.47,2.47,0,0,0,1020.81,137.64Z"/><path class="cls-6" d="M1037.89,138.9v-7.62a3.06,3.06,0,0,0-.66-2.15,2.67,2.67,0,0,0-2-.71,3.39,3.39,0,0,0-2.7,1,5,5,0,0,0-.86,3.3v6.18h-1.79V127.12h1.45l.29,1.61h.09a3.61,3.61,0,0,1,1.54-1.34,4.94,4.94,0,0,1,2.2-.48,4.49,4.49,0,0,1,3.2,1,4.41,4.41,0,0,1,1.07,3.29v7.68Z"/><path class="cls-6" d="M1056.65,135.69a2.94,2.94,0,0,1-1.23,2.53,5.79,5.79,0,0,1-3.44.89,7.53,7.53,0,0,1-3.65-.74v-1.65a9,9,0,0,0,1.82.67,7.37,7.37,0,0,0,1.88.25,4.18,4.18,0,0,0,2.14-.45,1.45,1.45,0,0,0,.76-1.35,1.48,1.48,0,0,0-.6-1.18,9.37,9.37,0,0,0-2.33-1.16,12.48,12.48,0,0,1-2.33-1.06,3.18,3.18,0,0,1-1-1,2.68,2.68,0,0,1-.34-1.39,2.64,2.64,0,0,1,1.17-2.27,5.49,5.49,0,0,1,3.21-.83,9.5,9.5,0,0,1,3.72.77l-.64,1.45a8.65,8.65,0,0,0-3.21-.73,3.65,3.65,0,0,0-1.91.4,1.22,1.22,0,0,0-.64,1.1,1.33,1.33,0,0,0,.24.8,2.37,2.37,0,0,0,.78.63,14.49,14.49,0,0,0,2.06.87,7.77,7.77,0,0,1,2.83,1.54A2.72,2.72,0,0,1,1056.65,135.69Z"/><path class="cls-6" d="M1061.22,127.12v7.64a3.06,3.06,0,0,0,.66,2.15,2.67,2.67,0,0,0,2,.71,3.36,3.36,0,0,0,2.7-1,5.08,5.08,0,0,0,.85-3.3v-6.19h1.79V138.9h-1.47l-.26-1.58h-.1a3.52,3.52,0,0,1-1.52,1.33,5.09,5.09,0,0,1-2.22.46,4.48,4.48,0,0,1-3.21-1,4.31,4.31,0,0,1-1.07-3.26v-7.71Z"/><path class="cls-6" d="M1080.64,135.69a2.93,2.93,0,0,1-1.22,2.53,5.79,5.79,0,0,1-3.44.89,7.51,7.51,0,0,1-3.65-.74v-1.65a8.75,8.75,0,0,0,1.82.67,7.35,7.35,0,0,0,1.87.25,4.2,4.2,0,0,0,2.15-.45,1.54,1.54,0,0,0,.16-2.53,9.37,9.37,0,0,0-2.33-1.16,12.48,12.48,0,0,1-2.33-1.06,3.32,3.32,0,0,1-1-1,2.78,2.78,0,0,1-.33-1.39,2.64,2.64,0,0,1,1.17-2.27,5.49,5.49,0,0,1,3.21-.83,9.5,9.5,0,0,1,3.72.77l-.64,1.45a8.65,8.65,0,0,0-3.21-.73,3.65,3.65,0,0,0-1.91.4,1.23,1.23,0,0,0-.65,1.1,1.27,1.27,0,0,0,.25.8,2.43,2.43,0,0,0,.77.63,14.77,14.77,0,0,0,2.07.87,7.86,7.86,0,0,1,2.83,1.54A2.71,2.71,0,0,1,1080.64,135.69Z"/><path class="cls-6" d="M1087.35,137.64a5.41,5.41,0,0,0,.91-.07,7.11,7.11,0,0,0,.7-.14v1.36a3.45,3.45,0,0,1-.86.23,6.39,6.39,0,0,1-1,.09q-3.42,0-3.42-3.6v-7H1082v-.86l1.68-.74.75-2.51h1v2.72h3.41v1.39h-3.41v6.93a2.36,2.36,0,0,0,.5,1.63A1.77,1.77,0,0,0,1087.35,137.64Z"/><path class="cls-6" d="M1098.55,138.9l-.35-1.68h-.09a4.9,4.9,0,0,1-1.76,1.5,5.35,5.35,0,0,1-2.18.39,4,4,0,0,1-2.75-.9,3.3,3.3,0,0,1-1-2.57c0-2.38,1.9-3.62,5.7-3.74l2-.06v-.73a3,3,0,0,0-.59-2.05,2.47,2.47,0,0,0-1.91-.66,7.79,7.79,0,0,0-3.33.9l-.55-1.36a8.64,8.64,0,0,1,4-1,4.51,4.51,0,0,1,3.12.93,4,4,0,0,1,1,3v8Zm-4-1.26a3.63,3.63,0,0,0,2.62-.91,3.4,3.4,0,0,0,.95-2.56v-1.06l-1.78.07a6.51,6.51,0,0,0-3.07.66,2,2,0,0,0-.94,1.82,1.85,1.85,0,0,0,.58,1.48A2.47,2.47,0,0,0,1094.52,137.64Z"/><path class="cls-6" d="M1103.4,123.93a1.17,1.17,0,0,1,.3-.89,1.05,1.05,0,0,1,.75-.29,1.08,1.08,0,0,1,.74.29,1.15,1.15,0,0,1,.31.89,1.19,1.19,0,0,1-.31.9,1,1,0,0,1-.74.3,1,1,0,0,1-.75-.3A1.22,1.22,0,0,1,1103.4,123.93Zm1.93,15h-1.78V127.12h1.78Z"/><path class="cls-6" d="M1117.17,138.9v-7.62a3.06,3.06,0,0,0-.66-2.15,2.67,2.67,0,0,0-2-.71,3.42,3.42,0,0,0-2.71,1,5.08,5.08,0,0,0-.86,3.3v6.18h-1.78V127.12h1.45l.29,1.61h.09a3.58,3.58,0,0,1,1.53-1.34,5,5,0,0,1,2.2-.48,4.52,4.52,0,0,1,3.21,1,4.41,4.41,0,0,1,1.07,3.29v7.68Z"/><path class="cls-6" d="M1124.48,136.34l.16.25a24.79,24.79,0,0,1-.8,2.49c-.35.95-.72,1.84-1.1,2.65h-1.34c.19-.74.41-1.66.64-2.76s.39-2,.49-2.63Z"/><path class="cls-6" d="M1139.2,139.11a5.11,5.11,0,0,1-2.1-.42,4,4,0,0,1-1.6-1.31h-.12a17,17,0,0,1,.12,2v4.84h-1.78V127.12h1.45l.25,1.61h.08a4.18,4.18,0,0,1,1.6-1.39,4.84,4.84,0,0,1,2.1-.43,4.34,4.34,0,0,1,3.61,1.6,8.49,8.49,0,0,1,0,9A4.35,4.35,0,0,1,1139.2,139.11Zm-.26-10.69a3.19,3.19,0,0,0-2.61,1,5.18,5.18,0,0,0-.83,3.18v.4a5.9,5.9,0,0,0,.83,3.55,3.15,3.15,0,0,0,2.65,1.07,2.77,2.77,0,0,0,2.4-1.24,5.9,5.9,0,0,0,.86-3.4,5.68,5.68,0,0,0-.86-3.38A2.87,2.87,0,0,0,1138.94,128.42Z"/><path class="cls-6" d="M1152.57,126.91a6.64,6.64,0,0,1,1.41.13l-.25,1.65a5.81,5.81,0,0,0-1.29-.16,3.15,3.15,0,0,0-2.44,1.16,4.21,4.21,0,0,0-1,2.89v6.32h-1.79V127.12h1.47l.21,2.18h.08a5.37,5.37,0,0,1,1.58-1.77A3.62,3.62,0,0,1,1152.57,126.91Z"/><path class="cls-6" d="M1166.34,133a6.49,6.49,0,0,1-1.45,4.5,5.11,5.11,0,0,1-4,1.61,5.36,5.36,0,0,1-2.81-.74,4.92,4.92,0,0,1-1.89-2.13,7.44,7.44,0,0,1-.66-3.24,6.51,6.51,0,0,1,1.44-4.49,5.08,5.08,0,0,1,4-1.6,5,5,0,0,1,3.93,1.64A6.48,6.48,0,0,1,1166.34,133Zm-9,0a5.62,5.62,0,0,0,.9,3.44,3.11,3.11,0,0,0,2.65,1.18,3.15,3.15,0,0,0,2.66-1.18,5.58,5.58,0,0,0,.91-3.44,5.5,5.5,0,0,0-.91-3.41,3.19,3.19,0,0,0-2.68-1.17,3.14,3.14,0,0,0-2.64,1.15A5.51,5.51,0,0,0,1157.38,133Z"/><path class="cls-6" d="M1173.27,137.64a5.53,5.53,0,0,0,.92-.07,6.82,6.82,0,0,0,.69-.14v1.36a3.23,3.23,0,0,1-.85.23,6.49,6.49,0,0,1-1,.09q-3.42,0-3.42-3.6v-7h-1.69v-.86l1.69-.74.75-2.51h1v2.72h3.42v1.39h-3.42v6.93a2.36,2.36,0,0,0,.51,1.63A1.74,1.74,0,0,0,1173.27,137.64Z"/><path class="cls-6" d="M1182.21,139.11a5.42,5.42,0,0,1-4.12-1.59,6.13,6.13,0,0,1-1.51-4.41,6.87,6.87,0,0,1,1.4-4.53,4.68,4.68,0,0,1,3.77-1.67,4.44,4.44,0,0,1,3.5,1.45,5.57,5.57,0,0,1,1.29,3.84v1.13h-8.11a4.67,4.67,0,0,0,1,3.15,3.6,3.6,0,0,0,2.8,1.07,9.51,9.51,0,0,0,3.76-.79v1.59a9,9,0,0,1-1.79.58A10,10,0,0,1,1182.21,139.11Zm-.48-10.71a2.89,2.89,0,0,0-2.26.93,4.17,4.17,0,0,0-1,2.55h6.16a3.93,3.93,0,0,0-.75-2.58A2.65,2.65,0,0,0,1181.73,128.4Z"/><path class="cls-6" d="M1194.29,139.11a5,5,0,0,1-4-1.57,6.46,6.46,0,0,1-1.41-4.45,6.67,6.67,0,0,1,1.43-4.57,5.13,5.13,0,0,1,4.05-1.61,8.11,8.11,0,0,1,1.7.18,5.6,5.6,0,0,1,1.33.43l-.55,1.52a8.74,8.74,0,0,0-1.28-.4,6,6,0,0,0-1.24-.15q-3.58,0-3.59,4.57a5.39,5.39,0,0,0,.88,3.33,3,3,0,0,0,2.59,1.16,8,8,0,0,0,3-.63v1.58A6.41,6.41,0,0,1,1194.29,139.11Z"/><path class="cls-6" d="M1203.86,137.64a5.41,5.41,0,0,0,.91-.07,7.11,7.11,0,0,0,.7-.14v1.36a3.45,3.45,0,0,1-.86.23,6.39,6.39,0,0,1-1,.09q-3.42,0-3.42-3.6v-7h-1.68v-.86l1.68-.74.75-2.51h1v2.72h3.41v1.39H1202v6.93a2.36,2.36,0,0,0,.5,1.63A1.77,1.77,0,0,0,1203.86,137.64Z"/><path class="cls-6" d="M1209.69,136.34l.16.25a25.11,25.11,0,0,1-.81,2.49c-.35.95-.71,1.84-1.09,2.65h-1.34c.19-.74.4-1.66.64-2.76s.39-2,.48-2.63Z"/><path class="cls-6" d="M1226.17,138.9l-.36-1.68h-.08a5,5,0,0,1-1.76,1.5,5.35,5.35,0,0,1-2.18.39,3.94,3.94,0,0,1-2.75-.9,3.3,3.3,0,0,1-1-2.57c0-2.38,1.9-3.62,5.7-3.74l2-.06v-.73a3,3,0,0,0-.6-2.05,2.43,2.43,0,0,0-1.9-.66,7.76,7.76,0,0,0-3.33.9l-.55-1.36a8.07,8.07,0,0,1,1.91-.74,8.17,8.17,0,0,1,2.07-.27,4.48,4.48,0,0,1,3.12.93,3.91,3.91,0,0,1,1,3v8Zm-4-1.26a3.63,3.63,0,0,0,2.62-.91,3.4,3.4,0,0,0,1-2.56v-1.06l-1.79.07a6.43,6.43,0,0,0-3.06.66,2,2,0,0,0-.94,1.82,1.85,1.85,0,0,0,.58,1.48A2.47,2.47,0,0,0,1222.14,137.64Z"/><path class="cls-6" d="M1239.22,138.9v-7.62a3.06,3.06,0,0,0-.66-2.15,2.67,2.67,0,0,0-2-.71,3.39,3.39,0,0,0-2.7,1,5,5,0,0,0-.86,3.3v6.18h-1.79V127.12h1.45l.29,1.61h.09a3.61,3.61,0,0,1,1.54-1.34,4.94,4.94,0,0,1,2.2-.48,4.49,4.49,0,0,1,3.2,1,4.41,4.41,0,0,1,1.07,3.29v7.68Z"/><path class="cls-6" d="M1252.68,137.32h-.1a4.19,4.19,0,0,1-3.69,1.79,4.37,4.37,0,0,1-3.6-1.58A7,7,0,0,1,1244,133a7.05,7.05,0,0,1,1.29-4.52,4.36,4.36,0,0,1,3.59-1.61,4.28,4.28,0,0,1,3.67,1.74h.14l-.07-.85-.05-.83v-4.79h1.79V138.9h-1.45Zm-3.57.3a3.23,3.23,0,0,0,2.65-1,5,5,0,0,0,.82-3.2V133a5.86,5.86,0,0,0-.83-3.57,3.16,3.16,0,0,0-2.66-1.07,2.75,2.75,0,0,0-2.4,1.22,6.09,6.09,0,0,0-.83,3.44,5.76,5.76,0,0,0,.83,3.41A2.79,2.79,0,0,0,1249.11,137.62Z"/><path class="cls-6" d="M1268.84,139.11a5.4,5.4,0,0,1-4.12-1.59,6.13,6.13,0,0,1-1.51-4.41,6.82,6.82,0,0,1,1.4-4.53,4.66,4.66,0,0,1,3.76-1.67,4.45,4.45,0,0,1,3.51,1.45,5.57,5.57,0,0,1,1.29,3.84v1.13h-8.12a4.72,4.72,0,0,0,1,3.15,3.61,3.61,0,0,0,2.8,1.07,9.47,9.47,0,0,0,3.76-.79v1.59a9,9,0,0,1-1.79.58A9.86,9.86,0,0,1,1268.84,139.11Zm-.49-10.71a2.9,2.9,0,0,0-2.26.93,4.23,4.23,0,0,0-1,2.55h6.15a3.93,3.93,0,0,0-.75-2.58A2.65,2.65,0,0,0,1268.35,128.4Z"/><path class="cls-6" d="M1284.26,138.9v-7.62a3.11,3.11,0,0,0-.65-2.15,2.69,2.69,0,0,0-2.06-.71,3.39,3.39,0,0,0-2.7,1,5,5,0,0,0-.86,3.3v6.18h-1.78V127.12h1.45l.29,1.61h.08a3.67,3.67,0,0,1,1.54-1.34,5,5,0,0,1,2.2-.48,4.49,4.49,0,0,1,3.2,1,4.37,4.37,0,0,1,1.07,3.29v7.68Z"/><path class="cls-6" d="M1294.41,139.11a5,5,0,0,1-4-1.57,6.5,6.5,0,0,1-1.4-4.45,6.67,6.67,0,0,1,1.43-4.57,5.12,5.12,0,0,1,4-1.61,8.19,8.19,0,0,1,1.7.18,5.76,5.76,0,0,1,1.33.43L1297,129a8.51,8.51,0,0,0-1.29-.4,5.86,5.86,0,0,0-1.23-.15q-3.59,0-3.59,4.57a5.39,5.39,0,0,0,.88,3.33,3,3,0,0,0,2.59,1.16,8,8,0,0,0,3-.63v1.58A6.43,6.43,0,0,1,1294.41,139.11Z"/><path class="cls-6" d="M1308.24,138.9v-7.62a3.06,3.06,0,0,0-.66-2.15,2.67,2.67,0,0,0-2-.71,3.37,3.37,0,0,0-2.71,1,5.13,5.13,0,0,0-.86,3.31v6.16h-1.78V122.18H1302v5.06a10.78,10.78,0,0,1-.08,1.52h.11a3.66,3.66,0,0,1,1.49-1.34,4.83,4.83,0,0,1,2.22-.49,4.52,4.52,0,0,1,3.24,1,4.31,4.31,0,0,1,1.08,3.26v7.68Z"/><path class="cls-6" d="M1320.92,138.9l-.35-1.68h-.09a4.88,4.88,0,0,1-1.75,1.5,5.4,5.4,0,0,1-2.19.39,3.93,3.93,0,0,1-2.74-.9,3.27,3.27,0,0,1-1-2.57c0-2.38,1.91-3.62,5.71-3.74l2-.06v-.73a3,3,0,0,0-.6-2.05,2.46,2.46,0,0,0-1.91-.66,7.79,7.79,0,0,0-3.33.9l-.55-1.36a8.42,8.42,0,0,1,1.91-.74,8.25,8.25,0,0,1,2.08-.27,4.51,4.51,0,0,1,3.12.93,3.91,3.91,0,0,1,1,3v8Zm-4-1.26a3.59,3.59,0,0,0,2.61-.91,3.36,3.36,0,0,0,1-2.56v-1.06l-1.78.07a6.51,6.51,0,0,0-3.07.66,2,2,0,0,0-.94,1.82,1.86,1.86,0,0,0,.59,1.48A2.45,2.45,0,0,0,1316.9,137.64Z"/><path class="cls-6" d="M1334,138.9v-7.62a3.06,3.06,0,0,0-.66-2.15,2.68,2.68,0,0,0-2-.71,3.42,3.42,0,0,0-2.71,1,5.08,5.08,0,0,0-.86,3.3v6.18h-1.78V127.12h1.45l.29,1.61h.09a3.58,3.58,0,0,1,1.53-1.34,5,5,0,0,1,2.2-.48,4.52,4.52,0,0,1,3.21,1,4.41,4.41,0,0,1,1.07,3.29v7.68Z"/><path class="cls-6" d="M1344.13,139.11a5,5,0,0,1-4-1.57,6.5,6.5,0,0,1-1.4-4.45,6.67,6.67,0,0,1,1.42-4.57,5.14,5.14,0,0,1,4.06-1.61,8.09,8.09,0,0,1,1.69.18,5.87,5.87,0,0,1,1.34.43l-.55,1.52a9.29,9.29,0,0,0-1.29-.4,6,6,0,0,0-1.24-.15q-3.59,0-3.58,4.57a5.46,5.46,0,0,0,.87,3.33,3,3,0,0,0,2.59,1.16,7.94,7.94,0,0,0,3-.63v1.58A6.38,6.38,0,0,1,1344.13,139.11Z"/><path class="cls-6" d="M1354.87,139.11a5.42,5.42,0,0,1-4.12-1.59,6.13,6.13,0,0,1-1.51-4.41,6.87,6.87,0,0,1,1.4-4.53,4.68,4.68,0,0,1,3.77-1.67,4.44,4.44,0,0,1,3.5,1.45,5.57,5.57,0,0,1,1.29,3.84v1.13h-8.11a4.62,4.62,0,0,0,1.05,3.15,3.59,3.59,0,0,0,2.79,1.07,9.44,9.44,0,0,0,3.76-.79v1.59a9,9,0,0,1-1.78.58A10,10,0,0,1,1354.87,139.11Zm-.48-10.71a2.93,2.93,0,0,0-2.27.93,4.23,4.23,0,0,0-1,2.55h6.16a3.93,3.93,0,0,0-.75-2.58A2.66,2.66,0,0,0,1354.39,128.4Z"/><path class="cls-6" d="M787,165.3v-7.66a3.18,3.18,0,0,0-.6-2.11,2.32,2.32,0,0,0-1.87-.71,3,3,0,0,0-2.46,1,4.55,4.55,0,0,0-.79,2.94v6.58H779.5v-7.66a3.18,3.18,0,0,0-.6-2.11,2.34,2.34,0,0,0-1.88-.71,2.9,2.9,0,0,0-2.45,1,5.41,5.41,0,0,0-.78,3.29v6.18H772V153.52h1.46l.29,1.61h.08a3.53,3.53,0,0,1,1.42-1.34,4.4,4.4,0,0,1,2.06-.48c1.84,0,3.05.66,3.61,2H781a3.69,3.69,0,0,1,1.52-1.46,4.74,4.74,0,0,1,2.28-.54,4,4,0,0,1,3,1,4.62,4.62,0,0,1,1,3.29v7.68Z"/><path class="cls-6" d="M799.71,165.3l-.36-1.68h-.08a4.9,4.9,0,0,1-1.76,1.5,5.35,5.35,0,0,1-2.18.39,3.94,3.94,0,0,1-2.75-.9,3.3,3.3,0,0,1-1-2.57q0-3.56,5.7-3.74l2-.06v-.73a3,3,0,0,0-.6-2,2.43,2.43,0,0,0-1.9-.66,7.79,7.79,0,0,0-3.33.9l-.55-1.36a8.52,8.52,0,0,1,1.91-.74,8.17,8.17,0,0,1,2.07-.27,4.52,4.52,0,0,1,3.13.93,4,4,0,0,1,1,3v8Zm-4-1.26a3.63,3.63,0,0,0,2.62-.91,3.4,3.4,0,0,0,1-2.56v-1.06l-1.79.07a6.46,6.46,0,0,0-3.06.66,2,2,0,0,0-.94,1.82,1.85,1.85,0,0,0,.58,1.48A2.47,2.47,0,0,0,795.68,164Z"/><path class="cls-6" d="M812.76,165.3v-7.62a3.11,3.11,0,0,0-.65-2.15,2.71,2.71,0,0,0-2.06-.71,3.39,3.39,0,0,0-2.7,1,5,5,0,0,0-.86,3.3v6.18H804.7V153.52h1.45l.29,1.61h.09a3.67,3.67,0,0,1,1.54-1.34,5,5,0,0,1,2.2-.48,4.49,4.49,0,0,1,3.2,1,4.37,4.37,0,0,1,1.07,3.29v7.68Z"/><path class="cls-6" d="M816.34,153.52h1.91l2.58,6.72a25.25,25.25,0,0,1,1,3.32H822c.09-.37.28-1,.58-1.88s1.27-3.6,2.92-8.16h1.91l-5.06,13.41a6.74,6.74,0,0,1-1.76,2.82,3.73,3.73,0,0,1-2.46.83,7.29,7.29,0,0,1-1.61-.18V169a5.9,5.9,0,0,0,1.32.13,2.73,2.73,0,0,0,2.62-2.06l.66-1.68Z"/><path class="cls-6" d="M845.17,159.4a6.49,6.49,0,0,1-1.45,4.5,5.13,5.13,0,0,1-4,1.61,5.35,5.35,0,0,1-2.8-.74,4.8,4.8,0,0,1-1.89-2.13,7.3,7.3,0,0,1-.67-3.24,6.47,6.47,0,0,1,1.44-4.48,5.06,5.06,0,0,1,4-1.61,5,5,0,0,1,3.92,1.64A6.48,6.48,0,0,1,845.17,159.4Zm-9,0a5.62,5.62,0,0,0,.9,3.44,3.16,3.16,0,0,0,2.66,1.18,3.13,3.13,0,0,0,2.65-1.18,5.51,5.51,0,0,0,.91-3.44,5.44,5.44,0,0,0-.91-3.41,3.63,3.63,0,0,0-5.32,0A5.58,5.58,0,0,0,836.2,159.4Z"/><path class="cls-6" d="M853.6,154.91h-3V165.3h-1.79V154.91h-2.1v-.81l2.1-.64v-.66c0-2.89,1.27-4.34,3.79-4.34a7.87,7.87,0,0,1,2.2.38l-.47,1.43a5.88,5.88,0,0,0-1.76-.33,1.7,1.7,0,0,0-1.49.67,3.73,3.73,0,0,0-.48,2.15v.76h3Z"/><path class="cls-6" d="M865.27,164a5.41,5.41,0,0,0,.91-.07,6.55,6.55,0,0,0,.7-.14v1.36a3.35,3.35,0,0,1-.85.23,6.61,6.61,0,0,1-1,.09q-3.42,0-3.42-3.6v-7h-1.68v-.86l1.68-.74.76-2.51h1v2.72h3.41v1.39h-3.41v6.93a2.41,2.41,0,0,0,.5,1.63A1.77,1.77,0,0,0,865.27,164Z"/><path class="cls-6" d="M877.29,165.3v-7.62a3.06,3.06,0,0,0-.66-2.15,2.67,2.67,0,0,0-2-.71,3.37,3.37,0,0,0-2.71,1,5.13,5.13,0,0,0-.85,3.31v6.16h-1.79V148.58H871v5.06a10.59,10.59,0,0,1-.09,1.52H871a3.63,3.63,0,0,1,1.5-1.34,4.76,4.76,0,0,1,2.21-.49,4.52,4.52,0,0,1,3.24,1,4.31,4.31,0,0,1,1.08,3.26v7.68Z"/><path class="cls-6" d="M887.71,165.51a5.42,5.42,0,0,1-4.12-1.59,6.13,6.13,0,0,1-1.51-4.41,6.87,6.87,0,0,1,1.4-4.53,4.68,4.68,0,0,1,3.77-1.67,4.44,4.44,0,0,1,3.5,1.45A5.59,5.59,0,0,1,892,158.6v1.13h-8.11a4.6,4.6,0,0,0,1.05,3.15,3.59,3.59,0,0,0,2.79,1.07,9.47,9.47,0,0,0,3.76-.79v1.59a9,9,0,0,1-1.78.58A10,10,0,0,1,887.71,165.51Zm-.48-10.71a2.93,2.93,0,0,0-2.27.93,4.23,4.23,0,0,0-1,2.55h6.16a3.87,3.87,0,0,0-.76-2.58A2.62,2.62,0,0,0,887.23,154.8Z"/><path class="cls-6" d="M906.1,154.91h-3V165.3h-1.78V154.91h-2.11v-.81l2.11-.64v-.66q0-4.34,3.79-4.34a7.87,7.87,0,0,1,2.19.38l-.46,1.43a5.93,5.93,0,0,0-1.76-.33,1.7,1.7,0,0,0-1.49.67,3.65,3.65,0,0,0-.49,2.15v.76h3Zm2-4.58a1.18,1.18,0,0,1,.3-.89,1.1,1.1,0,0,1,1.49,0,1.16,1.16,0,0,1,.31.89,1.19,1.19,0,0,1-.31.9,1.08,1.08,0,0,1-1.49,0A1.22,1.22,0,0,1,908.1,150.33Zm1.93,15h-1.78V153.52H910Z"/><path class="cls-6" d="M921.41,162.08a2.94,2.94,0,0,1-1.23,2.54,5.76,5.76,0,0,1-3.43.89,7.55,7.55,0,0,1-3.66-.74v-1.65a9.19,9.19,0,0,0,1.82.67,7.43,7.43,0,0,0,1.88.25,4.22,4.22,0,0,0,2.15-.45,1.46,1.46,0,0,0,.75-1.35,1.48,1.48,0,0,0-.6-1.18,9.26,9.26,0,0,0-2.32-1.16,12.33,12.33,0,0,1-2.34-1.06,3.18,3.18,0,0,1-1-1,2.68,2.68,0,0,1-.34-1.39,2.64,2.64,0,0,1,1.17-2.27,5.49,5.49,0,0,1,3.21-.83,9.5,9.5,0,0,1,3.72.77l-.63,1.45a8.74,8.74,0,0,0-3.22-.73,3.65,3.65,0,0,0-1.91.4,1.22,1.22,0,0,0-.64,1.09,1.34,1.34,0,0,0,.24.81,2.37,2.37,0,0,0,.78.63,14.49,14.49,0,0,0,2.06.87,7.62,7.62,0,0,1,2.83,1.54A2.71,2.71,0,0,1,921.41,162.08Z"/><path class="cls-6" d="M932.36,165.3v-7.62a3.06,3.06,0,0,0-.65-2.15,2.68,2.68,0,0,0-2.05-.71,3.39,3.39,0,0,0-2.72,1,5.2,5.2,0,0,0-.85,3.31v6.16h-1.78V148.58h1.78v5.06a10.59,10.59,0,0,1-.09,1.52h.11a3.63,3.63,0,0,1,1.5-1.34,4.83,4.83,0,0,1,2.22-.49,4.52,4.52,0,0,1,3.24,1,4.31,4.31,0,0,1,1.08,3.26v7.68Z"/><path class="cls-6" d="M951.12,162.08a3,3,0,0,1-1.22,2.54,5.81,5.81,0,0,1-3.44.89,7.51,7.51,0,0,1-3.65-.74v-1.65a8.75,8.75,0,0,0,1.82.67,7.3,7.3,0,0,0,1.87.25,4.22,4.22,0,0,0,2.15-.45,1.46,1.46,0,0,0,.75-1.35,1.48,1.48,0,0,0-.6-1.18,9.26,9.26,0,0,0-2.32-1.16,12.64,12.64,0,0,1-2.34-1.06,3.28,3.28,0,0,1-1-1,2.78,2.78,0,0,1-.34-1.39,2.64,2.64,0,0,1,1.17-2.27,5.52,5.52,0,0,1,3.22-.83,9.49,9.49,0,0,1,3.71.77l-.63,1.45a8.65,8.65,0,0,0-3.21-.73,3.6,3.6,0,0,0-1.91.4,1.23,1.23,0,0,0-.65,1.09,1.34,1.34,0,0,0,.24.81,2.37,2.37,0,0,0,.78.63,15,15,0,0,0,2.06.87,7.62,7.62,0,0,1,2.83,1.54A2.67,2.67,0,0,1,951.12,162.08Z"/><path class="cls-6" d="M959.5,165.51a5.11,5.11,0,0,1-2.1-.42,4,4,0,0,1-1.6-1.31h-.13a15.1,15.1,0,0,1,.13,2v4.84H954V153.52h1.45l.25,1.61h.08a4.26,4.26,0,0,1,1.6-1.39,4.84,4.84,0,0,1,2.1-.43,4.34,4.34,0,0,1,3.61,1.6,8.49,8.49,0,0,1,0,9A4.35,4.35,0,0,1,959.5,165.51Zm-.26-10.69a3.19,3.19,0,0,0-2.61,1,5.18,5.18,0,0,0-.83,3.18v.4a5.9,5.9,0,0,0,.83,3.55,3.15,3.15,0,0,0,2.65,1.07,2.74,2.74,0,0,0,2.39-1.24,5.8,5.8,0,0,0,.87-3.4,5.61,5.61,0,0,0-.87-3.38A2.84,2.84,0,0,0,959.24,154.82Z"/><path class="cls-6" d="M967.35,150.33a1.18,1.18,0,0,1,.3-.89,1.05,1.05,0,0,1,.75-.29,1.08,1.08,0,0,1,.75.29,1.2,1.2,0,0,1,.31.89,1.23,1.23,0,0,1-.31.9,1.05,1.05,0,0,1-.75.3,1,1,0,0,1-.75-.3A1.22,1.22,0,0,1,967.35,150.33Zm1.94,15H967.5V153.52h1.79Z"/><path class="cls-6" d="M978,165.51a5.42,5.42,0,0,1-4.12-1.59,6.13,6.13,0,0,1-1.51-4.41,6.87,6.87,0,0,1,1.4-4.53,4.68,4.68,0,0,1,3.77-1.67,4.44,4.44,0,0,1,3.5,1.45,5.59,5.59,0,0,1,1.29,3.84v1.13h-8.11a4.6,4.6,0,0,0,1,3.15A3.59,3.59,0,0,0,978.1,164a9.47,9.47,0,0,0,3.76-.79v1.59a9,9,0,0,1-1.78.58A10,10,0,0,1,978,165.51Zm-.48-10.71a2.93,2.93,0,0,0-2.27.93,4.23,4.23,0,0,0-1,2.55h6.16a3.93,3.93,0,0,0-.75-2.58A2.66,2.66,0,0,0,977.56,154.8Z"/><path class="cls-6" d="M990.11,165.51a5,5,0,0,1-4-1.57,6.44,6.44,0,0,1-1.41-4.45,6.67,6.67,0,0,1,1.43-4.57,5.13,5.13,0,0,1,4.05-1.61,8.19,8.19,0,0,1,1.7.18,5.6,5.6,0,0,1,1.33.43l-.55,1.52a8.51,8.51,0,0,0-1.29-.4,5.86,5.86,0,0,0-1.23-.15q-3.59,0-3.59,4.57a5.39,5.39,0,0,0,.88,3.33,3,3,0,0,0,2.59,1.16,8,8,0,0,0,3-.63v1.58A6.43,6.43,0,0,1,990.11,165.51Z"/><path class="cls-6" d="M1000.86,165.51a5.4,5.4,0,0,1-4.12-1.59,6.13,6.13,0,0,1-1.51-4.41,6.87,6.87,0,0,1,1.4-4.53,4.66,4.66,0,0,1,3.76-1.67,4.45,4.45,0,0,1,3.51,1.45,5.59,5.59,0,0,1,1.29,3.84v1.13h-8.11a4.65,4.65,0,0,0,1,3.15,3.63,3.63,0,0,0,2.8,1.07,9.47,9.47,0,0,0,3.76-.79v1.59a9,9,0,0,1-1.79.58A9.86,9.86,0,0,1,1000.86,165.51Zm-.49-10.71a2.9,2.9,0,0,0-2.26.93,4.23,4.23,0,0,0-1,2.55h6.15a3.93,3.93,0,0,0-.75-2.58A2.65,2.65,0,0,0,1000.37,154.8Z"/><path class="cls-6" d="M1015.82,162.08a3,3,0,0,1-1.22,2.54,5.81,5.81,0,0,1-3.44.89,7.51,7.51,0,0,1-3.65-.74v-1.65a8.75,8.75,0,0,0,1.82.67,7.3,7.3,0,0,0,1.87.25,4.22,4.22,0,0,0,2.15-.45,1.46,1.46,0,0,0,.75-1.35,1.48,1.48,0,0,0-.6-1.18,9.26,9.26,0,0,0-2.32-1.16,12.64,12.64,0,0,1-2.34-1.06,3.28,3.28,0,0,1-1-1,2.78,2.78,0,0,1-.34-1.39,2.64,2.64,0,0,1,1.17-2.27,5.52,5.52,0,0,1,3.22-.83,9.49,9.49,0,0,1,3.71.77l-.63,1.45a8.65,8.65,0,0,0-3.21-.73,3.62,3.62,0,0,0-1.91.4,1.23,1.23,0,0,0-.65,1.09,1.34,1.34,0,0,0,.24.81,2.37,2.37,0,0,0,.78.63,15,15,0,0,0,2.06.87,7.62,7.62,0,0,1,2.83,1.54A2.67,2.67,0,0,1,1015.82,162.08Z"/><path class="cls-6" d="M1028.24,164a5.41,5.41,0,0,0,.91-.07,6.55,6.55,0,0,0,.7-.14v1.36a3.35,3.35,0,0,1-.85.23,6.61,6.61,0,0,1-1,.09q-3.42,0-3.42-3.6v-7h-1.68v-.86l1.68-.74.76-2.51h1v2.72h3.41v1.39h-3.41v6.93a2.41,2.41,0,0,0,.5,1.63A1.77,1.77,0,0,0,1028.24,164Z"/><path class="cls-6" d="M1040.26,165.3v-7.62a3.06,3.06,0,0,0-.66-2.15,2.67,2.67,0,0,0-2-.71,3.37,3.37,0,0,0-2.71,1,5.13,5.13,0,0,0-.85,3.31v6.16h-1.79V148.58H1034v5.06a10.59,10.59,0,0,1-.09,1.52h.11a3.66,3.66,0,0,1,1.49-1.34,4.83,4.83,0,0,1,2.22-.49,4.52,4.52,0,0,1,3.24,1,4.31,4.31,0,0,1,1.08,3.26v7.68Z"/><path class="cls-6" d="M1053,165.3l-.36-1.68h-.09a4.88,4.88,0,0,1-1.75,1.5,5.37,5.37,0,0,1-2.19.39,3.93,3.93,0,0,1-2.74-.9,3.31,3.31,0,0,1-1-2.57c0-2.37,1.91-3.62,5.71-3.74l2-.06v-.73a3,3,0,0,0-.6-2,2.46,2.46,0,0,0-1.91-.66,7.79,7.79,0,0,0-3.33.9l-.54-1.36a8.63,8.63,0,0,1,1.9-.74,8.25,8.25,0,0,1,2.08-.27,4.51,4.51,0,0,1,3.12.93,3.91,3.91,0,0,1,1,3v8Zm-4-1.26a3.59,3.59,0,0,0,2.61-.91,3.36,3.36,0,0,0,1-2.56v-1.06l-1.78.07a6.51,6.51,0,0,0-3.07.66,2,2,0,0,0-.94,1.82,1.86,1.86,0,0,0,.59,1.48A2.45,2.45,0,0,0,1048.92,164Z"/><path class="cls-6" d="M1061.74,164a5.53,5.53,0,0,0,.92-.07,6.82,6.82,0,0,0,.69-.14v1.36a3.23,3.23,0,0,1-.85.23,6.49,6.49,0,0,1-1,.09q-3.42,0-3.42-3.6v-7h-1.69v-.86l1.69-.74.75-2.51h1v2.72h3.42v1.39h-3.42v6.93a2.36,2.36,0,0,0,.51,1.63A1.74,1.74,0,0,0,1061.74,164Z"/><path class="cls-6" d="M1076.13,165.51a5,5,0,0,1-4-1.57,6.44,6.44,0,0,1-1.4-4.45,6.67,6.67,0,0,1,1.42-4.57,5.14,5.14,0,0,1,4.06-1.61,8.09,8.09,0,0,1,1.69.18,5.6,5.6,0,0,1,1.33.43l-.54,1.52a9.29,9.29,0,0,0-1.29-.4,6,6,0,0,0-1.24-.15q-3.59,0-3.59,4.57a5.46,5.46,0,0,0,.88,3.33,3,3,0,0,0,2.59,1.16,7.94,7.94,0,0,0,3-.63v1.58A6.41,6.41,0,0,1,1076.13,165.51Z"/><path class="cls-6" d="M1089.14,165.3l-.36-1.68h-.08a5,5,0,0,1-1.76,1.5,5.37,5.37,0,0,1-2.19.39,3.93,3.93,0,0,1-2.74-.9,3.31,3.31,0,0,1-1-2.57c0-2.37,1.91-3.62,5.71-3.74l2-.06v-.73a3,3,0,0,0-.6-2,2.46,2.46,0,0,0-1.91-.66,7.79,7.79,0,0,0-3.33.9l-.54-1.36a8.63,8.63,0,0,1,1.9-.74,8.25,8.25,0,0,1,2.08-.27,4.51,4.51,0,0,1,3.12.93,3.91,3.91,0,0,1,1,3v8Zm-4-1.26a3.59,3.59,0,0,0,2.61-.91,3.36,3.36,0,0,0,1-2.56v-1.06l-1.78.07a6.51,6.51,0,0,0-3.07.66,2,2,0,0,0-.94,1.82,1.86,1.86,0,0,0,.59,1.48A2.47,2.47,0,0,0,1085.11,164Z"/><path class="cls-6" d="M1095.91,165.3h-1.78V148.58h1.78Z"/><path class="cls-6" d="M1101.48,165.3h-1.78V148.58h1.78Z"/><path class="cls-6" d="M1114.78,164a5.41,5.41,0,0,0,.91-.07,7.11,7.11,0,0,0,.7-.14v1.36a3.35,3.35,0,0,1-.85.23,6.61,6.61,0,0,1-1,.09q-3.42,0-3.42-3.6v-7h-1.68v-.86l1.68-.74.76-2.51h1v2.72h3.41v1.39h-3.41v6.93a2.36,2.36,0,0,0,.5,1.63A1.77,1.77,0,0,0,1114.78,164Z"/><path class="cls-6" d="M1126.8,165.3v-7.62a3.06,3.06,0,0,0-.66-2.15,2.67,2.67,0,0,0-2.05-.71,3.37,3.37,0,0,0-2.71,1,5.13,5.13,0,0,0-.86,3.31v6.16h-1.78V148.58h1.78v5.06a10.78,10.78,0,0,1-.08,1.52h.11a3.66,3.66,0,0,1,1.49-1.34,4.83,4.83,0,0,1,2.22-.49,4.52,4.52,0,0,1,3.24,1,4.31,4.31,0,0,1,1.08,3.26v7.68Z"/><path class="cls-6" d="M1137.22,165.51a5.4,5.4,0,0,1-4.12-1.59,6.13,6.13,0,0,1-1.51-4.41A6.87,6.87,0,0,1,1133,155a4.68,4.68,0,0,1,3.77-1.67,4.44,4.44,0,0,1,3.5,1.45,5.59,5.59,0,0,1,1.29,3.84v1.13h-8.11a4.65,4.65,0,0,0,1,3.15,3.63,3.63,0,0,0,2.8,1.07,9.47,9.47,0,0,0,3.76-.79v1.59a8.84,8.84,0,0,1-1.79.58A9.86,9.86,0,0,1,1137.22,165.51Zm-.49-10.71a2.92,2.92,0,0,0-2.26.93,4.23,4.23,0,0,0-1,2.55h6.15a3.93,3.93,0,0,0-.75-2.58A2.63,2.63,0,0,0,1136.73,154.8Z"/><path class="cls-6" d="M1155.4,165.3h-1.82V151.21h-5v-1.62h11.78v1.62h-5Z"/><path class="cls-6" d="M1170.53,165.3v-7.62a3.06,3.06,0,0,0-.66-2.15,2.67,2.67,0,0,0-2-.71,3.37,3.37,0,0,0-2.71,1,5.13,5.13,0,0,0-.85,3.31v6.16h-1.79V148.58h1.79v5.06a10.59,10.59,0,0,1-.09,1.52h.11a3.63,3.63,0,0,1,1.5-1.34,4.76,4.76,0,0,1,2.21-.49,4.52,4.52,0,0,1,3.24,1,4.31,4.31,0,0,1,1.08,3.26v7.68Z"/><path class="cls-6" d="M1183.22,165.3l-.36-1.68h-.08a5,5,0,0,1-1.76,1.5,5.37,5.37,0,0,1-2.19.39,3.93,3.93,0,0,1-2.74-.9,3.31,3.31,0,0,1-1-2.57c0-2.37,1.91-3.62,5.71-3.74l2-.06v-.73a3,3,0,0,0-.6-2,2.46,2.46,0,0,0-1.91-.66,7.79,7.79,0,0,0-3.33.9l-.54-1.36a8.63,8.63,0,0,1,1.9-.74,8.25,8.25,0,0,1,2.08-.27,4.51,4.51,0,0,1,3.12.93,3.91,3.91,0,0,1,1,3v8Zm-4-1.26a3.59,3.59,0,0,0,2.61-.91,3.36,3.36,0,0,0,1-2.56v-1.06l-1.78.07a6.51,6.51,0,0,0-3.07.66,2,2,0,0,0-.94,1.82,1.86,1.86,0,0,0,.59,1.48A2.47,2.47,0,0,0,1179.19,164Z"/><path class="cls-6" d="M1203.22,165.3v-7.66a3.18,3.18,0,0,0-.6-2.11,2.35,2.35,0,0,0-1.87-.71,3,3,0,0,0-2.46,1,4.55,4.55,0,0,0-.8,2.94v6.58h-1.78v-7.66a3.18,3.18,0,0,0-.6-2.11,2.34,2.34,0,0,0-1.88-.71,2.92,2.92,0,0,0-2.46,1,5.41,5.41,0,0,0-.78,3.29v6.18h-1.78V153.52h1.45l.29,1.61h.09a3.47,3.47,0,0,1,1.42-1.34,4.38,4.38,0,0,1,2.06-.48c1.84,0,3,.66,3.61,2h.08a3.66,3.66,0,0,1,1.53-1.46,4.69,4.69,0,0,1,2.28-.54,4,4,0,0,1,3,1,4.62,4.62,0,0,1,1,3.29v7.68Z"/><path class="cls-6" d="M1213.65,165.51a5.42,5.42,0,0,1-4.12-1.59,6.13,6.13,0,0,1-1.51-4.41,6.87,6.87,0,0,1,1.4-4.53,4.68,4.68,0,0,1,3.77-1.67,4.44,4.44,0,0,1,3.5,1.45,5.59,5.59,0,0,1,1.29,3.84v1.13h-8.11a4.6,4.6,0,0,0,1.05,3.15,3.59,3.59,0,0,0,2.79,1.07,9.47,9.47,0,0,0,3.76-.79v1.59a8.84,8.84,0,0,1-1.79.58A9.86,9.86,0,0,1,1213.65,165.51Zm-.48-10.71a2.93,2.93,0,0,0-2.27.93,4.23,4.23,0,0,0-1,2.55h6.16a3.93,3.93,0,0,0-.76-2.58A2.62,2.62,0,0,0,1213.17,154.8Z"/><path class="cls-6" d="M1228.61,162.08a3,3,0,0,1-1.22,2.54,5.79,5.79,0,0,1-3.44.89,7.51,7.51,0,0,1-3.65-.74v-1.65a8.75,8.75,0,0,0,1.82.67,7.35,7.35,0,0,0,1.87.25,4.22,4.22,0,0,0,2.15-.45,1.54,1.54,0,0,0,.16-2.53,9.57,9.57,0,0,0-2.33-1.16,13,13,0,0,1-2.34-1.06,3.28,3.28,0,0,1-1-1,2.78,2.78,0,0,1-.33-1.39,2.64,2.64,0,0,1,1.17-2.27,5.49,5.49,0,0,1,3.21-.83,9.5,9.5,0,0,1,3.72.77l-.64,1.45a8.65,8.65,0,0,0-3.21-.73,3.62,3.62,0,0,0-1.91.4,1.23,1.23,0,0,0-.65,1.09,1.28,1.28,0,0,0,.25.81,2.32,2.32,0,0,0,.77.63,14.77,14.77,0,0,0,2.07.87,7.71,7.71,0,0,1,2.83,1.54A2.7,2.7,0,0,1,1228.61,162.08Z"/><path class="cls-6" d="M1239.32,158.77v6.53h-1.82V149.59h4.3a6.75,6.75,0,0,1,4.27,1.11,4,4,0,0,1,1.38,3.33,4.17,4.17,0,0,1-3.15,4.21l4.26,7.06h-2.16l-3.8-6.53Zm0-1.57h2.51a4.33,4.33,0,0,0,2.83-.77,2.86,2.86,0,0,0,.9-2.31,2.63,2.63,0,0,0-.91-2.24,5,5,0,0,0-3-.69h-2.38Z"/><path class="cls-6" d="M1250.68,150.33a1.18,1.18,0,0,1,.3-.89,1.1,1.1,0,0,1,1.49,0,1.16,1.16,0,0,1,.31.89,1.19,1.19,0,0,1-.31.9,1.08,1.08,0,0,1-1.49,0A1.22,1.22,0,0,1,1250.68,150.33Zm1.93,15h-1.78V153.52h1.78Z"/><path class="cls-6" d="M1259,165.3l-4.47-11.78h1.91l2.54,7a33.35,33.35,0,0,1,1,3.18h.08a24.16,24.16,0,0,1,.75-2.36c.42-1.19,1.36-3.8,2.82-7.81h1.91l-4.47,11.78Z"/><path class="cls-6" d="M1272.39,165.51a5.4,5.4,0,0,1-4.12-1.59,6.13,6.13,0,0,1-1.51-4.41,6.87,6.87,0,0,1,1.4-4.53,4.66,4.66,0,0,1,3.76-1.67,4.45,4.45,0,0,1,3.51,1.45,5.59,5.59,0,0,1,1.29,3.84v1.13h-8.11a4.65,4.65,0,0,0,1,3.15,3.63,3.63,0,0,0,2.8,1.07,9.47,9.47,0,0,0,3.76-.79v1.59a9,9,0,0,1-1.79.58A9.86,9.86,0,0,1,1272.39,165.51Zm-.49-10.71a2.9,2.9,0,0,0-2.26.93,4.23,4.23,0,0,0-1,2.55h6.15a3.93,3.93,0,0,0-.75-2.58A2.65,2.65,0,0,0,1271.9,154.8Z"/><path class="cls-6" d="M1285.13,153.31a6.6,6.6,0,0,1,1.4.13l-.24,1.65a6,6,0,0,0-1.29-.16,3.17,3.17,0,0,0-2.45,1.16,4.26,4.26,0,0,0-1,2.89v6.32h-1.78V153.52h1.47l.2,2.18h.09a5.16,5.16,0,0,1,1.58-1.77A3.57,3.57,0,0,1,1285.13,153.31Z"/><path class="cls-6" d="M1298.25,164a5.53,5.53,0,0,0,.92-.07c.29-.05.52-.09.7-.14v1.36a3.45,3.45,0,0,1-.86.23,6.49,6.49,0,0,1-1,.09q-3.42,0-3.42-3.6v-7h-1.69v-.86l1.69-.74.75-2.51h1v2.72h3.42v1.39h-3.42v6.93a2.36,2.36,0,0,0,.51,1.63A1.76,1.76,0,0,0,1298.25,164Z"/><path class="cls-6" d="M1310.27,165.3v-7.62a3.06,3.06,0,0,0-.65-2.15,2.68,2.68,0,0,0-2-.71,3.39,3.39,0,0,0-2.72,1,5.2,5.2,0,0,0-.85,3.31v6.16h-1.78V148.58H1304v5.06a12.55,12.55,0,0,1-.08,1.52h.1a3.63,3.63,0,0,1,1.5-1.34,4.83,4.83,0,0,1,2.22-.49,4.52,4.52,0,0,1,3.24,1,4.31,4.31,0,0,1,1.08,3.26v7.68Z"/><path class="cls-6" d="M1320.69,165.51a5.42,5.42,0,0,1-4.12-1.59,6.17,6.17,0,0,1-1.5-4.41,6.82,6.82,0,0,1,1.4-4.53,4.66,4.66,0,0,1,3.76-1.67,4.41,4.41,0,0,1,3.5,1.45,5.59,5.59,0,0,1,1.29,3.84v1.13h-8.11a4.7,4.7,0,0,0,1,3.15,3.61,3.61,0,0,0,2.8,1.07,9.47,9.47,0,0,0,3.76-.79v1.59a9,9,0,0,1-1.79.58A9.9,9.9,0,0,1,1320.69,165.51Zm-.48-10.71a2.9,2.9,0,0,0-2.26.93,4.23,4.23,0,0,0-1,2.55h6.15a3.93,3.93,0,0,0-.75-2.58A2.65,2.65,0,0,0,1320.21,154.8Z"/><path class="cls-6" d="M1327.91,150.33a1.18,1.18,0,0,1,.3-.89,1.11,1.11,0,0,1,1.5,0,1.16,1.16,0,0,1,.31.89,1.19,1.19,0,0,1-.31.9,1.09,1.09,0,0,1-1.5,0A1.22,1.22,0,0,1,1327.91,150.33Zm1.94,15h-1.79V153.52h1.79Z"/><path class="cls-6" d="M1339,153.31a6.77,6.77,0,0,1,1.41.13l-.25,1.65a6,6,0,0,0-1.29-.16,3.13,3.13,0,0,0-2.44,1.16,4.22,4.22,0,0,0-1,2.89v6.32h-1.78V153.52h1.47l.2,2.18h.09a5.26,5.26,0,0,1,1.58-1.77A3.57,3.57,0,0,1,1339,153.31Z"/><path class="cls-6" d="M1032.64,191.7v-7.62a3.06,3.06,0,0,0-.66-2.15,2.68,2.68,0,0,0-2-.71,3.37,3.37,0,0,0-2.71,1,5.13,5.13,0,0,0-.86,3.31v6.16h-1.78V175h1.78V180a12.67,12.67,0,0,1-.08,1.52h.1a3.68,3.68,0,0,1,1.5-1.34,4.83,4.83,0,0,1,2.22-.49,4.56,4.56,0,0,1,3.24,1,4.35,4.35,0,0,1,1.08,3.27v7.68Z"/><path class="cls-6" d="M1048.25,185.8a6.45,6.45,0,0,1-1.46,4.49,5.08,5.08,0,0,1-4,1.62,5.38,5.38,0,0,1-2.81-.74,4.92,4.92,0,0,1-1.89-2.13,7.44,7.44,0,0,1-.66-3.24,6.49,6.49,0,0,1,1.44-4.49,5.08,5.08,0,0,1,4-1.6,5,5,0,0,1,3.93,1.64A6.48,6.48,0,0,1,1048.25,185.8Zm-9,0a5.62,5.62,0,0,0,.9,3.44,3.58,3.58,0,0,0,5.31,0,5.58,5.58,0,0,0,.91-3.44,5.5,5.5,0,0,0-.91-3.41,3.19,3.19,0,0,0-2.68-1.17,3.14,3.14,0,0,0-2.64,1.15A5.51,5.51,0,0,0,1039.28,185.8Z"/><path class="cls-6" d="M1066.38,191.7V184a3.18,3.18,0,0,0-.6-2.11,2.33,2.33,0,0,0-1.87-.71,3,3,0,0,0-2.46,1,4.55,4.55,0,0,0-.8,2.94v6.58h-1.78V184a3.18,3.18,0,0,0-.6-2.11,2.34,2.34,0,0,0-1.88-.71,2.92,2.92,0,0,0-2.46,1,5.41,5.41,0,0,0-.78,3.29v6.18h-1.78V179.92h1.45l.29,1.61h.09a3.47,3.47,0,0,1,1.42-1.34,4.38,4.38,0,0,1,2.06-.48c1.84,0,3,.66,3.61,2h.08a3.66,3.66,0,0,1,1.53-1.46,4.69,4.69,0,0,1,2.28-.54,4,4,0,0,1,3,1,4.62,4.62,0,0,1,1,3.29v7.68Z"/><path class="cls-6" d="M1076.81,191.91a5.42,5.42,0,0,1-4.12-1.59,6.13,6.13,0,0,1-1.51-4.41,6.87,6.87,0,0,1,1.4-4.53,4.68,4.68,0,0,1,3.77-1.67,4.44,4.44,0,0,1,3.5,1.45,5.57,5.57,0,0,1,1.29,3.84v1.13H1073a4.62,4.62,0,0,0,1,3.15,3.59,3.59,0,0,0,2.79,1.07,9.47,9.47,0,0,0,3.76-.79v1.59a8.84,8.84,0,0,1-1.79.58A9.86,9.86,0,0,1,1076.81,191.91Zm-.48-10.71a3,3,0,0,0-2.27.92,4.29,4.29,0,0,0-1,2.56h6.16a3.93,3.93,0,0,0-.76-2.58A2.62,2.62,0,0,0,1076.33,181.2Z"/><path class="cls-6" d="M1083.92,190.56a1.58,1.58,0,0,1,.33-1.09,1.18,1.18,0,0,1,.94-.37,1.26,1.26,0,0,1,1,.37,1.53,1.53,0,0,1,.35,1.09,1.49,1.49,0,0,1-.36,1.07,1.4,1.4,0,0,1-1.87,0A1.48,1.48,0,0,1,1083.92,190.56Z"/><rect class="cls-7" x="748.84" y="220.73" width="165.23" height="45.79"/><path d="M805.54,247.76a3.61,3.61,0,0,1-1.38,3,5.72,5.72,0,0,1-3.66,1.09,11.58,11.58,0,0,1-4.22-.6v-1a10.63,10.63,0,0,0,4.13.69,4.6,4.6,0,0,0,2.93-.85,2.67,2.67,0,0,0,1.08-2.22,2.59,2.59,0,0,0-.36-1.41,3.2,3.2,0,0,0-1.16-1,15.91,15.91,0,0,0-2.38-1,8.3,8.3,0,0,1-3.18-1.71,3.68,3.68,0,0,1,.44-5.19,5.28,5.28,0,0,1,3.39-1.06,10,10,0,0,1,4,.8l-.38.9a9.39,9.39,0,0,0-3.57-.77,4.18,4.18,0,0,0-2.64.76,2.52,2.52,0,0,0-1,2.1,2.66,2.66,0,0,0,.31,1.36,2.69,2.69,0,0,0,1,1,13.83,13.83,0,0,0,2.35,1,12.62,12.62,0,0,1,2.64,1.17,3.78,3.78,0,0,1,1.29,1.29A3.56,3.56,0,0,1,805.54,247.76Z"/><path d="M808.31,237.39c0-.66.21-1,.65-1a.57.57,0,0,1,.49.26,1.55,1.55,0,0,1,0,1.45.56.56,0,0,1-.49.27C808.52,238.38,808.31,238.05,808.31,237.39Zm1.16,14.24h-1V240.48h1Z"/><path d="M821.9,240.48v.71l-2.31.14a4,4,0,0,1,.92,2.53,3.39,3.39,0,0,1-1.07,2.61,4.07,4.07,0,0,1-2.88,1,5.18,5.18,0,0,1-1.06-.07,2.73,2.73,0,0,0-.92.75,1.47,1.47,0,0,0-.32.92.83.83,0,0,0,.4.77,2.71,2.71,0,0,0,1.36.25h2a4.51,4.51,0,0,1,2.78.73,2.57,2.57,0,0,1,1,2.17,3.05,3.05,0,0,1-1.43,2.72,7.27,7.27,0,0,1-4.07,1,5.61,5.61,0,0,1-3.26-.81,2.59,2.59,0,0,1-1.15-2.25,2.66,2.66,0,0,1,.71-1.91,3.68,3.68,0,0,1,1.93-1,2,2,0,0,1-.8-.62,1.44,1.44,0,0,1-.31-.9,2.39,2.39,0,0,1,1.43-2,3.2,3.2,0,0,1-1.52-1.26,3.58,3.58,0,0,1-.54-2,3.5,3.5,0,0,1,1.06-2.68,4,4,0,0,1,2.87-1,5.43,5.43,0,0,1,1.7.21Zm-9,13c0,1.53,1.14,2.29,3.42,2.29,2.92,0,4.39-.93,4.39-2.8a1.6,1.6,0,0,0-.69-1.45,4.21,4.21,0,0,0-2.23-.45h-1.82C813.89,251.11,812.87,251.91,812.87,253.52Zm.85-9.56a2.57,2.57,0,0,0,.79,2,3.49,3.49,0,0,0,4.23,0,2.69,2.69,0,0,0,.75-2.05,2.78,2.78,0,0,0-.77-2.14,3,3,0,0,0-2.14-.71,2.83,2.83,0,0,0-2.09.76A2.88,2.88,0,0,0,813.72,244Z"/><path d="M832,251.63V244.4a3.55,3.55,0,0,0-.71-2.45,2.9,2.9,0,0,0-2.2-.76,3.78,3.78,0,0,0-2.92,1,4.76,4.76,0,0,0-.93,3.28v6.15h-1V240.48H825l.2,1.53h.06q1.08-1.74,3.87-1.74c2.53,0,3.79,1.35,3.79,4.07v7.29Z"/><path d="M853.3,236.64v9.7a5.4,5.4,0,0,1-1.49,4,5.74,5.74,0,0,1-4.18,1.45,5.06,5.06,0,0,1-5.52-5.53v-9.66h1v9.7a4.17,4.17,0,0,0,4.6,4.57,4.1,4.1,0,0,0,4.5-4.47v-9.8Z"/><path d="M861.9,251.83a4.09,4.09,0,0,1-3.76-1.92h-.07l0,.86c0,.5,0,1.06,0,1.66v4.24h-1V240.48H858l.19,1.59h.07a4,4,0,0,1,3.67-1.8,4.14,4.14,0,0,1,3.44,1.48,6.77,6.77,0,0,1,1.18,4.31,6.53,6.53,0,0,1-1.24,4.26A4.17,4.17,0,0,1,861.9,251.83Zm0-.9a3.1,3.1,0,0,0,2.65-1.27,5.93,5.93,0,0,0,.94-3.56c0-3.27-1.19-4.91-3.55-4.91a3.57,3.57,0,0,0-2.86,1.07,5.36,5.36,0,0,0-.92,3.49v.33a6.16,6.16,0,0,0,.88,3.73A3.41,3.41,0,0,0,861.88,250.93Z"/><rect class="cls-7" x="1196.76" y="220.73" width="165.23" height="45.79"/><path d="M1258.28,244a7.63,7.63,0,0,1-2,5.71,8,8,0,0,1-5.81,1.93h-3.59v-15h4a6.56,6.56,0,0,1,7.33,7.35Zm-1.14,0a5.74,5.74,0,0,0-6.44-6.47H1248v13.15h2.48Q1257.14,250.71,1257.14,244Z"/><path d="M1270.69,246a6.31,6.31,0,0,1-1.32,4.26,4.58,4.58,0,0,1-3.65,1.53,4.76,4.76,0,0,1-2.59-.7,4.63,4.63,0,0,1-1.71-2,7.36,7.36,0,0,1-.59-3.06,6.29,6.29,0,0,1,1.32-4.25,4.57,4.57,0,0,1,3.63-1.52,4.46,4.46,0,0,1,3.6,1.54A6.35,6.35,0,0,1,1270.69,246Zm-8.8,0a5.67,5.67,0,0,0,1,3.58,3.8,3.8,0,0,0,5.71,0,6.82,6.82,0,0,0,0-7.16,3.84,3.84,0,0,0-5.71,0A5.63,5.63,0,0,0,1261.89,246Z"/><path d="M1281.55,251.63V244.4a3.55,3.55,0,0,0-.71-2.45,2.88,2.88,0,0,0-2.19-.76,3.81,3.81,0,0,0-2.93,1,4.76,4.76,0,0,0-.93,3.28v6.15h-1V240.48h.86l.19,1.53h.06a4.21,4.21,0,0,1,3.87-1.74c2.53,0,3.79,1.35,3.79,4.07v7.29Z"/><path d="M1292.93,251.63l-.26-1.76h-.08a5.32,5.32,0,0,1-1.73,1.52,4.57,4.57,0,0,1-2.09.44,3.64,3.64,0,0,1-2.56-.84,3,3,0,0,1-.91-2.32,2.87,2.87,0,0,1,1.36-2.54,7.38,7.38,0,0,1,3.93-.95l2.12-.06v-.74a3.8,3.8,0,0,0-.64-2.4,2.51,2.51,0,0,0-2.08-.81,7,7,0,0,0-3.21.86l-.38-.88a8.53,8.53,0,0,1,3.63-.86,3.63,3.63,0,0,1,2.74,1,4.17,4.17,0,0,1,.91,3v7.42Zm-4.1-.72a3.55,3.55,0,0,0,3.84-3.85V246l-1.94.08a7.45,7.45,0,0,0-3.35.73,2.12,2.12,0,0,0-1,1.94,2.06,2.06,0,0,0,.64,1.62A2.59,2.59,0,0,0,1288.83,250.91Z"/><path d="M1300.23,250.93a7.6,7.6,0,0,0,1.68-.16v.82a5.49,5.49,0,0,1-1.7.24A2.77,2.77,0,0,1,1298,251a3.64,3.64,0,0,1-.7-2.48v-7.19h-1.65v-.6l1.65-.46.51-2.52h.52v2.69h3.27v.89h-3.27v7a3.17,3.17,0,0,0,.46,1.9A1.63,1.63,0,0,0,1300.23,250.93Z"/><path d="M1308.82,251.83a4.85,4.85,0,0,1-3.78-1.49,6,6,0,0,1-1.36-4.2,6.52,6.52,0,0,1,1.31-4.27,4.32,4.32,0,0,1,3.54-1.6,3.83,3.83,0,0,1,3.1,1.37,5.67,5.67,0,0,1,1.14,3.73v.82h-8a5.31,5.31,0,0,0,1.07,3.51,3.77,3.77,0,0,0,3,1.21,9.25,9.25,0,0,0,1.68-.13,10,10,0,0,0,1.83-.58v.93a8.48,8.48,0,0,1-1.74.56A10.68,10.68,0,0,1,1308.82,251.83Zm-.29-10.66a3.33,3.33,0,0,0-2.59,1.06,5,5,0,0,0-1.14,3.06h6.89a4.87,4.87,0,0,0-.84-3A2.75,2.75,0,0,0,1308.53,241.17Z"/></svg>