<?xml version="1.0" encoding="utf-8"?>
<!-- Generator: Adobe Illustrator 22.1.0, SVG Export Plug-In . SVG Version: 6.00 Build 0)  -->
<svg version="1.1" id="Layer_1" xmlns="http://www.w3.org/2000/svg" xmlns:xlink="http://www.w3.org/1999/xlink" x="0px" y="0px"
	 viewBox="0 0 1400 300" style="enable-background:new 0 0 1400 300;" xml:space="preserve">
<style type="text/css">
	.st0{opacity:0.55;enable-background:new    ;}
	.st1{fill:#666565;}
	.st2{fill:#5D7031;}
	.st3{fill:#666565;stroke:#F1F2F2;stroke-width:0.25;stroke-miterlimit:10;}
	.st4{fill:#FFFFFF;stroke:#9ABD4B;stroke-width:4.4111;stroke-miterlimit:10;}
	.st5{fill:#FFFFFF;stroke:#FFFFFF;stroke-width:6;stroke-linejoin:round;stroke-miterlimit:10;}
	.st6{fill:none;stroke:#9ABD4B;stroke-width:4.4111;stroke-miterlimit:10;}
	.st7{fill:#D8AE58;}
	.st8{fill:#FFFFFF;}
	.st9{fill:#FFFFFF;stroke:#FFFFFF;stroke-width:6;stroke-miterlimit:10;}
	.st10{fill:none;}
	.st11{fill:#666665;}
	.st12{fill:none;stroke:#666665;stroke-width:2;stroke-linecap:round;stroke-linejoin:round;stroke-miterlimit:10;}
	.st13{fill:none;stroke:#666665;stroke-width:2;stroke-miterlimit:10;}
	.st14{fill:none;stroke:#666665;stroke-width:2.1;stroke-miterlimit:10;}
	.st15{fill:none;stroke:#D42027;stroke-width:2;stroke-linejoin:round;stroke-miterlimit:10;}
	.st16{fill:none;stroke:#D42027;stroke-linejoin:round;stroke-miterlimit:10;}
	.st17{fill:none;stroke:#D42027;stroke-width:2;stroke-linecap:round;stroke-linejoin:round;stroke-miterlimit:10;}
	.st18{fill:none;stroke:#D42027;stroke-miterlimit:10;}
</style>
<g id="text">
	<g class="st0">
		<path class="st1" d="M227.1,169.3h-44.5l-21.8-71.7l-22.3,71.7H94L62.2-17.4l44.5-0.3l9.5,100.8l35-57.3l25.9-0.3l27.7,57.6
			l11.4-100.5h44.1L227.1,169.3z"/>
		<path class="st1" d="M420.1-17.4v28.8h-88.6v42.9h88.6l-31.3,28.8h-57.2v57.3h88.6v28.8H287V-17.4H420.1z"/>
		<path class="st1" d="M491.4-17.4v157.9h89v28.8H446.9V-17.4H491.4z"/>
		<path class="st1" d="M673.1-17.4c44.5,0,66.8,14.4,66.8,43.2h2.7l-46.8,28.5V25.6c0-9.7-7.3-14.4-22.3-14.4
			c-15,0-22.3,4.7-22.3,14.4v100.8c0,9.4,7.3,14.1,22.3,14.1c15,0,22.3-4.7,22.3-14.1V97.6h44.1v28.8c0,28.5-22.3,42.9-66.8,42.9
			c-44.1,0-66.3-14.4-66.3-42.9V25.9C606.8-3,629.1-17.4,673.1-17.4z"/>
		<path class="st1" d="M835.3-17.4c44.5,0,66.8,14.4,66.8,43.2v100.6c0,28.5-22.3,42.9-66.8,42.9c-44.1,0-66.3-14.4-66.3-42.9V25.9
			C769-3,791.2-17.4,835.3-17.4z M835.8,11.2c-15,0-22.3,4.7-22.3,14.4v100.8c0,9.4,7.3,14.1,22.3,14.1c15,0,22.3-4.7,22.3-14.1v-72
			V25.6C858,15.9,850.8,11.2,835.8,11.2z"/>
		<path class="st1" d="M928.9-17.7h44.5l54.1,100.8l55.4-100.5h44.1v186.7l-44.1,0.3l0.5-123.2l-33.6,65.6h-44.5l-31.8-63.2v120.5
			h-44.5V-17.7z"/>
		<path class="st1" d="M1286.8-17.4v28.8h-88.6v42.9h88.6l-31.3,28.8h-57.2v57.3h88.6v28.8h-133.1V-17.4H1286.8z"/>
	</g>
	<path class="st1" d="M536,161.1c22.1,0,33.2,11.1,33.2,33.2v77.2c0,21.9-11.1,33-33.2,33c-21.9,0-33-11.1-33-33v-77.2
		C503,172.1,514,161.1,536,161.1z M536.2,183c-7.5,0-11.1,3.6-11.1,11.1v77.5c0,7.2,3.6,10.8,11.1,10.8s11.1-3.6,11.1-10.8v-55.3
		v-22.1C547.2,186.6,543.6,183,536.2,183z"/>
	<path class="st1" d="M109.2,160.6h80.7v23.1h-29.5v126.7h-23.1V183.7h-28.1C109.2,183.7,109.2,160.6,109.2,160.6z"/>
	<path class="st1" d="M355.8,160.6v23.1h-46v34.4h46l-16.3,23.1h-29.7v46h46v23.1h-69.1V160.6H355.8z"/>
	<path class="st1" d="M1008.9,310.4V160.6h46.2c15.3,0,22.9,13.4,22.9,40.3c0,26.9-7.6,40.8-22.9,41.5l22.9,67.9h-22.9l-23.1-67.9
		v67.9L1008.9,310.4L1008.9,310.4z M1032,183.7v34.4h11.6c7.8,0,11.6-5.7,11.6-17.2s-3.8-17.2-11.6-17.2L1032,183.7L1032,183.7z"/>
	<path class="st1" d="M1239.6,160.6h18.6l28.1,149.8h-18.6l-9.4-34.5H1221l-9.2,34.5h-18.6l28.1-149.8H1239.6z M1225.9,252.9h28.3
		l-13.9-69.1L1225.9,252.9z"/>
</g>
<g id="left_side_trees">
	<g id="tree__x2B__shadow_2_">
		
			<image style="overflow:visible;opacity:0.62;enable-background:new    ;" width="88" height="148" xlink:href="FF451D4ED8858B86.png"  transform="matrix(1 0 0 1 -11 203)">
		</image>
		<g>
			<g>
				<g id="tree_38_">
					<path id="XMLID_179_" class="st2" d="M53.7,279.6H63l-35-70.7l-35,70.7h9.3L-7,298.4h9.3L-7,317.1h30.6v16.2
						c0,2.3,2,4.2,4.4,4.2l0,0c2.4,0,4.4-1.9,4.4-4.2v-16.2H63l-9.3-18.7H63L53.7,279.6z"/>
					<path id="XMLID_177_" class="st2" d="M32.4,317H63l-9.3-18.7H63l-9.3-18.7H63l-35-70.7v128.5l0,0c2.4,0,4.4-1.9,4.4-4.2
						C32.4,333.2,32.4,317,32.4,317z"/>
				</g>
			</g>
		</g>
	</g>
	<g id="tree__x2B__shadow_1_">
		
			<image style="overflow:visible;opacity:0.69;enable-background:new    ;" width="88" height="148" xlink:href="FF451D4ED8858B8A.png"  transform="matrix(1 0 0 1 28 203)">
		</image>
		<g>
			<g>
				<g id="tree_37_">
					<path id="XMLID_175_" class="st2" d="M104.7,279.6h9.3l-35-70.7l-35,70.7h9.3L44,298.4h9.3L44,317.1h30.6v16.2
						c0,2.3,2,4.2,4.4,4.2l0,0c2.4,0,4.4-1.9,4.4-4.2v-16.2H114l-9.3-18.7h9.3L104.7,279.6z"/>
					<path id="XMLID_172_" class="st2" d="M83.4,317H114l-9.3-18.7h9.3l-9.3-18.7h9.3l-35-70.7v128.5l0,0c2.4,0,4.4-1.9,4.4-4.2
						C83.4,333.2,83.4,317,83.4,317z"/>
				</g>
			</g>
		</g>
	</g>
	<g id="tree__x2B__shadow_6_">
		
			<image style="overflow:visible;opacity:0.69;enable-background:new    ;" width="77" height="125" xlink:href="FF451D4ED8858B8D.png"  transform="matrix(1 0 0 1 125 221)">
		</image>
		<g>
			<g>
				<g id="tree_36_">
					<path id="XMLID_169_" class="st2" d="M191.6,284.5h7.6l-28.8-58.1l-28.8,58.1h7.6l-7.6,15.4h7.6l-7.6,15.4h25.2v13.3
						c0,1.9,1.6,3.5,3.6,3.5l0,0c2,0,3.6-1.6,3.6-3.5v-13.3h25.2l-7.6-15.4h7.6L191.6,284.5z"/>
					<path id="XMLID_166_" class="st2" d="M174,315.2h25.2l-7.6-15.4h7.6l-7.6-15.4h7.6l-28.8-58.1V332l0,0c2,0,3.6-1.6,3.6-3.5
						C174,328.5,174,315.2,174,315.2z"/>
				</g>
			</g>
		</g>
	</g>
	<g id="tree__x2B__shadow_10_">
		
			<image style="overflow:visible;opacity:0.69;enable-background:new    ;" width="69" height="111" xlink:href="FF451D4ED8858B8E.png"  transform="matrix(1 0 0 1 195 235)">
		</image>
		<g>
			<g>
				<g id="tree_35_">
					<path id="XMLID_163_" class="st2" d="M254.8,290.9h6.6l-24.9-50.3l-24.9,50.3h6.6l-6.6,13.3h6.6l-6.6,13.3h21.8V329
						c0,1.6,1.4,3,3.1,3l0,0c1.7,0,3.1-1.4,3.1-3v-11.5h21.8l-6.6-13.3h6.6L254.8,290.9z"/>
					<path id="XMLID_159_" class="st2" d="M239.6,317.5h21.8l-6.6-13.3h6.6l-6.6-13.3h6.6l-24.9-50.3V332l0,0c1.7,0,3.1-1.4,3.1-3
						C239.6,329,239.6,317.5,239.6,317.5z"/>
				</g>
			</g>
		</g>
	</g>
	<g id="tree__x2B__shadow_14_">
		
			<image style="overflow:visible;opacity:0.69;enable-background:new    ;" width="65" height="104" xlink:href="FF451D4ED8858B8C.png"  transform="matrix(1 0 0 1 286 242)">
		</image>
		<g>
			<g>
				<g id="tree_34_">
					<path id="XMLID_155_" class="st2" d="M342.6,294h6.1l-23-46.5l-23,46.5h6.1l-6.1,12.3h6.1l-6.1,12.3h20.1v10.6
						c0,1.5,1.3,2.8,2.9,2.8l0,0c1.6,0,2.9-1.2,2.9-2.8v-10.6h20.1l-6.1-12.3h6.1L342.6,294z"/>
					<path id="XMLID_154_" class="st2" d="M328.5,318.6h20.1l-6.1-12.3h6.1l-6.1-12.3h6.1l-23-46.5V332l0,0c1.6,0,2.9-1.2,2.9-2.8
						L328.5,318.6L328.5,318.6z"/>
				</g>
			</g>
		</g>
	</g>
	<g id="tree__x2B__shadow_18_">
		
			<image style="overflow:visible;opacity:0.69;enable-background:new    ;" width="70" height="112" xlink:href="FF451D4ED8858B8B.png"  transform="matrix(1 0 0 1 369 234)">
		</image>
		<g>
			<g>
				<g id="tree_33_">
					<path id="XMLID_152_" class="st2" d="M429.4,290.3h6.7l-25.2-51l-25.2,51h6.7l-6.7,13.5h6.7l-6.7,13.5h22.1V329
						c0,1.7,1.4,3,3.2,3l0,0c1.8,0,3.2-1.4,3.2-3v-11.7h22.1l-6.7-13.5h6.7L429.4,290.3z"/>
					<path id="XMLID_150_" class="st2" d="M414,317.3h22.1l-6.7-13.5h6.7l-6.7-13.5h6.7l-25.2-51V332l0,0c1.8,0,3.2-1.4,3.2-3
						C414,328.9,414,317.3,414,317.3z"/>
				</g>
			</g>
		</g>
	</g>
	<g id="tree__x2B__shadow_12_">
		
			<image style="overflow:visible;opacity:0.69;enable-background:new    ;" width="89" height="147" xlink:href="FF451D4ED8858B85.png"  transform="matrix(1 0 0 1 232 203)">
		</image>
		<g>
			<g>
				<g id="tree_32_">
					<path id="XMLID_147_" class="st2" d="M309,278.5h9.2l-34.8-70.4l-34.8,70.4h9.2l-9.2,18.6h9.2l-9.2,18.6h30.5v16.1
						c0,2.3,2,4.2,4.4,4.2l0,0c2.4,0,4.4-1.9,4.4-4.2v-16.1h30.5l-9.2-18.6h9.2L309,278.5z"/>
					<path id="XMLID_144_" class="st2" d="M287.8,315.7h30.5l-9.2-18.6h9.2l-9.2-18.6h9.2l-34.8-70.4V336l0,0c2.4,0,4.4-1.9,4.4-4.2
						C287.8,331.8,287.8,315.7,287.8,315.7z"/>
				</g>
			</g>
		</g>
	</g>
	<g id="tree__x2B__shadow_16_">
		
			<image style="overflow:visible;opacity:0.69;enable-background:new    ;" width="83" height="136" xlink:href="FF451D4ED8858B87.png"  transform="matrix(1 0 0 1 319 214)">
		</image>
		<g>
			<g>
				<g id="tree_31_">
					<path id="XMLID_141_" class="st2" d="M390.6,283.6h8.4l-31.7-64.1l-31.7,64.1h8.4l-8.4,17h8.4l-8.4,17h27.7v14.7
						c0,2.1,1.8,3.8,4,3.8l0,0c2.2,0,4-1.7,4-3.8v-14.7H399l-8.4-17h8.4L390.6,283.6z"/>
					<path id="XMLID_138_" class="st2" d="M371.3,317.5H399l-8.4-17h8.4l-8.4-17h8.4l-31.7-64.1v116.4l0,0c2.2,0,4-1.7,4-3.8
						C371.3,332.1,371.3,317.5,371.3,317.5z"/>
				</g>
			</g>
		</g>
	</g>
	<g id="tree__x2B__shadow_47_">
		
			<image style="overflow:visible;opacity:0.69;enable-background:new    ;" width="66" height="104" xlink:href="FF451D4ED8858B84.png"  transform="matrix(0.9848 0 0 0.9848 456.8561 242.7879)">
		</image>
		<g>
			<g>
				<g id="tree_22_">
					<path id="XMLID_83_" class="st2" d="M513.4,294h6.1l-23-46.5l-23,46.5h6.1l-6.1,12.3h6.1l-6.1,12.3h20.1v10.6
						c0,1.5,1.3,2.8,2.9,2.8l0,0c1.6,0,2.9-1.2,2.9-2.8v-10.6h20.1l-6.1-12.3h6.1L513.4,294z"/>
					<path id="XMLID_81_" class="st2" d="M499.4,318.6h20.1l-6.1-12.3h6.1l-6.1-12.3h6.1l-23-46.5V332l0,0c1.6,0,2.9-1.2,2.9-2.8
						L499.4,318.6L499.4,318.6z"/>
				</g>
			</g>
		</g>
	</g>
	<g id="tree__x2B__shadow_45_">
		
			<image style="overflow:visible;opacity:0.69;enable-background:new    ;" width="71" height="112" xlink:href="E4FD3C654B4D2AB9.png"  transform="matrix(0.9859 0 0 0.9859 539.8561 234.7887)">
		</image>
		<g>
			<g>
				<g id="tree_18_">
					<path id="XMLID_68_" class="st2" d="M600.3,290.3h6.7l-25.2-51l-25.2,51h6.7l-6.7,13.5h6.7l-6.7,13.5h22.1V329
						c0,1.7,1.4,3,3.2,3l0,0c1.8,0,3.2-1.4,3.2-3v-11.7H607l-6.7-13.5h6.7L600.3,290.3z"/>
					<path id="XMLID_67_" class="st2" d="M584.9,317.3H607l-6.7-13.5h6.7l-6.7-13.5h6.7l-25.2-51V332l0,0c1.8,0,3.2-1.4,3.2-3
						C584.9,328.9,584.9,317.3,584.9,317.3z"/>
				</g>
			</g>
		</g>
	</g>
	<g id="tree__x2B__shadow_43_">
		
			<image style="overflow:visible;opacity:0.69;enable-background:new    ;" width="90" height="147" xlink:href="E4FD3C654B4D2ABF.png"  transform="matrix(0.9889 0 0 0.9889 402.8561 203.8167)">
		</image>
		<g>
			<g>
				<g id="tree_15_">
					<path id="XMLID_62_" class="st2" d="M479.9,278.5h9.2l-34.8-70.4l-34.8,70.4h9.2l-9.2,18.6h9.2l-9.2,18.6h30.5v16.1
						c0,2.3,2,4.2,4.4,4.2l0,0c2.4,0,4.4-1.9,4.4-4.2v-16.1h30.5l-9.2-18.6h9.2L479.9,278.5z"/>
					<path id="XMLID_61_" class="st2" d="M458.6,315.7h30.5l-9.2-18.6h9.2l-9.2-18.6h9.2l-34.8-70.4V336l0,0c2.4,0,4.4-1.9,4.4-4.2
						C458.6,331.8,458.6,315.7,458.6,315.7z"/>
				</g>
			</g>
		</g>
	</g>
	<g id="tree__x2B__shadow_5_">
		
			<image style="overflow:visible;opacity:0.69;enable-background:new    ;" width="84" height="136" xlink:href="E4FD3C654B4D2AB8.png"  transform="matrix(0.9881 0 0 0.9881 489.8561 214.8095)">
		</image>
		<g>
			<g>
				<g id="tree_13_">
					<path id="XMLID_58_" class="st2" d="M561.5,283.6h8.4l-31.7-64.1l-31.7,64.1h8.4l-8.4,17h8.4l-8.4,17h27.7v14.7
						c0,2.1,1.8,3.8,4,3.8l0,0c2.2,0,4-1.7,4-3.8v-14.7h27.7l-8.4-17h8.4L561.5,283.6z"/>
					<path id="XMLID_57_" class="st2" d="M542.1,317.5h27.7l-8.4-17h8.4l-8.4-17h8.4l-31.7-64.1v116.4l0,0c2.2,0,4-1.7,4-3.8
						C542.1,332.1,542.1,317.5,542.1,317.5z"/>
				</g>
			</g>
		</g>
	</g>
	<g id="tree__x2B__shadow_3_">
		
			<image style="overflow:visible;opacity:0.69;enable-background:new    ;" width="72" height="117" xlink:href="E4FD3C654B4D2ABB.png"  transform="matrix(1 0 0 1 85 229)">
		</image>
		<g>
			<g>
				<g id="tree_28_">
					<path id="XMLID_136_" class="st2" d="M147.6,288.2h7l-26.5-53.6l-26.5,53.6h7l-7,14.2h7l-7,14.2h23.2v12.3
						c0,1.8,1.5,3.2,3.3,3.2l0,0c1.8,0,3.3-1.4,3.3-3.2v-12.3h23.2l-7-14.2h7L147.6,288.2z"/>
					<path id="XMLID_128_" class="st2" d="M131.5,316.5h23.2l-7-14.2h7l-7-14.2h7l-26.5-53.6V332l0,0c1.8,0,3.3-1.4,3.3-3.2
						C131.5,328.8,131.5,316.5,131.5,316.5z"/>
				</g>
			</g>
		</g>
	</g>
	<g id="tree__x2B__shadow_57_">
		
			<image style="overflow:visible;opacity:0.69;enable-background:new    ;" width="73" height="117" xlink:href="E4FD3C654B4D2AA7.png"  transform="matrix(0.9863 0 0 0.9863 579.2635 229.8014)">
		</image>
		<g>
			<g>
				<g id="tree_70_">
					<path id="XMLID_296_" class="st2" d="M641.6,288.2h7l-26.5-53.6l-26.5,53.6h7l-7,14.2h7l-7,14.2h23.2v12.3
						c0,1.8,1.5,3.2,3.3,3.2l0,0c1.8,0,3.3-1.4,3.3-3.2v-12.3h23.2l-7-14.2h7L641.6,288.2z"/>
					<path id="XMLID_295_" class="st2" d="M625.4,316.5h23.2l-7-14.2h7l-7-14.2h7l-26.5-53.6V332l0,0c1.8,0,3.3-1.4,3.3-3.2
						C625.4,328.8,625.4,316.5,625.4,316.5z"/>
				</g>
			</g>
		</g>
	</g>
	<g id="tree__x2B__shadow_4_">
		
			<image style="overflow:visible;opacity:0.61;enable-background:new    ;" width="60" height="96" xlink:href="E4FD3C654B4D2AB7.png"  transform="matrix(1 0 0 1 169 250)">
		</image>
		<g>
			<g>
				<g id="tree_26_">
					<path id="XMLID_116_" class="st2" d="M218.2,297.8h5.5l-20.7-41.9l-20.7,41.9h5.5l-5.5,11.1h5.5l-5.5,11.1h18.1v9.6
						c0,1.4,1.2,2.5,2.6,2.5l0,0c1.4,0,2.6-1.1,2.6-2.5v-9.6h18.1l-5.5-11.1h5.5L218.2,297.8z"/>
					<path id="XMLID_110_" class="st2" d="M205.5,319.9h18.1l-5.5-11.1h5.5l-5.5-11.1h5.5l-20.7-41.9V332l0,0c1.4,0,2.6-1.1,2.6-2.5
						V319.9z"/>
				</g>
			</g>
		</g>
	</g>
</g>
<g id="right_side_trees">
	<g id="tree__x2B__shadow_30_">
		
			<image style="overflow:visible;opacity:0.62;enable-background:new    ;" width="89" height="148" xlink:href="E4FD3C654B4D2AA9.png"  transform="matrix(1 0 0 1 1362 197)">
		</image>
		<g>
			<g>
				<g id="tree_48_">
					<path id="XMLID_234_" class="st2" d="M1366.1,292.4h9.3l-9.3,18.7h30.6v16.2c0,2.3,2,4.2,4.4,4.2l0,0c2.4,0,4.4-1.9,4.4-4.2
						v-16.2h30.6l-9.3-18.7h9.3l-9.3-18.7h9.3l-35-70.7l-35,70.7h9.3L1366.1,292.4z"/>
					<path id="XMLID_233_" class="st2" d="M1396.7,327.2c0,2.3,2,4.2,4.4,4.2l0,0V202.9l-35,70.7h9.3l-9.3,18.7h9.3l-9.3,18.7h30.6
						C1396.7,311,1396.7,327.2,1396.7,327.2z"/>
				</g>
			</g>
		</g>
	</g>
	<g id="tree__x2B__shadow_29_">
		
			<image style="overflow:visible;opacity:0.69;enable-background:new    ;" width="89" height="148" xlink:href="E4FD3C654B4D2AAB.png"  transform="matrix(1 0 0 1 1299 197)">
		</image>
		<g>
			<g>
				<g id="tree_47_">
					<path id="XMLID_231_" class="st2" d="M1315.1,292.4h9.3l-9.3,18.7h30.6v16.2c0,2.3,2,4.2,4.4,4.2l0,0c2.4,0,4.4-1.9,4.4-4.2
						v-16.2h30.6l-9.3-18.7h9.3l-9.3-18.7h9.3l-35-70.7l-35,70.7h9.3L1315.1,292.4z"/>
					<path id="XMLID_230_" class="st2" d="M1345.7,327.2c0,2.3,2,4.2,4.4,4.2l0,0V202.9l-35,70.7h9.3l-9.3,18.7h9.3l-9.3,18.7h30.6
						C1345.7,311,1345.7,327.2,1345.7,327.2z"/>
				</g>
			</g>
		</g>
	</g>
	<g id="tree__x2B__shadow_28_">
		
			<image style="overflow:visible;opacity:0.69;enable-background:new    ;" width="77" height="125" xlink:href="E4FD3C654B4D2AA8.png"  transform="matrix(1 0 0 1 1213 215)">
		</image>
		<g>
			<g>
				<g id="tree_46_">
					<path id="XMLID_228_" class="st2" d="M1229.9,293.9h7.6l-7.6,15.4h25.2v13.3c0,1.9,1.6,3.5,3.6,3.5l0,0c2,0,3.6-1.6,3.6-3.5
						v-13.3h25.2l-7.6-15.4h7.6l-7.6-15.4h7.6l-28.8-58.1l-28.8,58.1h7.6L1229.9,293.9z"/>
					<path id="XMLID_226_" class="st2" d="M1255.1,322.5c0,1.9,1.6,3.5,3.6,3.5l0,0V220.3l-28.8,58.1h7.6l-7.6,15.4h7.6l-7.6,15.4
						h25.2C1255.1,309.2,1255.1,322.5,1255.1,322.5z"/>
				</g>
			</g>
		</g>
	</g>
	<g id="tree__x2B__shadow_59_">
		
			<image style="overflow:visible;opacity:0.69;enable-background:new    ;" width="78" height="125" xlink:href="E4FD3C654B4D2AAF.png"  transform="matrix(0.9872 0 0 0.9872 765.3326 215.8013)">
		</image>
		<g>
			<g>
				<g id="tree_59_">
					<path id="XMLID_262_" class="st2" d="M782.3,293.9h7.6l-7.6,15.4h25.2v13.3c0,1.9,1.6,3.5,3.6,3.5l0,0c2,0,3.6-1.6,3.6-3.5
						v-13.3h25.2l-7.6-15.4h7.6l-7.6-15.4h7.6L811,220.3l-28.8,58.1h7.6L782.3,293.9z"/>
					<path id="XMLID_260_" class="st2" d="M807.4,322.5c0,1.9,1.6,3.5,3.6,3.5l0,0V220.3l-28.8,58.1h7.6l-7.6,15.4h7.6l-7.6,15.4
						h25.2C807.4,309.2,807.4,322.5,807.4,322.5z"/>
				</g>
			</g>
		</g>
	</g>
	<g id="tree__x2B__shadow_27_">
		
			<image style="overflow:visible;opacity:0.69;enable-background:new    ;" width="69" height="111" xlink:href="E4FD3C654B4D2ACC.png"  transform="matrix(1 0 0 1 1151 229)">
		</image>
		<g>
			<g>
				<g id="tree_45_">
					<path id="XMLID_223_" class="st2" d="M1167.7,298.2h6.6l-6.6,13.3h21.8V323c0,1.6,1.4,3,3.1,3l0,0c1.7,0,3.1-1.4,3.1-3v-11.5
						h21.8l-6.6-13.3h6.6l-6.6-13.3h6.6l-24.9-50.3l-24.9,50.3h6.6L1167.7,298.2z"/>
					<path id="XMLID_221_" class="st2" d="M1189.5,323c0,1.6,1.4,3,3.1,3l0,0v-91.4l-24.9,50.3h6.6l-6.6,13.3h6.6l-6.6,13.3h21.8
						C1189.5,311.5,1189.5,323,1189.5,323z"/>
				</g>
			</g>
		</g>
	</g>
	<g id="tree__x2B__shadow_26_">
		
			<image style="overflow:visible;opacity:0.69;enable-background:new    ;" width="65" height="104" xlink:href="E4FD3C654B4D2ACF.png"  transform="matrix(1 0 0 1 1064 236)">
		</image>
		<g>
			<g>
				<g id="tree_44_">
					<path id="XMLID_214_" class="st2" d="M1080.4,300.3h6.1l-6.1,12.3h20.1v10.6c0,1.5,1.3,2.8,2.9,2.8l0,0c1.6,0,2.9-1.2,2.9-2.8
						v-10.6h20.1l-6.1-12.3h6.1l-6.1-12.3h6.1l-23-46.5l-23,46.5h6.1L1080.4,300.3z"/>
					<path id="XMLID_213_" class="st2" d="M1100.6,323.2c0,1.5,1.3,2.8,2.9,2.8l0,0v-84.6l-23,46.5h6.1l-6.1,12.3h6.1l-6.1,12.3
						h20.1L1100.6,323.2L1100.6,323.2z"/>
				</g>
			</g>
		</g>
	</g>
	<g id="tree__x2B__shadow_25_">
		
			<image style="overflow:visible;opacity:0.69;enable-background:new    ;" width="69" height="112" xlink:href="E4FD3C654B4D2ACD.png"  transform="matrix(1 0 0 1 977 228)">
		</image>
		<g>
			<g>
				<g id="tree_43_">
					<path id="XMLID_208_" class="st2" d="M993,297.8h6.7l-6.7,13.5h22.1V323c0,1.7,1.4,3,3.2,3l0,0c1.8,0,3.2-1.4,3.2-3v-11.7h22.1
						l-6.7-13.5h6.7l-6.7-13.5h6.7l-25.2-51l-25.2,51h6.7L993,297.8z"/>
					<path id="XMLID_207_" class="st2" d="M1015.1,322.9c0,1.7,1.4,3,3.2,3l0,0v-92.7l-25.2,51h6.7l-6.7,13.5h6.7l-6.7,13.5h22.1
						V322.9z"/>
				</g>
			</g>
		</g>
	</g>
	<g id="tree__x2B__shadow_24_">
		
			<image style="overflow:visible;opacity:0.69;enable-background:new    ;" width="89" height="147" xlink:href="E4FD3C654B4D2AC3.png"  transform="matrix(1 0 0 1 1094 197)">
		</image>
		<g>
			<g>
				<g id="tree_42_">
					<path id="XMLID_204_" class="st2" d="M1110.8,291.1h9.2l-9.2,18.6h30.5v16.1c0,2.3,1.9,4.2,4.4,4.2l0,0c2.4,0,4.4-1.9,4.4-4.2
						v-16.1h30.5l-9.2-18.6h9.2l-9.2-18.6h9.2l-34.8-70.4l-34.8,70.4h9.2L1110.8,291.1z"/>
					<path id="XMLID_202_" class="st2" d="M1141.3,325.8c0,2.3,1.9,4.2,4.4,4.2l0,0V202.1l-34.8,70.4h9.2l-9.2,18.6h9.2l-9.2,18.6
						h30.5V325.8z"/>
				</g>
			</g>
		</g>
	</g>
	<g id="tree__x2B__shadow_23_">
		
			<image style="overflow:visible;opacity:0.69;enable-background:new    ;" width="82" height="136" xlink:href="E4FD3C654B4D2AC4.png"  transform="matrix(1 0 0 1 1014 208)">
		</image>
		<g>
			<g>
				<g id="tree_41_">
					<path id="XMLID_201_" class="st2" d="M1030.1,294.6h8.4l-8.4,17h27.7v14.7c0,2.1,1.8,3.8,4,3.8l0,0c2.2,0,4-1.7,4-3.8v-14.7
						h27.7l-8.4-17h8.4l-8.4-17h8.4l-31.7-64.1l-31.7,64.1h8.4L1030.1,294.6z"/>
					<path id="XMLID_200_" class="st2" d="M1057.8,326.1c0,2.1,1.8,3.8,4,3.8l0,0V213.6l-31.7,64.1h8.4l-8.4,17h8.4l-8.4,17h27.7
						C1057.8,311.5,1057.8,326.1,1057.8,326.1z"/>
				</g>
			</g>
		</g>
	</g>
	<g id="tree__x2B__shadow_55_">
		
			<image style="overflow:visible;opacity:0.69;enable-background:new    ;" width="66" height="104" xlink:href="E4FD3C654B4D2AC7.png"  transform="matrix(0.9848 0 0 0.9848 891.601 236.7879)">
		</image>
		<g>
			<g>
				<g id="tree_55_">
					<path id="XMLID_249_" class="st2" d="M908,300.3h6.1l-6.1,12.3h20.1v10.6c0,1.5,1.3,2.8,2.9,2.8l0,0c1.6,0,2.9-1.2,2.9-2.8
						v-10.6h20.1l-6.1-12.3h6.1L948,288h6.1l-23-46.5L908,288h6.1L908,300.3z"/>
					<path id="XMLID_247_" class="st2" d="M928.2,323.2c0,1.5,1.3,2.8,2.9,2.8l0,0v-84.6L908,288h6.1l-6.1,12.3h6.1l-6.1,12.3h20.1
						L928.2,323.2L928.2,323.2z"/>
				</g>
			</g>
		</g>
	</g>
	<g id="tree__x2B__shadow_53_">
		
			<image style="overflow:visible;opacity:0.69;enable-background:new    ;" width="70" height="112" xlink:href="E4FD3C654B4D2AC5.png"  transform="matrix(0.9857 0 0 0.9857 804.601 228.8)">
		</image>
		<g>
			<g>
				<g id="tree_53_">
					<path id="XMLID_242_" class="st2" d="M820.6,297.8h6.7l-6.7,13.5h22.1V323c0,1.7,1.4,3,3.2,3l0,0c1.8,0,3.2-1.4,3.2-3v-11.7
						h22.1l-6.7-13.5h6.7l-6.7-13.5h6.7l-25.2-51l-25.2,51h6.7L820.6,297.8z"/>
					<path id="XMLID_240_" class="st2" d="M842.7,322.9c0,1.7,1.4,3,3.2,3l0,0v-92.7l-25.2,51h6.7l-6.7,13.5h6.7l-6.7,13.5h22.1
						V322.9z"/>
				</g>
			</g>
		</g>
	</g>
	<g id="tree__x2B__shadow_61_">
		
			<image style="overflow:visible;opacity:0.69;enable-background:new    ;" width="70" height="112" xlink:href="E4FD3C654B4D2AC2.png"  transform="matrix(0.9857 0 0 0.9857 741.0284 228.8)">
		</image>
		<g>
			<g>
				<g id="tree_61_">
					<path id="XMLID_269_" class="st2" d="M757,297.8h6.7l-6.7,13.5h22.1V323c0,1.7,1.4,3,3.2,3l0,0c1.8,0,3.2-1.4,3.2-3v-11.7h22.1
						l-6.7-13.5h6.7l-6.7-13.5h6.7l-25.2-51l-25.2,51h6.7L757,297.8z"/>
					<path id="XMLID_267_" class="st2" d="M779.1,322.9c0,1.7,1.4,3,3.2,3l0,0v-92.7l-25.2,51h6.7l-6.7,13.5h6.7l-6.7,13.5h22.1
						V322.9z"/>
				</g>
			</g>
		</g>
	</g>
	<g id="tree__x2B__shadow_51_">
		
			<image style="overflow:visible;opacity:0.69;enable-background:new    ;" width="89" height="147" xlink:href="E4FD3C654B4D2AFC.png"  transform="matrix(1 0 0 1 922 197)">
		</image>
		<g>
			<g>
				<g id="tree_69_">
					<path id="XMLID_333_" class="st2" d="M938.4,291.1h9.2l-9.2,18.6h30.5v16.1c0,2.3,2,4.2,4.4,4.2l0,0c2.4,0,4.4-1.9,4.4-4.2
						v-16.1h30.5l-9.2-18.6h9.2l-9.2-18.6h9.2l-34.8-70.4l-34.8,70.4h9.2L938.4,291.1z"/>
					<path id="XMLID_332_" class="st2" d="M968.9,325.8c0,2.3,2,4.2,4.4,4.2l0,0V202.1l-34.8,70.4h9.2l-9.2,18.6h9.2l-9.2,18.6h30.5
						V325.8z"/>
				</g>
			</g>
		</g>
	</g>
	<g id="tree__x2B__shadow_49_">
		
			<image style="overflow:visible;opacity:0.69;enable-background:new    ;" width="83" height="136" xlink:href="E4FD3C654B4D2AFF.png"  transform="matrix(0.988 0 0 0.988 841.601 208.8193)">
		</image>
		<g>
			<g>
				<g id="tree_49_">
					<path id="XMLID_97_" class="st2" d="M857.7,294.6h8.4l-8.4,17h27.7v14.7c0,2.1,1.8,3.8,4,3.8l0,0c2.2,0,4-1.7,4-3.8v-14.7h27.7
						l-8.4-17h8.4l-8.4-17h8.4l-31.7-64.1l-31.7,64.1h8.4L857.7,294.6z"/>
					<path id="XMLID_94_" class="st2" d="M885.4,326.1c0,2.1,1.8,3.8,4,3.8l0,0V213.6l-31.7,64.1h8.4l-8.4,17h8.4l-8.4,17h27.7
						C885.4,311.5,885.4,326.1,885.4,326.1z"/>
				</g>
			</g>
		</g>
	</g>
	<g id="tree__x2B__shadow_22_">
		
			<image style="overflow:visible;opacity:0.69;enable-background:new    ;" width="72" height="117" xlink:href="E4FD3C654B4D2AE3.png"  transform="matrix(1 0 0 1 1258 223)">
		</image>
		<g>
			<g>
				<g id="tree_40_">
					<path id="XMLID_198_" class="st2" d="M1274.4,296.4h7l-7,14.2h23.2v12.3c0,1.8,1.5,3.2,3.3,3.2l0,0c1.8,0,3.3-1.4,3.3-3.2
						v-12.3h23.2l-7-14.2h7l-7-14.2h7l-26.5-53.6l-26.5,53.6h7L1274.4,296.4z"/>
					<path id="XMLID_184_" class="st2" d="M1297.6,322.8c0,1.8,1.5,3.2,3.3,3.2l0,0v-97.4l-26.5,53.6h7l-7,14.2h7l-7,14.2h23.2
						C1297.6,310.5,1297.6,322.8,1297.6,322.8z"/>
				</g>
			</g>
		</g>
	</g>
	<g id="tree__x2B__shadow_20_">
		
			<image style="overflow:visible;opacity:0.61;enable-background:new    ;" width="60" height="96" xlink:href="E4FD3C654B4D2AE1.png"  transform="matrix(1 0 0 1 1192 244)">
		</image>
		<g>
			<g>
				<g id="tree_39_">
					<path id="XMLID_183_" class="st2" d="M1205.4,302.8h5.5l-5.5,11.1h18.1v9.6c0,1.4,1.2,2.5,2.6,2.5l0,0c1.4,0,2.6-1.1,2.6-2.5
						v-9.6h18.1l-5.5-11.1h5.5l-5.5-11.1h5.5l-20.7-41.9l-20.7,41.9h5.5L1205.4,302.8z"/>
					<path id="XMLID_181_" class="st2" d="M1223.6,323.5c0,1.4,1.2,2.5,2.6,2.5l0,0v-76.1l-20.7,41.9h5.5l-5.5,11.1h5.5l-5.5,11.1
						h18.1V323.5z"/>
				</g>
			</g>
		</g>
	</g>
</g>
<g id="Layer_7">
	<path class="st3" d="M912.5,160.6h80.7v23.1h-29.5v126.7h-23.1V183.7h-28.1V160.6z"/>
	<path class="st3" d="M1145,160.6h18.6l28.1,149.8h-18.6l-9.4-34.5h-37.3l-9.2,34.5h-18.6l28.1-149.8H1145z M1131.3,252.9h28.3
		l-13.9-69.1L1131.3,252.9z"/>
	<path class="st3" d="M201.6,310.4V160.6h23.1v62.8h23.1v-62.8h22.9v149.8h-22.9v-63.9h-23.1v63.9L201.6,310.4L201.6,310.4z"/>
	<path class="st3" d="M416.6,161.1h77.2v22.1h-28.2v121.3h-22.1V183.2h-26.9L416.6,161.1L416.6,161.1z"/>
</g>
<g id="logo">
	<g id="logo_1_">
		<circle id="XMLID_23_" class="st4" cx="705.7" cy="116.3" r="111.6"/>
		<g id="XMLID_222_">
			<path id="XMLID_225_" class="st2" d="M670.4,94.6h3.3l-12.3-25.8l-12.4,25.8h3.3l-3.3,6.8h3.3l-3.3,6.8h10.8v5.9
				c0,0.8,0.7,1.6,1.5,1.6l0,0c0.8,0,1.5-0.7,1.5-1.6v-5.9h10.8l-3.3-6.8h3.3L670.4,94.6z"/>
			<path id="XMLID_224_" class="st2" d="M662.8,108.3h10.8l-3.3-6.8h3.3l-3.3-6.8h3.3l-12.3-25.8v46.9l0,0c0.8,0,1.5-0.7,1.5-1.6
				C662.8,114.2,662.8,108.3,662.8,108.3z"/>
		</g>
		<path id="XMLID_43_" class="st5" d="M783.9,141.7c0,0-15-1.7-20.7,11.1c0,0-2.2,9-8,11.6c0,0,18.3-5.1,24.3-9.3
			c0,0,6.7-7.6,9.3-9.5"/>
		<g id="XMLID_217_">
			<path id="XMLID_220_" class="st2" d="M796.3,88.4h4.8l-18.2-38.1l-18.2,38.1h4.8l-4.8,10.1h4.8l-4.8,10.1h16v8.7
				c0,1.2,1,2.3,2.3,2.3l0,0c1.2,0,2.3-1,2.3-2.3v-8.7h16l-4.8-10.1h4.8L796.3,88.4z"/>
			<path id="XMLID_219_" class="st2" d="M785.1,108.6h16l-4.8-10.1h4.8l-4.8-10.1h4.8l-18.2-38.1v69.3l0,0c1.2,0,2.3-1,2.3-2.3
				L785.1,108.6L785.1,108.6z"/>
		</g>
		<g id="XMLID_212_">
			<path id="XMLID_216_" class="st2" d="M756.8,91.3h2.8L749,69l-10.6,22.3h2.8l-2.8,5.9h2.8l-2.8,5.9h9.3v5.1
				c0,0.7,0.6,1.3,1.3,1.3l0,0c0.7,0,1.3-0.6,1.3-1.3v-5.1h9.3l-2.8-5.9h2.8L756.8,91.3z"/>
			<path id="XMLID_215_" class="st2" d="M750.3,103.1h9.3l-2.8-5.9h2.8l-2.8-5.9h2.8L749,69v40.5l0,0c0.7,0,1.3-0.6,1.3-1.3
				L750.3,103.1L750.3,103.1z"/>
		</g>
		<g id="XMLID_209_">
			<path id="XMLID_211_" class="st2" d="M636.7,89.7h4.1l-15.6-31.5l-15.6,31.5h4.1l-4.1,8.3h4.1l-4.1,8.3h13.7v7.2
				c0,1,0.9,1.9,2,1.9l0,0c1.1,0,2-0.8,2-1.9v-7.2h13.7l-4.1-8.3h4.1L636.7,89.7z"/>
			<path id="XMLID_210_" class="st2" d="M627.2,106.4h13.7l-4.1-8.3h4.1l-4.1-8.3h4.1l-15.6-31.5v57.3l0,0c1.1,0,2-0.8,2-1.9
				L627.2,106.4L627.2,106.4z"/>
		</g>
		<path id="XMLID_206_" class="st1" d="M655.5,119"/>
		<circle id="XMLID_205_" class="st6" cx="705.7" cy="116.3" r="111.6"/>
		<g id="XMLID_134_">
			<path id="XMLID_135_" class="st1" d="M593.2,176l-1.3-2.8l-17.1,8.3l-1.3-2.7l17.1-8.3l-1.3-2.7l2.8-1.4l4,8.1L593.2,176z"/>
			<path id="XMLID_149_" class="st1" d="M601.3,183.6l-19,11.3l-1.5-2.6l9-5.3l-1.6-2.7l-9,5.3l-1.5-2.6l19-11.3l1.5,2.6l-7.4,4.4
				l1.6,2.7l7.4-4.4L601.3,183.6z"/>
			<path id="XMLID_153_" class="st1" d="M591.8,199.8l-1.7-2.3l-4.5,2.6l-1.6-2.3l20-10.1l1.7,2.4l-16,15.7l-1.7-2.4L591.8,199.8z
				 M594.2,197.5l5.9-5.4l0-0.1l-7,3.9L594.2,197.5z"/>
			<path id="XMLID_156_" class="st1" d="M616.3,202.6l-16.7,14.6l-2-2.2l10.2-9l-11.5,7.5l-1.3-1.5l9-10.4l0,0l-10.2,9l-2-2.2
				l16.7-14.6l2.6,3l-8.7,10.2l0,0l11.2-7.3L616.3,202.6z"/>
			<path id="XMLID_180_" class="st1" d="M617.6,208.2l-3.8,3.9l2.2,2.1l-2.2,2.3l-2.2-2.1l-5,5.2l3.3,3.1l-2.2,2.3l-5.4-5.2l15.3-16
				l5.2,4.9l-2.2,2.3L617.6,208.2z"/>
			<path id="XMLID_182_" class="st1" d="M624.4,218.2l0.6-0.7c1-1.2,1-2.2,0.5-2.7c-0.6-0.5-1.5-0.3-2.1,0.5c-0.6,0.7-1,1.4-1.1,2.6
				l-0.6,5.4c-0.2,2.1-0.4,3.5-2.1,5.6c-2,2.5-4.7,2.6-6.5,1.1c-1.8-1.5-2.2-4.1-0.2-6.6l1.5-1.8l2.3,1.9l-1.3,1.6
				c-0.9,1.1-0.8,1.9-0.2,2.4c0.6,0.5,1.5,0.3,2.3-0.7c0.7-0.9,1-1.8,1.2-2.9l0.2-4.2c0.3-2.9,0.3-3.9,2.2-6.2
				c1.9-2.3,4.5-2.7,6.5-1.1c2,1.6,2.1,4.3,0.2,6.6l-1,1.2L624.4,218.2z"/>
			<path id="XMLID_199_" class="st1" d="M629.3,241.2l2.4-9.1c-0.3-0.2-0.7-0.4-0.8-0.5l-4.8,7.5l-2.5-1.6l11.9-18.7l4.2,2.6
				c2.4,1.5,2.1,4.6,0.2,7.6c-1.8,2.8-3.8,4-5.5,4l-2.4,9.7L629.3,241.2z M632.7,228.8l0.8,0.5c1.6,1,2.2,1,4-1.7
				c1-1.5,1.4-2.8,0.5-3.5l-1.6-1L632.7,228.8z"/>
			<path id="XMLID_203_" class="st1" d="M636.9,245.5l-2.6-1.4l10.6-19.4l2.6,1.4L636.9,245.5z"/>
			<path id="XMLID_218_" class="st1" d="M645.7,249.8l-2.9-1.3l6-21.6l2.9,1.3l-5,15.8l0,0l8.8-14l2.9,1.3L645.7,249.8z"/>
			<path id="XMLID_227_" class="st1" d="M661.5,235.7l-1.9,5.1l2.8,1l-1.1,3l-2.8-1l-2.5,6.8l4.3,1.6l-1.1,3l-7-2.6l7.6-20.8
				l6.7,2.4l-1.1,3L661.5,235.7z"/>
			<path id="XMLID_229_" class="st1" d="M668.7,257.9l-0.3-9.4c-0.4-0.1-0.8-0.2-0.9-0.2l-2.4,8.6l-2.8-0.8l5.9-21.4l4.8,1.3
				c2.7,0.8,3.3,3.8,2.4,7.2c-0.9,3.2-2.5,4.9-4.1,5.5l0.5,10L668.7,257.9z M668.3,245.1l0.9,0.2c1.8,0.5,2.4,0.4,3.3-2.8
				c0.5-1.7,0.5-3.1-0.6-3.4l-1.8-0.5L668.3,245.1z"/>
			<path id="XMLID_232_" class="st1" d="M686.1,256.1l-2.8-0.4l-1.3,5l-2.8-0.4l6.6-21.4l2.9,0.4l0.1,22.4l-2.9-0.4L686.1,256.1z
				 M686.1,252.9l0.3-8l-0.1,0l-2.1,7.7L686.1,252.9z"/>
			<path id="XMLID_235_" class="st1" d="M702.3,240.5l-1.5,22.1l-3-0.2l-2-12.9h0l-0.9,12.7l-3-0.2l1.5-22.1l3.1,0.2l1.9,12.4h0
				l0.8-12.2L702.3,240.5z"/>
			<path id="XMLID_237_" class="st1" d="M710.1,246.8l0-1.7c0-0.7-0.5-1.8-1.4-1.8c-1,0-1.5,1.2-1.5,1.8l0.3,12.8
				c0,0.7,0.5,1.8,1.5,1.8c1.1,0,1.7-1.1,1.6-2.9l-0.1-3.4l-1.7,0l-0.1-3.2l4.3-0.1l0.2,6.8c0.1,3-1.2,5.8-4.2,5.8
				c-3.3,0.1-4.5-2.6-4.6-4.8l-0.3-12.8c0-2.2,1.1-5,4.4-5.1c3-0.1,4.4,2.6,4.5,4.9l0,1.7L710.1,246.8z"/>
			<path id="XMLID_239_" class="st1" d="M723.5,258.4l0.3,3.1l-6.8,0.7l-2.2-22.1l3-0.3l1.8,18.9L723.5,258.4z"/>
			<path id="XMLID_241_" class="st1" d="M726.5,241.9l0.9,5.4l3-0.5l0.5,3.1l-3,0.5l1.2,7.1l4.5-0.8l0.5,3.1l-7.4,1.2l-3.7-21.8
				l7.1-1.2l0.5,3.1L726.5,241.9z"/>
			<path id="XMLID_243_" class="st1" d="M743.8,257.6l-4.9-8c-0.4,0.1-0.8,0.2-0.9,0.2l2.2,8.6l-2.9,0.7l-5.4-21.5l4.8-1.2
				c2.8-0.7,4.8,1.7,5.6,5.1c0.8,3.2,0.3,5.5-0.9,6.8l5.3,8.4L743.8,257.6z M737.1,246.6l0.9-0.2c1.9-0.5,2.3-0.9,1.5-4
				c-0.4-1.7-1.1-3-2.2-2.7l-1.9,0.5L737.1,246.6z"/>
			<path id="XMLID_246_" class="st1" d="M749.4,239.1l-0.3-0.9c-0.5-1.5-1.4-2.1-2-1.8c-0.7,0.2-1,1.1-0.7,2.1
				c0.3,0.9,0.7,1.6,1.7,2.3l4.3,3.3c1.7,1.3,2.8,2.2,3.7,4.7c1,3-0.3,5.4-2.5,6.1c-2.3,0.8-4.7-0.3-5.7-3.3l-0.8-2.2l2.8-1l0.7,1.9
				c0.4,1.3,1.2,1.7,1.9,1.5c0.7-0.2,1-1.1,0.6-2.4c-0.4-1.1-1-1.8-1.9-2.5l-3.4-2.4c-2.3-1.8-3.1-2.3-4.1-5.1
				c-1-2.8,0.1-5.2,2.5-6.1c2.4-0.8,4.7,0.5,5.7,3.3l0.5,1.5L749.4,239.1z"/>
			<path id="XMLID_248_" class="st1" d="M768.3,242.8l-2.6,1.2l1.7,4.9l-2.5,1.2l-6.6-21.4l2.7-1.3l12.7,18.4l-2.7,1.3L768.3,242.8z
				 M766.5,240.1l-4.3-6.8l-0.1,0l2.6,7.6L766.5,240.1z"/>
			<path id="XMLID_251_" class="st1" d="M772.9,228l-0.5-0.8c-0.8-1.3-1.8-1.8-2.4-1.4c-0.7,0.4-0.8,1.3-0.3,2.2
				c0.5,0.8,1,1.4,2.1,1.9l4.9,2.4c1.9,0.9,3.2,1.6,4.5,3.9c1.6,2.8,0.8,5.3-1.2,6.5c-2.1,1.2-4.6,0.6-6.2-2.1l-1.2-2l2.6-1.5l1,1.8
				c0.7,1.2,1.5,1.5,2.2,1.1c0.6-0.4,0.8-1.3,0.1-2.4c-0.6-1-1.4-1.6-2.4-2.1l-3.8-1.7c-2.6-1.3-3.5-1.6-5.1-4.2
				c-1.5-2.6-1-5.2,1.2-6.5c2.2-1.3,4.7-0.5,6.2,2.1l0.8,1.3L772.9,228z"/>
			<path id="XMLID_253_" class="st1" d="M781.6,222.2l-0.5-0.7c-0.9-1.3-1.9-1.6-2.5-1.2c-0.6,0.4-0.7,1.4-0.1,2.2
				c0.5,0.8,1.1,1.3,2.2,1.8l5,2c2,0.8,3.3,1.4,4.8,3.5c1.8,2.6,1.2,5.2-0.7,6.6c-2,1.4-4.6,1-6.4-1.6l-1.3-1.9l2.5-1.7l1.2,1.7
				c0.8,1.1,1.6,1.3,2.2,0.9c0.6-0.4,0.7-1.4-0.1-2.4c-0.7-1-1.5-1.5-2.5-1.9l-4-1.4c-2.7-1.1-3.7-1.3-5.4-3.8
				c-1.7-2.5-1.4-5.1,0.7-6.5c2.1-1.4,4.7-0.9,6.4,1.6l0.9,1.3L781.6,222.2z"/>
			<path id="XMLID_255_" class="st1" d="M791.4,212.5l8.2,9.8c1.5,1.8,2.2,4.7-0.1,6.6c-2.5,2.1-5.2,0.7-6.6-1l-8.2-9.8
				c-1.5-1.8-2.3-4.5,0.2-6.6C787.2,209.5,789.9,210.7,791.4,212.5z M789.1,214.4c-0.4-0.5-1.6-1.1-2.2-0.6c-0.8,0.7-0.4,1.9,0,2.3
				l8.2,9.8c0.5,0.6,1.5,1.2,2.3,0.5c0.7-0.6,0.2-1.8-0.2-2.3L789.1,214.4z"/>
			<path id="XMLID_259_" class="st1" d="M798.3,208.3l-1.2-1.2c-0.5-0.5-1.6-0.9-2.2-0.3c-0.7,0.7-0.3,1.9,0.2,2.3l9,9.1
				c0.5,0.5,1.6,1,2.3,0.2c0.6-0.6,0.2-1.8-0.3-2.2l-1.2-1.2l2.1-2.1l1.2,1.2c1.6,1.6,2.5,4.5,0.4,6.6c-2.3,2.3-5.1,1.2-6.7-0.4
				l-9-9.1c-1.6-1.6-2.6-4.4-0.3-6.7c2.1-2.1,5-1.1,6.6,0.5l1.2,1.2L798.3,208.3z"/>
			<path id="XMLID_261_" class="st1" d="M815.6,212.8l-2,2.2l-16.5-14.8l2-2.2L815.6,212.8z"/>
			<path id="XMLID_263_" class="st1" d="M817.4,202.5l-1.8,2.3l3.7,3.6l-1.7,2.2l-15.3-16.4l1.8-2.3l19.5,11l-1.8,2.3L817.4,202.5z
				 M814.6,200.9l-6.8-4.2l0,0.1l5.7,5.6L814.6,200.9z"/>
			<path id="XMLID_266_" class="st1" d="M813.2,184.5l-1.7,2.5l15.7,10.8l-1.7,2.4l-15.7-10.8l-1.7,2.5l-2.6-1.8l5.1-7.5
				L813.2,184.5z"/>
			<path id="XMLID_268_" class="st1" d="M831.9,190.2l-1.5,2.6l-19-11.4l1.5-2.5L831.9,190.2z"/>
			<path id="XMLID_270_" class="st1" d="M822.1,171.6l11.4,5.9c2,1.1,3.8,3.5,2.5,6.1c-1.5,2.9-4.5,2.7-6.5,1.6l-11.4-5.9
				c-2-1.1-3.8-3.3-2.3-6.2C817.1,170.5,820,170.5,822.1,171.6z M820.8,174.2c-0.6-0.3-1.9-0.4-2.3,0.3c-0.5,0.9,0.4,1.9,0.9,2.1
				l11.3,5.9c0.6,0.3,1.9,0.5,2.4-0.4c0.4-0.8-0.5-1.8-1.1-2.1L820.8,174.2z"/>
			<path id="XMLID_273_" class="st1" d="M822.1,159.6l20.5,8.4l-1.1,2.7l-12.8-2.1l0,0l11.7,4.8l-1.1,2.7l-20.5-8.4l1.2-2.9
				l12.4,2.1l0,0l-11.4-4.7L822.1,159.6z"/>
		</g>
		<g id="XMLID_254_">
			<path id="XMLID_305_" class="st1" d="M593.2,176l-1.3-2.8l-17.1,8.3l-1.3-2.7l17.1-8.3l-1.3-2.7l2.8-1.4l4,8.1L593.2,176z"/>
			<path id="XMLID_304_" class="st1" d="M601.3,183.6l-19,11.3l-1.5-2.6l9-5.3l-1.6-2.7l-9,5.3l-1.5-2.6l19-11.3l1.5,2.6l-7.4,4.4
				l1.6,2.7l7.4-4.4L601.3,183.6z"/>
			<path id="XMLID_302_" class="st1" d="M591.8,199.8l-1.7-2.3l-4.5,2.6l-1.6-2.3l20-10.1l1.7,2.4l-16,15.7l-1.7-2.4L591.8,199.8z
				 M594.2,197.5l5.9-5.4l0-0.1l-7,3.9L594.2,197.5z"/>
			<path id="XMLID_301_" class="st1" d="M616.3,202.6l-16.7,14.6l-2-2.2l10.2-9l-11.5,7.5l-1.3-1.5l9-10.4l0,0l-10.2,9l-2-2.2
				l16.7-14.6l2.6,3l-8.7,10.2l0,0l11.2-7.3L616.3,202.6z"/>
			<path id="XMLID_300_" class="st1" d="M617.6,208.2l-3.8,3.9l2.2,2.1l-2.2,2.3l-2.2-2.1l-5,5.2l3.3,3.1l-2.2,2.3l-5.4-5.2l15.3-16
				l5.2,4.9l-2.2,2.3L617.6,208.2z"/>
			<path id="XMLID_299_" class="st1" d="M624.4,218.2l0.6-0.7c1-1.2,1-2.2,0.5-2.7c-0.6-0.5-1.5-0.3-2.1,0.5c-0.6,0.7-1,1.4-1.1,2.6
				l-0.6,5.4c-0.2,2.1-0.4,3.5-2.1,5.6c-2,2.5-4.7,2.6-6.5,1.1c-1.8-1.5-2.2-4.1-0.2-6.6l1.5-1.8l2.3,1.9l-1.3,1.6
				c-0.9,1.1-0.8,1.9-0.2,2.4c0.6,0.5,1.5,0.3,2.3-0.7c0.7-0.9,1-1.8,1.2-2.9l0.2-4.2c0.3-2.9,0.3-3.9,2.2-6.2
				c1.9-2.3,4.5-2.7,6.5-1.1c2,1.6,2.1,4.3,0.2,6.6l-1,1.2L624.4,218.2z"/>
			<path id="XMLID_298_" class="st1" d="M629.3,241.2l2.4-9.1c-0.3-0.2-0.7-0.4-0.8-0.5l-4.8,7.5l-2.5-1.6l11.9-18.7l4.2,2.6
				c2.4,1.5,2.1,4.6,0.2,7.6c-1.8,2.8-3.8,4-5.5,4l-2.4,9.7L629.3,241.2z M632.7,228.8l0.8,0.5c1.6,1,2.2,1,4-1.7
				c1-1.5,1.4-2.8,0.5-3.5l-1.6-1L632.7,228.8z"/>
			<path id="XMLID_297_" class="st1" d="M636.9,245.5l-2.6-1.4l10.6-19.4l2.6,1.4L636.9,245.5z"/>
			<path id="XMLID_293_" class="st1" d="M645.7,249.8l-2.9-1.3l6-21.6l2.9,1.3l-5,15.8l0,0l8.8-14l2.9,1.3L645.7,249.8z"/>
			<path id="XMLID_292_" class="st1" d="M661.5,235.7l-1.9,5.1l2.8,1l-1.1,3l-2.8-1l-2.5,6.8l4.3,1.6l-1.1,3l-7-2.6l7.6-20.8
				l6.7,2.4l-1.1,3L661.5,235.7z"/>
			<path id="XMLID_291_" class="st1" d="M668.7,257.9l-0.3-9.4c-0.4-0.1-0.8-0.2-0.9-0.2l-2.4,8.6l-2.8-0.8l5.9-21.4l4.8,1.3
				c2.7,0.8,3.3,3.8,2.4,7.2c-0.9,3.2-2.5,4.9-4.1,5.5l0.5,10L668.7,257.9z M668.3,245.1l0.9,0.2c1.8,0.5,2.4,0.4,3.3-2.8
				c0.5-1.7,0.5-3.1-0.6-3.4l-1.8-0.5L668.3,245.1z"/>
			<path id="XMLID_290_" class="st1" d="M686.1,256.1l-2.8-0.4l-1.3,5l-2.8-0.4l6.6-21.4l2.9,0.4l0.1,22.4l-2.9-0.4L686.1,256.1z
				 M686.1,252.9l0.3-8l-0.1,0l-2.1,7.7L686.1,252.9z"/>
			<path id="XMLID_289_" class="st1" d="M702.3,240.5l-1.5,22.1l-3-0.2l-2-12.9h0l-0.9,12.7l-3-0.2l1.5-22.1l3.1,0.2l1.9,12.4h0
				l0.8-12.2L702.3,240.5z"/>
			<path id="XMLID_288_" class="st1" d="M710.1,246.8l0-1.7c0-0.7-0.5-1.8-1.4-1.8c-1,0-1.5,1.2-1.5,1.8l0.3,12.8
				c0,0.7,0.5,1.8,1.5,1.8c1.1,0,1.7-1.1,1.6-2.9l-0.1-3.4l-1.7,0l-0.1-3.2l4.3-0.1l0.2,6.8c0.1,3-1.2,5.8-4.2,5.8
				c-3.3,0.1-4.5-2.6-4.6-4.8l-0.3-12.8c0-2.2,1.1-5,4.4-5.1c3-0.1,4.4,2.6,4.5,4.9l0,1.7L710.1,246.8z"/>
			<path id="XMLID_287_" class="st1" d="M723.5,258.4l0.3,3.1l-6.8,0.7l-2.2-22.1l3-0.3l1.8,18.9L723.5,258.4z"/>
			<path id="XMLID_286_" class="st1" d="M726.5,241.9l0.9,5.4l3-0.5l0.5,3.1l-3,0.5l1.2,7.1l4.5-0.8l0.5,3.1l-7.4,1.2l-3.7-21.8
				l7.1-1.2l0.5,3.1L726.5,241.9z"/>
			<path id="XMLID_285_" class="st1" d="M743.8,257.6l-4.9-8c-0.4,0.1-0.8,0.2-0.9,0.2l2.2,8.6l-2.9,0.7l-5.4-21.5l4.8-1.2
				c2.8-0.7,4.8,1.7,5.6,5.1c0.8,3.2,0.3,5.5-0.9,6.8l5.3,8.4L743.8,257.6z M737.1,246.6l0.9-0.2c1.9-0.5,2.3-0.9,1.5-4
				c-0.4-1.7-1.1-3-2.2-2.7l-1.9,0.5L737.1,246.6z"/>
			<path id="XMLID_284_" class="st1" d="M749.4,239.1l-0.3-0.9c-0.5-1.5-1.4-2.1-2-1.8c-0.7,0.2-1,1.1-0.7,2.1
				c0.3,0.9,0.7,1.6,1.7,2.3l4.3,3.3c1.7,1.3,2.8,2.2,3.7,4.7c1,3-0.3,5.4-2.5,6.1c-2.3,0.8-4.7-0.3-5.7-3.3l-0.8-2.2l2.8-1l0.7,1.9
				c0.4,1.3,1.2,1.7,1.9,1.5c0.7-0.2,1-1.1,0.6-2.4c-0.4-1.1-1-1.8-1.9-2.5l-3.4-2.4c-2.3-1.8-3.1-2.3-4.1-5.1
				c-1-2.8,0.1-5.2,2.5-6.1c2.4-0.8,4.7,0.5,5.7,3.3l0.5,1.5L749.4,239.1z"/>
			<path id="XMLID_283_" class="st1" d="M768.3,242.8l-2.6,1.2l1.7,4.9l-2.5,1.2l-6.6-21.4l2.7-1.3l12.7,18.4l-2.7,1.3L768.3,242.8z
				 M766.5,240.1l-4.3-6.8l-0.1,0l2.6,7.6L766.5,240.1z"/>
			<path id="XMLID_282_" class="st1" d="M772.9,228l-0.5-0.8c-0.8-1.3-1.8-1.8-2.4-1.4c-0.7,0.4-0.8,1.3-0.3,2.2
				c0.5,0.8,1,1.4,2.1,1.9l4.9,2.4c1.9,0.9,3.2,1.6,4.5,3.9c1.6,2.8,0.8,5.3-1.2,6.5c-2.1,1.2-4.6,0.6-6.2-2.1l-1.2-2l2.6-1.5l1,1.8
				c0.7,1.2,1.5,1.5,2.2,1.1c0.6-0.4,0.8-1.3,0.1-2.4c-0.6-1-1.4-1.6-2.4-2.1l-3.8-1.7c-2.6-1.3-3.5-1.6-5.1-4.2
				c-1.5-2.6-1-5.2,1.2-6.5c2.2-1.3,4.7-0.5,6.2,2.1l0.8,1.3L772.9,228z"/>
			<path id="XMLID_281_" class="st1" d="M781.6,222.2l-0.5-0.7c-0.9-1.3-1.9-1.6-2.5-1.2c-0.6,0.4-0.7,1.4-0.1,2.2
				c0.5,0.8,1.1,1.3,2.2,1.8l5,2c2,0.8,3.3,1.4,4.8,3.5c1.8,2.6,1.2,5.2-0.7,6.6c-2,1.4-4.6,1-6.4-1.6l-1.3-1.9l2.5-1.7l1.2,1.7
				c0.8,1.1,1.6,1.3,2.2,0.9c0.6-0.4,0.7-1.4-0.1-2.4c-0.7-1-1.5-1.5-2.5-1.9l-4-1.4c-2.7-1.1-3.7-1.3-5.4-3.8
				c-1.7-2.5-1.4-5.1,0.7-6.5c2.1-1.4,4.7-0.9,6.4,1.6l0.9,1.3L781.6,222.2z"/>
			<path id="XMLID_280_" class="st1" d="M791.4,212.5l8.2,9.8c1.5,1.8,2.2,4.7-0.1,6.6c-2.5,2.1-5.2,0.7-6.6-1l-8.2-9.8
				c-1.5-1.8-2.3-4.5,0.2-6.6C787.2,209.5,789.9,210.7,791.4,212.5z M789.1,214.4c-0.4-0.5-1.6-1.1-2.2-0.6c-0.8,0.7-0.4,1.9,0,2.3
				l8.2,9.8c0.5,0.6,1.5,1.2,2.3,0.5c0.7-0.6,0.2-1.8-0.2-2.3L789.1,214.4z"/>
			<path id="XMLID_279_" class="st1" d="M798.3,208.3l-1.2-1.2c-0.5-0.5-1.6-0.9-2.2-0.3c-0.7,0.7-0.3,1.9,0.2,2.3l9,9.1
				c0.5,0.5,1.6,1,2.3,0.2c0.6-0.6,0.2-1.8-0.3-2.2l-1.2-1.2l2.1-2.1l1.2,1.2c1.6,1.6,2.5,4.5,0.4,6.6c-2.3,2.3-5.1,1.2-6.7-0.4
				l-9-9.1c-1.6-1.6-2.6-4.4-0.3-6.7c2.1-2.1,5-1.1,6.6,0.5l1.2,1.2L798.3,208.3z"/>
			<path id="XMLID_278_" class="st1" d="M815.6,212.8l-2,2.2l-16.5-14.8l2-2.2L815.6,212.8z"/>
			<path id="XMLID_277_" class="st1" d="M817.4,202.5l-1.8,2.3l3.7,3.6l-1.7,2.2l-15.3-16.4l1.8-2.3l19.5,11l-1.8,2.3L817.4,202.5z
				 M814.6,200.9l-6.8-4.2l0,0.1l5.7,5.6L814.6,200.9z"/>
			<path id="XMLID_276_" class="st1" d="M813.2,184.5l-1.7,2.5l15.7,10.8l-1.7,2.4l-15.7-10.8l-1.7,2.5l-2.6-1.8l5.1-7.5
				L813.2,184.5z"/>
			<path id="XMLID_275_" class="st1" d="M831.9,190.2l-1.5,2.6l-19-11.4l1.5-2.5L831.9,190.2z"/>
			<path id="XMLID_274_" class="st1" d="M822.1,171.6l11.4,5.9c2,1.1,3.8,3.5,2.5,6.1c-1.5,2.9-4.5,2.7-6.5,1.6l-11.4-5.9
				c-2-1.1-3.8-3.3-2.3-6.2C817.1,170.5,820,170.5,822.1,171.6z M820.8,174.2c-0.6-0.3-1.9-0.4-2.3,0.3c-0.5,0.9,0.4,1.9,0.9,2.1
				l11.3,5.9c0.6,0.3,1.9,0.5,2.4-0.4c0.4-0.8-0.5-1.8-1.1-2.1L820.8,174.2z"/>
			<path id="XMLID_256_" class="st1" d="M822.1,159.6l20.5,8.4l-1.1,2.7l-12.8-2.1l0,0l11.7,4.8l-1.1,2.7l-20.5-8.4l1.2-2.9
				l12.4,2.1l0,0l-11.4-4.7L822.1,159.6z"/>
		</g>
		<g id="XMLID_56_">
			<g id="XMLID_491_">
				<path id="XMLID_515_" class="st1" d="M662.7,196.8h-2.2l-0.4,3h-2.2l2.6-12.9h2.3l2.6,12.9h-2.3L662.7,196.8z M662.3,194.9
					l-0.7-4.6h-0.1l-0.7,4.6H662.3z"/>
				<path id="XMLID_513_" class="st1" d="M674.8,186.9v12.9h-2.3l-2.3-7.4h0v7.4h-2.3v-12.9h2.4l2.1,7.1h0v-7.1H674.8L674.8,186.9z"
					/>
				<path id="XMLID_511_" class="st1" d="M682,190.6v-1c0-0.4-0.4-1.1-1-1.1c-0.8,0-1.2,0.7-1.2,1.1v7.4c0,0.4,0.3,1.1,1.2,1.1
					c0.9,0,1.3-0.6,1.3-1.6v-2H681v-1.8h3.3v4c0,1.8-1,3.3-3.4,3.3c-2.5,0-3.5-1.6-3.5-2.9v-7.4c0-1.3,0.9-2.9,3.5-2.9
					c2.3,0,3.4,1.6,3.4,2.9v1L682,190.6L682,190.6z"/>
				<path id="XMLID_509_" class="st1" d="M692.3,197.9v1.8H687v-12.9h2.3v11L692.3,197.9L692.3,197.9z"/>
				<path id="XMLID_507_" class="st1" d="M697.2,188.7v3.2h2.3v1.8h-2.3v4.2h3.5v1.8h-5.8v-12.9h5.6v1.8L697.2,188.7L697.2,188.7z"
					/>
				<path id="XMLID_504_" class="st1" d="M708.4,199.8l-2.2-5.2c-0.3,0-0.6,0-0.7,0v5.2h-2.3v-12.9h3.8c2.2,0,3.2,1.6,3.2,3.7
					c0,1.9-0.8,3.1-1.9,3.7l2.4,5.5L708.4,199.8L708.4,199.8z M705.4,192.6h0.7c1.5,0,1.9-0.2,1.9-2.1c0-1-0.2-1.8-1.1-1.8h-1.5
					C705.4,188.7,705.4,192.6,705.4,192.6z"/>
				<path id="XMLID_502_" class="st1" d="M717.2,190.5V190c0-0.9-0.5-1.4-1-1.4c-0.6,0-1,0.4-1,1c0,0.6,0.1,1,0.6,1.6l2.3,2.6
					c0.9,1.1,1.5,1.8,1.5,3.3c0,1.9-1.6,2.9-3.4,2.9c-1.8,0-3.3-1.1-3.3-2.9v-1.3h2.3v1.2c0,0.8,0.4,1.2,1,1.2c0.6,0,1-0.4,1-1.2
					c0-0.7-0.3-1.2-0.8-1.8l-1.9-2c-1.2-1.4-1.7-1.8-1.7-3.6c0-1.8,1.4-2.9,3.4-2.9c2,0,3.3,1.1,3.3,2.9v0.9L717.2,190.5
					L717.2,190.5L717.2,190.5z"/>
				<path id="XMLID_500_" class="st1" d="M722.1,197.5h2.3v2.3h-2.3V197.5z"/>
				<path id="XMLID_497_" class="st1" d="M733.8,189.6v7.4c0,1.3-1,2.9-3.3,2.9c-2.5,0-3.4-1.6-3.4-2.9v-7.4c0-1.3,0.9-2.9,3.4-2.9
					C732.8,186.7,733.8,188.3,733.8,189.6z M731.5,189.6c0-0.4-0.4-1.1-1-1.1c-0.8,0-1.1,0.7-1.1,1.1v7.4c0,0.4,0.3,1.1,1.1,1.1
					c0.7,0,1-0.7,1-1.1V189.6z"/>
				<path id="XMLID_494_" class="st1" d="M741.7,199.8l-2.2-5.2c-0.3,0-0.6,0-0.7,0v5.2h-2.3v-12.9h3.8c2.2,0,3.2,1.6,3.2,3.7
					c0,1.9-0.8,3.1-1.9,3.7l2.4,5.5L741.7,199.8L741.7,199.8z M738.8,192.6h0.7c1.5,0,1.9-0.2,1.9-2.1c0-1-0.2-1.8-1.1-1.8h-1.5
					V192.6z"/>
				<path id="XMLID_492_" class="st1" d="M750.8,190.6v-1c0-0.4-0.4-1.1-1-1.1c-0.8,0-1.2,0.7-1.2,1.1v7.4c0,0.4,0.3,1.1,1.2,1.1
					c0.9,0,1.3-0.6,1.3-1.6v-2h-1.3v-1.8h3.3v4c0,1.8-1,3.3-3.4,3.3c-2.5,0-3.5-1.6-3.5-2.9v-7.4c0-1.3,0.9-2.9,3.5-2.9
					c2.3,0,3.4,1.6,3.4,2.9v1L750.8,190.6L750.8,190.6z"/>
			</g>
		</g>
		<g id="XMLID_1_">
			<g id="XMLID_427_">
				<path id="XMLID_446_" class="st1" d="M670.8,47.1v3.5h2.6v2h-2.6v4.7h3.9v2h-6.5V45h6.2v2L670.8,47.1L670.8,47.1L670.8,47.1z"/>
				<path id="XMLID_444_" class="st1" d="M682.2,49v-0.6c0-1-0.5-1.5-1.1-1.5c-0.7,0-1.1,0.5-1.1,1.1c0,0.6,0.1,1.1,0.7,1.8l2.5,2.9
					c1,1.2,1.7,1.9,1.7,3.6c0,2.1-1.7,3.2-3.8,3.2c-2.1,0-3.7-1.2-3.7-3.2v-1.5h2.6v1.3c0,0.9,0.5,1.3,1.1,1.3
					c0.6,0,1.1-0.5,1.1-1.3c0-0.8-0.3-1.3-0.8-1.9l-2.1-2.2c-1.3-1.6-1.9-2-1.9-4c0-1.9,1.5-3.2,3.7-3.2c2.2,0,3.7,1.3,3.7,3.2v1
					L682.2,49L682.2,49L682.2,49z"/>
				<path id="XMLID_442_" class="st1" d="M695.2,47.1h-2.6v12.3H690V47.1h-2.6v-2h7.8V47.1z"/>
				<path id="XMLID_440_" class="st1" d="M696.7,56.8h2.5v2.5h-2.5V56.8z"/>
				<path id="XMLID_438_" class="st1" d="M708,45h2.5v14.3H708V47.1h-1.1v-1.5L708,45z"/>
				<path id="XMLID_435_" class="st1" d="M713.5,50.6c0-0.2,0-1.8,0-2c0-2.2,1.4-3.8,4-3.8c2.6,0,3.7,1.8,3.7,3.2c0,0,0,6.8,0,7.2
					c0,2.3-1.5,4.3-3.9,4.3c-2.4,0-3.6-1.8-3.6-3.2v-1.1h2.5v1.1c0,0.6,0.4,1.2,1.1,1.2c1,0,1.3-1.1,1.3-2.2V53
					c-0.3,0.4-0.9,0.8-1.7,0.8C714.6,53.8,713.5,52.3,713.5,50.6z M716.1,50.6c0,0.7,0.6,1.1,1.3,1.1c0.8,0,1.3-0.4,1.3-0.8v-2.9
					c0-0.4-0.4-1.2-1.2-1.2c-1,0-1.4,0.5-1.4,1.7C716.1,48.8,716.1,50.4,716.1,50.6z"/>
				<path id="XMLID_431_" class="st1" d="M732.4,55.2c0,2.3-1.6,4.3-4.1,4.3c-2.5,0-4.2-1.8-4.2-4.3c0-2,1-3.1,2.3-3.6
					c-0.9-0.4-1.9-1.7-1.9-3.2c0-2.2,1.3-3.6,3.6-3.6c2.3,0,3.7,1.3,3.7,3.6c0,1.4-0.9,2.8-1.9,3.2
					C731.3,52.2,732.4,53.3,732.4,55.2z M729.8,55.2c0-1.3-0.3-2.3-1.5-2.5c-1.2,0.2-1.5,1.2-1.5,2.5c0,1.4,0.5,2.2,1.7,2.2
					C729.4,57.5,729.8,56.3,729.8,55.2z M727,48.6c0,0.8,0.3,1.5,1.2,1.8c0.9-0.3,1.2-1,1.2-1.8c0-1-0.4-1.7-1.2-1.7
					S727,47.6,727,48.6z"/>
				<path id="XMLID_428_" class="st1" d="M743.1,53.8c0,0.2,0,1.8,0,2c0,2.2-1.4,3.8-4,3.8c-2.6,0-3.7-1.8-3.7-3.2c0,0,0-6.8,0-7.2
					c0-2.3,1.5-4.3,3.8-4.3c2.5,0,3.6,1.8,3.6,3.2v1h-2.5v-1c0-0.6-0.4-1.2-1.1-1.2c-1,0-1.3,1.1-1.3,2.2v2.2
					c0.3-0.4,0.8-0.8,1.7-0.8C742,50.6,743.1,52.1,743.1,53.8z M740.5,53.8c0-0.7-0.6-1.1-1.3-1.1c-0.8,0-1.3,0.4-1.3,0.7v3
					c0,0.4,0.4,1.2,1.2,1.2c1,0,1.4-0.5,1.4-1.7C740.5,55.6,740.5,54,740.5,53.8z"/>
			</g>
		</g>
		<g id="XMLID_194_">
			<circle id="XMLID_197_" class="st7" cx="705.8" cy="22.1" r="5.7"/>
			
				<ellipse id="XMLID_195_" transform="matrix(0.7714 -0.6364 0.6364 0.7714 148.8285 451.847)" class="st8" cx="703.3" cy="18.8" rx="1.1" ry="0.7"/>
		</g>
		<g id="XMLID_191_">
			<circle id="XMLID_193_" class="st7" cx="673.5" cy="29.6" r="5.7"/>
			
				<ellipse id="XMLID_192_" transform="matrix(0.7714 -0.6364 0.6364 0.7714 136.6224 433.0048)" class="st8" cx="670.9" cy="26.4" rx="1.1" ry="0.7"/>
		</g>
		<g id="XMLID_188_">
			<circle id="XMLID_190_" class="st7" cx="737" cy="29.6" r="5.7"/>
			
				<ellipse id="XMLID_189_" transform="matrix(0.7714 -0.6364 0.6364 0.7714 151.1523 473.4313)" class="st8" cx="734.5" cy="26.3" rx="1.1" ry="0.7"/>
		</g>
		<ellipse id="XMLID_187_" class="st8" cx="673.5" cy="31.5" rx="2.9" ry="1.5"/>
		<ellipse id="XMLID_186_" class="st8" cx="705.8" cy="24" rx="2.9" ry="1.5"/>
		<ellipse id="XMLID_185_" class="st8" cx="737" cy="31.5" rx="2.9" ry="1.5"/>
		<path id="XMLID_40_" class="st9" d="M723.5,103.6c0,0-4.1-2.2-6.2-2.3c0,0-16.3-15.4-20-17.5c0,0-9.8,16.1-14.1,17.3
			c0,0-1.2,1.4,3.9,1.8c0,0,4.8,0,5.3,0.6c0,0,1.7,0.6,1.6,1.6"/>
		<path id="XMLID_37_" class="st9" d="M654.1,107.2c0,0-7.3-4.5-18.7-5.1c0,0-3.4,0.7-6.1,6.3c0,0,0,1,1.7,1.9"/>
		<path id="XMLID_11_" class="st9" d="M624.5,133.7c-2.2-0.4-19.2,6.9-19.2,6.9c-34.5,21.6-47.9,18.4-47.9,18.4c0-7.3,13-28,13-28
			c6.8-8.4,2.8-14,2.8-14c-15.2-31.4-13.4-31.6-13.4-31.6c8.4-0.2,40.7,14.8,40.7,14.8c5.6,3.1,15.2,6.8,15.2,6.8l7.4,2.9
			c2.1,1.2,19.2,0.7,19.2,0.7c34.4-9.9,137.2-9.2,137.2-9.2l11.3,0.8c0,0,44.4,5.4,51.1,17.4c0,0-10.6,5.5-16.8,11.3
			c0,0,8.9-0.9,10.9-1.5l7.7-0.6c0,0,0.6,0.6-11.2,9.2c0,0-8,4-18.2,6.9l-10.7,2.3c-8.8,2.2-17,6.4-24.5,7.9c0,0-21.5,4.4-56.9,1.9
			c-35.4-2.5-24.2-4-52.1-10.7C642.8,139.6,642,136.5,624.5,133.7z"/>
		<path id="XMLID_12_" class="st9" d="M722.7,147.9c0,0-5.3,22.2-15,25.3c0,0-4.4-4.4-7.4-12.2c-1-2.7-2-5.8-2.5-9.3
			c0,0,0.4-3.5,3.3-3.8c0,0,4.6,1.6,6.8,0"/>
		<path id="XMLID_5_" class="st9" d="M664.6,143c0,0-5.9,9.1-14.3,14.7c0,0-4.1,4.4-5.9,3.9c-1.1-0.2-0.4-3.1-0.2-7.1
			c0,0-2.4-7.6-7.9-12.6c0,0-2.7-2.1,0-3.4c0,0,0.5,0.2,7.3-1.4"/>
		<polygon id="XMLID_196_" class="st10" points="692.9,190.5 704.1,190.5 704.1,190.5 		"/>
		<g id="XMLID_294_">
			<path id="XMLID_315_" class="st10" d="M609.6,140.1"/>
		</g>
		<g id="XMLID_114_">
			<path id="XMLID_312_" class="st10" d="M609.6,103"/>
		</g>
		<g id="XMLID_173_">
			<polygon id="XMLID_176_" class="st11" points="564.8,95.7 596,107.6 563.8,98.4 			"/>
		</g>
		<g id="XMLID_170_">
			<polygon id="XMLID_316_" class="st11" points="571,110.4 587.7,113.8 570.6,113.3 			"/>
		</g>
		<g id="XMLID_167_">
			<polygon id="XMLID_174_" class="st11" points="572.7,125.8 587.7,123.9 573.3,128.6 			"/>
		</g>
		<g id="XMLID_164_">
			<polygon id="XMLID_171_" class="st11" points="568,134 593,129.9 568.6,136.9 			"/>
		</g>
		<g id="XMLID_161_">
			<polygon id="XMLID_168_" class="st11" points="562.2,143.2 594.5,133.9 563.1,146 			"/>
		</g>
		<g id="XMLID_158_">
			<polygon id="XMLID_165_" class="st11" points="557.8,151.3 594.1,140.1 558.8,154 			"/>
		</g>
		<path id="XMLID_157_" class="st11" d="M824.1,116.5c0-0.6-0.3-1.1-0.9-1.2c-0.1,0-0.8-0.2-1-0.3c-0.5-0.1-1-0.1-1.5,0
			c-0.3,0-1.4,0.4-1.6,0.6c-0.9,0.5-0.9,0.6-1.4,1.5c-0.3,0.5-0.2,1.7,0.4,2c1.3,0.6,2.1,1.7,3.6,1.2c0.5,0,1-0.2,1.3-0.5
			c0.4-0.4,0.6-0.8,0.7-1.4c0.2-0.4,0.2-0.4,0.3-0.8"/>
		<path id="XMLID_22_" class="st12" d="M616.1,135.4c0,0,6.7-9.1,65.5,14.2c0,0-1.1-0.2,16.2,4.8"/>
		<path id="XMLID_9_" class="st13" d="M719.8,157c8.1,0.3,24.2,0.9,35.5,0.7c0,0,2.3,0.1,6.2-0.2"/>
		<g id="XMLID_20_">
			<path id="XMLID_27_" class="st11" d="M783.9,141.8c-2.1-0.1-4.2,0.1-6.2,0.5c-0.5,0.1-1,0.2-1.5,0.4c-0.5,0.1-1,0.3-1.5,0.5
				c-0.5,0.1-1,0.4-1.4,0.6c-0.5,0.2-1,0.4-1.4,0.7s-0.9,0.5-1.3,0.8l-1.2,0.9c-0.4,0.3-0.8,0.7-1.1,1c-0.4,0.3-0.7,0.7-1,1.1
				c-0.3,0.4-0.7,0.7-1,1.1l-0.8,1.2c-0.6,0.8-0.9,1.8-1.4,2.6l0-0.1c-0.3,1.2-0.7,2.4-1.2,3.6s-1,2.3-1.6,3.4
				c-0.7,1.1-1.4,2.1-2.3,3.1c-0.5,0.4-0.9,0.9-1.5,1.3c-0.3,0.2-0.5,0.4-0.8,0.6l-0.9,0.5l-0.8-2.2c4.1-1.2,8.2-2.7,12.2-4.2
				c2-0.8,4-1.5,6-2.3c1-0.4,2-0.8,2.9-1.2c1-0.4,1.9-0.9,2.7-1.4l-0.2,0.2c1.6-1.6,3.2-3.2,4.8-4.7c0.8-0.8,1.7-1.5,2.5-2.2
				c0.9-0.7,1.8-1.4,2.7-2c0.1,0,0.2,0,0.2,0.1c0,0.1,0,0.1,0,0.2c-1.5,1.6-2.9,3.3-4.3,5.1l-4.1,5.2c-0.1,0.1-0.1,0.1-0.2,0.2l0,0
				c-0.5,0.3-1,0.7-1.4,1l-1.5,0.9c-1,0.5-2,1-3,1.5c-1,0.4-2,0.9-3.1,1.3c-1,0.4-2.1,0.8-3.1,1.1c-2.1,0.7-4.2,1.4-6.3,1.9
				c-2.1,0.6-4.2,1.2-6.3,1.7c-0.6,0.2-1.3-0.2-1.4-0.9c-0.1-0.5,0.1-1.1,0.6-1.3l0,0l0.7-0.4c0.2-0.1,0.5-0.3,0.7-0.4
				c0.5-0.3,0.8-0.7,1.3-1c0.8-0.8,1.5-1.7,2.1-2.6c0.6-1,1.2-2,1.7-3.1c0.5-1.1,0.9-2.2,1.2-3.3l0-0.1l0-0.1c0.5-0.9,1-1.9,1.7-2.8
				l1-1.3c0.3-0.4,0.7-0.8,1.1-1.2c0.4-0.4,0.8-0.8,1.2-1.1c0.4-0.3,0.8-0.7,1.3-1l1.4-0.9c0.5-0.3,1-0.5,1.4-0.7
				c0.5-0.2,1-0.4,1.5-0.6c0.5-0.2,1-0.4,1.5-0.5c0.5-0.1,1-0.3,1.5-0.4c0.5-0.1,1-0.2,1.6-0.3c2.1-0.3,4.2-0.4,6.3-0.1
				c0.1,0,0.1,0.1,0.1,0.2C784.1,141.8,784,141.8,783.9,141.8z"/>
		</g>
		<g id="XMLID_18_">
			<path id="XMLID_26_" class="st11" d="M723.5,103.6c-1-0.4-2.1-0.7-3.1-1.1c-0.5-0.2-1-0.3-1.6-0.4c-0.5-0.1-1-0.2-1.5-0.2l-0.2,0
				l-0.2-0.2c-3.4-2.8-6.8-5.7-10.2-8.5c-1.7-1.4-3.4-2.9-5.1-4.3c-0.8-0.7-1.7-1.4-2.5-2.1c-0.4-0.3-0.8-0.7-1.3-1
				c-0.4-0.3-0.8-0.6-1.2-0.8l1.9-0.5c-1,1.7-2.1,3.2-3.1,4.8c-1.1,1.6-2.2,3.1-3.3,4.6s-2.4,3-3.7,4.4c-0.7,0.7-1.4,1.4-2.1,2
				c-0.4,0.3-0.8,0.6-1.2,0.9s-1,0.6-1.6,0.7l0.5-0.3c0.1-0.2,0.1-0.1,0.1-0.2c0-0.1,0-0.2,0-0.2c0,0-0.1-0.1,0,0c0,0,0,0,0.1,0.1
				c0.1,0.1,0.2,0.2,0.4,0.2c0.2,0.1,0.3,0.1,0.5,0.2c0.7,0.2,1.5,0.4,2.3,0.5H687c0.9,0.1,1.8,0.2,2.7,0.3c0.5,0.1,0.9,0.1,1.4,0.2
				c0.2,0,0.5,0.1,0.7,0.2c0.1,0,0.2,0.1,0.4,0.1s0.2,0.1,0.4,0.3l-0.1-0.1c0.4,0.2,0.7,0.4,1,0.7c0.3,0.3,0.5,0.7,0.4,1.1
				c0-0.4-0.3-0.7-0.6-0.8c-0.3-0.2-0.7-0.3-1-0.4l-0.1-0.1c0,0-0.1,0-0.2,0c-0.1,0-0.2,0-0.3,0c-0.2,0-0.4,0-0.6,0
				c-0.4,0-0.9,0-1.3,0c-0.9,0-1.8,0-2.7,0.1H687c-0.8,0-1.7-0.1-2.6-0.3c-0.2,0-0.5-0.1-0.7-0.2c-0.2-0.1-0.5-0.2-0.7-0.3
				s-0.6-0.4-0.8-0.8c-0.1-0.2-0.2-0.5-0.1-0.8c0-0.3,0.1-0.5,0.3-0.8l0.1-0.2l0.3-0.2c0.6-0.2,1.3-0.8,1.9-1.4
				c0.6-0.6,1.2-1.3,1.8-2c1.2-1.4,2.3-2.9,3.3-4.4c1.1-1.5,2.1-3.1,3.2-4.6c1-1.6,2-3.2,3-4.7l0.8-1.2l1.2,0.7
				c0.5,0.3,1.1,0.7,1.5,1c0.5,0.3,0.9,0.7,1.4,1.1c0.9,0.7,1.7,1.4,2.6,2.2c1.7,1.5,3.3,3,4.9,4.5c3.2,3.1,6.3,6.2,9.4,9.5
				l-0.4-0.2c0.7,0.1,1.2,0.3,1.7,0.5c0.5,0.2,1,0.4,1.5,0.7C721.6,102.4,722.6,102.9,723.5,103.6z"/>
		</g>
		<g id="XMLID_146_">
			<path id="XMLID_148_" class="st11" d="M715.6,103.6l-17.3-15.6l18.3,14.4c0.3,0.2,0.4,0.7,0.1,1
				C716.4,103.9,716,103.9,715.6,103.6C715.6,103.7,715.6,103.6,715.6,103.6z"/>
		</g>
		<g id="XMLID_143_">
			<path id="XMLID_145_" class="st11" d="M708.6,103.5l-11.5-11.2l12.4,10.1c0.3,0.2,0.4,0.7,0.1,1
				C709.4,103.8,708.9,103.8,708.6,103.5C708.6,103.6,708.6,103.6,708.6,103.5z"/>
		</g>
		<g id="XMLID_140_">
			<path id="XMLID_142_" class="st11" d="M702.3,103l-7.1-6.8l8,5.7c0.3,0.2,0.4,0.7,0.2,1C703.2,103.3,702.7,103.3,702.3,103
				C702.4,103.1,702.3,103.1,702.3,103z"/>
		</g>
		<g id="XMLID_137_">
			<path id="XMLID_139_" class="st11" d="M697,103.9l-5.7-5.4l6.6,4.2c0.3,0.2,0.4,0.7,0.2,1C697.9,104.1,697.4,104.2,697,103.9
				C697.1,103.9,697,103.9,697,103.9z"/>
		</g>
		<g id="XMLID_16_">
			<path id="XMLID_25_" class="st11" d="M654.1,107.2c-1.6-0.5-3.2-0.9-4.7-1.3c-0.8-0.2-1.6-0.4-2.3-0.6s-1.6-0.3-2.3-0.5
				c-0.8-0.2-1.6-0.3-2.3-0.4c-0.8-0.1-1.6-0.3-2.3-0.4c-0.8-0.1-1.6-0.2-2.3-0.3c-0.8-0.1-1.6-0.2-2.4-0.2l0.4,0
				c0,0-0.2,0.1-0.3,0.1c-0.1,0-0.3,0.1-0.4,0.2c-0.3,0.1-0.5,0.3-0.8,0.4c-0.5,0.3-1,0.8-1.5,1.2s-1,1-1.4,1.6
				c-0.5,0.6-0.9,1.1-1.3,1.8l0.1-0.3c0-0.1,0,0,0,0c0,0,0,0.1,0,0.1c0,0.1,0,0.2,0,0.2c0,0.2,0.1,0.3,0.2,0.5
				c0.2,0.4,0.5,0.7,0.8,1.1c-0.5-0.1-0.9-0.2-1.3-0.5c-0.2-0.1-0.4-0.3-0.6-0.5c-0.1-0.1-0.2-0.2-0.3-0.4c0-0.1-0.1-0.2-0.1-0.2
				c0-0.1-0.1-0.1-0.1-0.3l0-0.1l0.1-0.2c0.2-0.7,0.5-1.5,0.9-2.2c0.4-0.7,0.8-1.4,1.3-2.1c0.5-0.7,1.1-1.3,1.8-1.8
				c0.3-0.3,0.7-0.5,1.1-0.7c0.2-0.1,0.4-0.2,0.6-0.3c0.2-0.1,0.4-0.2,0.8-0.3l0.2,0l0.2,0c1.7,0.1,3.3,0.2,5,0.5
				c1.7,0.3,3.3,0.7,4.9,1.2c1.6,0.5,3.2,1.2,4.6,2C651.5,105.2,652.9,106.1,654.1,107.2z"/>
		</g>
		<path id="XMLID_133_" class="st11" d="M775.9,111.3c-0.1-0.1-0.1-0.2-0.2-0.3c0-0.4-0.2-0.8-0.7-0.8c-0.1,0-0.5-0.2-0.7-0.2
			c-0.3-0.1-0.7-0.1-1,0c-0.2,0-1,0.3-1.1,0.4c-0.6,0.4-0.8,0.8-1.2,1.4c-0.2,0.4-0.3,0.9,0.1,1.1c0.9,0.4,1.9,1.1,2.9,0.8
			c0.3,0,0.7-0.1,0.9-0.4c0.3-0.3,0.4-0.6,0.5-0.9c0.1-0.3,0.2-0.3,0.2-0.6C775.7,111.9,775.9,111.4,775.9,111.3z"/>
		<path id="XMLID_132_" class="st11" d="M754.9,111.5c0-0.1-0.1-0.1-0.1-0.2c0-0.2-0.2-0.5-0.4-0.5c0,0-0.3-0.1-0.4-0.1
			c-0.2-0.1-0.4-0.1-0.6,0c-0.1,0-0.6,0.2-0.7,0.3c-0.4,0.2-0.5,0.5-0.7,0.9c-0.1,0.2-0.2,0.6,0.1,0.7c0.5,0.3,1.1,0.6,1.8,0.5
			c0.2,0,0.4-0.1,0.5-0.2c0.2-0.2,0.2-0.4,0.3-0.6c0.1-0.2,0.1-0.2,0.1-0.3C754.8,111.8,755,111.6,754.9,111.5z"/>
		<path id="XMLID_131_" class="st11" d="M646.6,106.7c0-0.1-0.1-0.1-0.1-0.2c0-0.2-0.2-0.5-0.4-0.5c0,0-0.3-0.1-0.4-0.1
			c-0.2-0.1-0.4-0.1-0.6,0c-0.1,0-0.6,0.2-0.7,0.3c-0.4,0.2-0.5,0.5-0.7,0.9c-0.1,0.2-0.2,0.6,0.1,0.7c0.5,0.3,1.1,0.6,1.8,0.5
			c0.2,0,0.4-0.1,0.5-0.2c0.2-0.2,0.2-0.4,0.3-0.6c0.1-0.2,0.1-0.2,0.1-0.3C646.5,107,646.7,106.7,646.6,106.7z"/>
		<path id="XMLID_130_" class="st11" d="M635.2,108.2C635.2,108.1,635.1,108.1,635.2,108.2c-0.1-0.2-0.2-0.4-0.3-0.4
			c0,0-0.2-0.1-0.3-0.1c-0.1,0-0.3,0-0.4,0c-0.1,0-0.4,0.1-0.4,0.2c-0.2,0.2-0.3,0.3-0.5,0.6c-0.1,0.2-0.1,0.4,0,0.4
			c0.3,0.2,0.7,0.4,1.1,0.3c0.1,0,0.3-0.1,0.3-0.2c0.1-0.1,0.2-0.2,0.2-0.4c0-0.1,0.1-0.1,0.1-0.2
			C635.1,108.4,635.2,108.2,635.2,108.2z"/>
		<path id="XMLID_129_" class="st11" d="M639.5,105.2C639.5,105.2,639.5,105.2,639.5,105.2c0-0.2-0.1-0.3-0.2-0.3c0,0-0.2,0-0.2-0.1
			c-0.1,0-0.2,0-0.3,0c-0.1,0-0.3,0.1-0.3,0.1c-0.2,0.1-0.2,0.2-0.3,0.4c-0.1,0.1-0.1,0.3,0,0.3c0.3,0.1,0.5,0.3,0.8,0.2
			c0.1,0,0.2,0,0.3-0.1c0.1-0.1,0.1-0.2,0.1-0.3c0-0.1,0-0.1,0.1-0.2C639.5,105.4,639.5,105.3,639.5,105.2z"/>
		<path id="XMLID_8_" class="st14" d="M779.6,155.1c7.4-1.5,15.7-5.7,24.5-7.9l10.7-2.3c10.2-2.9,18.2-6.9,18.2-6.9
			c11.8-8.5,11.2-9.2,11.2-9.2l-7.7,0.6c-2,0.6-10.9,1.5-10.9,1.5c6.2-5.8,16.8-11.3,16.8-11.3c-6.8-12-51.1-17.4-51.1-17.4
			l-11.3-0.8c0,0-102.8-0.7-137.2,9.2c0,0-17.1,0.5-19.2-0.7l-7.4-2.9c0,0-9.6-3.7-15.2-6.8c0,0-32.3-15-40.7-14.8
			c0,0-1.9,0.2,13.4,31.6c0,0,4,5.6-2.8,14c0,0-13,20.7-13,28c0,0,13.4,3.2,47.9-18.4c0,0,17.1-7.3,19.2-6.9"/>
		<path id="XMLID_127_" class="st15" d="M833.3,127.7"/>
		<path id="XMLID_126_" class="st11" d="M761.7,119.5c0-0.1-0.1-0.1-0.1-0.2c0-0.2-0.2-0.5-0.4-0.5c0,0-0.3-0.1-0.4-0.1
			c-0.2-0.1-0.4-0.1-0.6,0c-0.1,0-0.6,0.2-0.7,0.3c-0.4,0.2-0.5,0.5-0.7,0.9c-0.1,0.2-0.2,0.6,0.1,0.7c0.5,0.3,1.1,0.6,1.8,0.5
			c0.2,0,0.4-0.1,0.5-0.2c0.2-0.2,0.2-0.4,0.3-0.6c0.1-0.2,0.1-0.2,0.1-0.3C761.6,119.9,761.7,119.6,761.7,119.5z"/>
		<path id="XMLID_125_" class="st11" d="M712.1,113.4c0-0.1-0.1-0.1-0.1-0.2c0-0.2-0.2-0.5-0.4-0.5c0,0-0.3-0.1-0.4-0.1
			c-0.2-0.1-0.4-0.1-0.6,0c-0.1,0-0.6,0.2-0.7,0.3c-0.4,0.2-0.5,0.5-0.7,0.9c-0.1,0.2-0.2,0.6,0.1,0.7c0.5,0.3,1.1,0.6,1.8,0.5
			c0.2,0,0.4-0.1,0.5-0.2c0.2-0.2,0.2-0.4,0.3-0.6c0.1-0.2,0.1-0.2,0.1-0.3C712,113.8,712.2,113.5,712.1,113.4z"/>
		<path id="XMLID_124_" class="st11" d="M661.3,116.3c-0.1-0.1-0.1-0.2-0.2-0.3c0-0.4-0.2-0.8-0.7-0.8c-0.1,0-0.5-0.2-0.7-0.2
			c-0.3-0.1-0.7-0.1-1,0c-0.2,0-1,0.3-1.1,0.4c-0.6,0.4-0.8,0.8-1.2,1.4c-0.2,0.4-0.3,0.9,0.1,1.1c0.9,0.4,1.9,1.1,2.9,0.8
			c0.3,0,0.7-0.1,0.9-0.4c0.3-0.3,0.4-0.6,0.5-0.9c0.1-0.3,0.2-0.3,0.2-0.6C661.1,116.9,661.3,116.5,661.3,116.3z"/>
		<path id="XMLID_123_" class="st11" d="M666.4,129.4c-0.1-0.1-0.1-0.2-0.2-0.3c0-0.4-0.2-0.8-0.7-0.9c-0.1,0-0.5-0.2-0.7-0.2
			c-0.3-0.1-0.7-0.1-1,0c-0.2,0-1,0.3-1.1,0.4c-0.6,0.4-0.8,0.8-1.2,1.4c-0.2,0.4-0.3,0.9,0.1,1.1c0.9,0.4,1.9,1.1,2.9,0.8
			c0.3,0,0.7-0.1,0.9-0.4c0.3-0.3,0.4-0.6,0.5-0.9c0.1-0.3,0.2-0.3,0.2-0.6C666.2,129.9,666.4,129.5,666.4,129.4z"/>
		<path id="XMLID_122_" class="st11" d="M677,119.5c0-0.1-0.1-0.1-0.1-0.2c0-0.2-0.2-0.5-0.4-0.5c0,0-0.3-0.1-0.4-0.1
			c-0.2-0.1-0.4-0.1-0.6,0c-0.1,0-0.6,0.2-0.7,0.3c-0.4,0.2-0.5,0.5-0.7,0.9c-0.1,0.2-0.2,0.6,0.1,0.7c0.5,0.3,1.1,0.6,1.8,0.5
			c0.2,0,0.4-0.1,0.5-0.2c0.2-0.2,0.2-0.4,0.3-0.6c0.1-0.2,0.1-0.2,0.1-0.3C676.9,119.9,677,119.6,677,119.5z"/>
		<path id="XMLID_121_" class="st11" d="M696.9,110.4c0,0,0-0.1-0.1-0.1c0-0.2-0.1-0.3-0.3-0.4c0,0-0.2-0.1-0.3-0.1
			c-0.2,0-0.3,0-0.5,0c-0.1,0-0.4,0.1-0.5,0.2c-0.3,0.2-0.4,0.3-0.5,0.6c-0.1,0.2-0.1,0.4,0.1,0.5c0.4,0.2,0.8,0.4,1.2,0.3
			c0.2,0,0.3-0.1,0.4-0.2c0.1-0.1,0.2-0.3,0.2-0.4c0.1-0.1,0.1-0.1,0.1-0.3C696.9,110.7,697,110.5,696.9,110.4z"/>
		<path id="XMLID_120_" class="st11" d="M728.3,118.5c0,0,0-0.1-0.1-0.1c0-0.2-0.1-0.3-0.3-0.4c0,0-0.2-0.1-0.3-0.1
			c-0.2,0-0.3,0-0.5,0c-0.1,0-0.4,0.1-0.5,0.2c-0.3,0.2-0.4,0.3-0.5,0.6c-0.1,0.2-0.1,0.4,0.1,0.5c0.4,0.2,0.8,0.4,1.2,0.3
			c0.2,0,0.3-0.1,0.4-0.2c0.1-0.1,0.2-0.3,0.2-0.4c0.1-0.1,0.1-0.1,0.1-0.3C728.2,118.7,728.3,118.5,728.3,118.5z"/>
		<path id="XMLID_119_" class="st11" d="M772.6,120.8c0,0,0-0.1-0.1-0.1c0-0.2-0.1-0.3-0.3-0.4c0,0-0.2-0.1-0.3-0.1
			c-0.2,0-0.3,0-0.5,0c-0.1,0-0.4,0.1-0.5,0.2c-0.3,0.2-0.4,0.3-0.5,0.6c-0.1,0.2-0.1,0.4,0.1,0.5c0.4,0.2,0.8,0.4,1.2,0.3
			c0.2,0,0.3-0.1,0.4-0.2c0.1-0.1,0.2-0.3,0.2-0.4c0.1-0.1,0.1-0.1,0.1-0.3C772.6,121,772.7,120.8,772.6,120.8z"/>
		<path id="XMLID_118_" class="st11" d="M831.5,126.7c0,0-6.1,6.1-8.2,5c0,0,10.7,5.8,22.4-4L831.5,126.7z"/>
		<g id="XMLID_115_">
			<path id="XMLID_117_" class="st11" d="M830.8,121.3c0,0-1.7,0.9-4.1,2.3c-1.2,0.7-2.6,1.6-4.1,2.5c-1.5,1-3,2-4.3,3.3
				c-0.6,0.6-1.2,1.4-1.3,1.9c0,0.1,0,0.2,0,0.3c0,0.1,0.1,0.2,0.2,0.3c0.2,0.2,0.4,0.3,0.7,0.4c0.6,0.1,1.4,0,2.1-0.2
				c0.4-0.1,0.7-0.2,1-0.4c0.3-0.1,0.7-0.2,1-0.4c1.3-0.5,2.3-1.1,3-1.4c0.7-0.4,1.2-0.6,1.2-0.6l0.1,0.1c0,0-0.3,0.3-1,0.9
				c-0.3,0.3-0.7,0.6-1.2,0.9c-0.5,0.4-1,0.7-1.6,1.1c-0.6,0.4-1.3,0.7-2.1,1c-0.8,0.3-1.8,0.5-2.9,0.4c-1.1-0.2-2.4-1.3-2-2.8
				c0.4-1.2,1.2-1.9,1.9-2.5c1.5-1.3,3.1-2.3,4.7-3.2c1.5-0.9,3-1.6,4.3-2.3c2.5-1.2,4.3-1.9,4.3-1.9L830.8,121.3z"/>
		</g>
		<g id="XMLID_112_">
			<path id="XMLID_308_" class="st11" d="M795.7,110.1c-2.1,2.7-4,5.6-5.4,8.7c-1.4,3.1-2.5,6.3-2.7,9.6c-0.1,1.6,0.1,3.2,0.5,4.8
				s1.1,3,2.1,4.2c0.9,1.3,2,2.4,3.2,3.5c1.2,1.1,2.5,2.1,3.9,3l0.4,0.2l0.1,0.2c0.1,0.2,0.2,0.4,0.3,0.6c0.1,0.2,0.3,0.4,0.4,0.6
				c0.3,0.4,0.7,0.8,1.1,1.1c0.2,0.2,0.4,0.3,0.6,0.4c0.2,0.1,0.5,0.2,0.7,0.3c0.2,0.1,0.5,0.2,0.8,0.2c0.3,0.1,0.5,0.1,0.8,0.1
				l0.1,0.3c-0.3,0.1-0.6,0.2-0.9,0.3c-0.3,0.1-0.6,0.1-1,0.1s-0.6,0-1-0.1c-0.3-0.1-0.6-0.2-1-0.3c-0.6-0.2-1.2-0.6-1.7-1
				c-0.3-0.2-0.5-0.4-0.7-0.7c-0.2-0.2-0.4-0.4-0.7-0.8l0.4,0.4c-0.8-0.4-1.6-0.8-2.4-1.3c-0.8-0.5-1.5-1-2.3-1.6
				c-1.4-1.1-2.7-2.6-3.7-4.2c-2-3.2-2.7-7.2-2.2-10.8c0.5-3.6,1.8-7,3.6-10c1.8-3,3.9-5.8,6.4-8.3L795.7,110.1z"/>
		</g>
		<g id="XMLID_109_">
			<path id="XMLID_111_" class="st11" d="M799.3,117.7c-0.3,0.9-0.5,1.8-0.7,2.7c-0.2,0.9-0.4,1.8-0.5,2.7c-0.1,0.9-0.2,1.8-0.2,2.8
				c0,0.4,0,0.9,0,1.4l0.1,1.4l0.2,1.3c0.1,0.4,0.2,0.9,0.3,1.3c0.1,0.4,0.3,0.9,0.5,1.2c0.2,0.4,0.3,0.8,0.6,1.2l0.7,1.1
				c0.2,0.4,0.5,0.7,0.8,1l0.4,0.5l0.5,0.4l1,0.9l-0.3-0.2c1.3,0.4,2.6,0.8,3.9,1.1c0.6,0.1,1.3,0.2,1.9,0.3c0.3,0,0.6,0,0.8,0
				c0.2,0,0.2,0,0.3-0.1c0.1,0,0-0.1,0.1,0l-0.7,1.1l0-1.4l-0.1-1.4c-0.1-0.9-0.2-1.9-0.3-2.8c-0.1-0.4-0.2-0.9-0.3-1.3
				c-0.1-0.4-0.2-0.8-0.4-1.2c-0.1-0.2-0.2-0.4-0.3-0.5c-0.1-0.2-0.2-0.4-0.3-0.5c-0.1-0.1-0.2-0.3-0.3-0.4
				c-0.1-0.1-0.3-0.2-0.4-0.4l-0.5-0.5l0-0.3c-0.1-0.7-0.1-1.4-0.1-2c0-0.7,0-1.3,0.1-2c0.1-1.3,0.4-2.7,1.1-3.9l0.3,0.1
				c-0.2,1.3,0,2.5,0.2,3.8c0.1,0.6,0.2,1.2,0.4,1.8c0.1,0.6,0.3,1.2,0.5,1.8l-0.6-0.8l0.8,0.5c0.3,0.2,0.5,0.4,0.7,0.6
				s0.4,0.4,0.6,0.7s0.3,0.5,0.5,0.8c0.3,0.5,0.5,1,0.7,1.6c0.2,0.5,0.3,1.1,0.5,1.6c0.2,1.1,0.4,2.1,0.4,3.2c0,0.5,0,1.1,0,1.6
				c0,0.5-0.1,1-0.1,1.6l-0.1,0.8l-0.5,0.3c-0.3,0.1-0.7,0.3-0.9,0.3c-0.3,0-0.5,0.1-0.8,0.1c-0.5,0-0.9,0-1.3-0.1
				c-0.8-0.1-1.5-0.3-2.2-0.5c-1.4-0.4-2.7-0.9-4.1-1.5l-0.2-0.1l-0.1-0.1l-1.1-1.1l-0.5-0.5l-0.5-0.6c-0.3-0.4-0.6-0.8-0.9-1.2
				l-0.7-1.3c-0.2-0.4-0.4-0.9-0.5-1.4c-0.2-0.5-0.3-0.9-0.4-1.4c-0.1-0.5-0.2-1-0.3-1.4l-0.2-1.5l0-1.5c0-0.5,0.1-1,0.1-1.4
				c0.1-1,0.2-1.9,0.4-2.8c0.4-1.9,1-3.7,1.8-5.4L799.3,117.7z"/>
		</g>
		<path id="XMLID_108_" class="st16" d="M573,127.2"/>
		<path id="XMLID_107_" class="st16" d="M567,138.6"/>
		<g id="XMLID_104_">
			<path id="XMLID_178_" class="st11" d="M824.4,121.3c0,0-0.6,0.5-1.6,0.9c-0.5,0.2-1.1,0.3-1.8,0.4c-0.7,0-1.4-0.1-2.1-0.3
				c-0.4-0.1-0.7-0.2-1.1-0.3c-0.3-0.1-0.7-0.3-1-0.4c-0.3-0.2-0.6-0.4-0.8-0.6c-0.2-0.2-0.4-0.4-0.6-0.7c-0.2-0.2-0.3-0.4-0.4-0.7
				c-0.1-0.2-0.2-0.4-0.2-0.5c-0.1-0.3-0.2-0.5-0.2-0.5l0.2,0c0,0,0.1,0.2,0.2,0.4c0.1,0.1,0.2,0.3,0.3,0.4c0.1,0.2,0.3,0.3,0.5,0.5
				c0.2,0.2,0.4,0.3,0.6,0.4c0.3,0.1,0.5,0.3,0.8,0.3c0.3,0.1,0.6,0.2,0.9,0.2c0.3,0.1,0.6,0.1,1,0.1c0.6,0,1.3-0.1,1.9-0.1
				c0.6,0,1.2,0,1.7,0c1,0,1.8,0.2,1.8,0.2L824.4,121.3z"/>
		</g>
		<g id="XMLID_13_">
			<path id="XMLID_33_" class="st11" d="M722.7,147.9c-0.3,2.5-0.9,5-1.6,7.5c-0.3,1.2-0.7,2.4-1.2,3.7c-0.4,1.2-0.9,2.4-1.4,3.6
				c-1,2.4-2.3,4.7-3.9,6.8c-0.4,0.5-0.8,1.1-1.3,1.6c-0.5,0.5-1,1-1.5,1.4c-0.5,0.4-1.1,0.9-1.7,1.2l-1,0.5l-1,0.4l-0.8,0.3
				l-0.7-0.7c-0.4-0.4-0.7-0.8-1.1-1.2c-0.3-0.4-0.7-0.8-1-1.2c-0.6-0.8-1.2-1.7-1.8-2.6c-1.1-1.8-2.1-3.6-2.9-5.5
				c-0.4-0.9-0.8-1.9-1.1-2.9c-0.3-1-0.7-2-0.9-3c-0.5-2-0.9-4-1.1-6.1l0-0.2l0-0.1c0.1-0.3,0.1-0.5,0.2-0.8
				c0.1-0.2,0.2-0.5,0.3-0.7c0.2-0.5,0.5-0.9,0.8-1.3c0.3-0.4,0.8-0.8,1.3-1c0.5-0.3,1.1-0.4,1.6-0.4l0.2,0l0.1,0
				c1,0.4,2.1,0.7,3.3,0.9c0.6,0.1,1.1,0.1,1.7,0.1c0.6,0,1.1-0.1,1.7-0.4c-0.9,0.8-2.2,1-3.4,1c-1.2,0-2.4-0.1-3.6-0.4l0.2,0
				c-0.7,0.1-1.3,0.5-1.7,1.1c-0.2,0.3-0.3,0.6-0.5,1c-0.1,0.2-0.1,0.4-0.2,0.6c0,0.2-0.1,0.4-0.1,0.5v-0.2c0.4,1.9,0.9,3.8,1.5,5.7
				c0.3,0.9,0.6,1.9,1,2.7c0.4,0.9,0.8,1.8,1.2,2.7c0.9,1.8,1.8,3.5,2.8,5.1c0.5,0.8,1.1,1.6,1.7,2.4c0.3,0.4,0.6,0.8,0.9,1.1
				c0.3,0.4,0.6,0.7,0.9,1l-1.4-0.4l0.7-0.3l0.7-0.4c0.5-0.3,0.9-0.6,1.4-0.9c0.4-0.4,0.9-0.7,1.3-1.1c0.4-0.4,0.8-0.9,1.2-1.3
				c0.8-0.9,1.5-1.9,2.1-2.9c0.7-1,1.3-2.1,1.9-3.2C719,157.4,720.9,152.7,722.7,147.9z"/>
		</g>
		<path id="XMLID_102_" class="st17" d="M704.4,155.5"/>
		<g id="XMLID_99_">
			<path id="XMLID_101_" class="st11" d="M704.4,169.4c0,0,0.7-0.6,1.8-1.6c1.1-1,2.5-2.3,3.8-3.7s2.5-2.9,3.2-4.2
				c0.2-0.3,0.3-0.6,0.5-0.9c0.2-0.3,0.2-0.5,0.3-0.7c0.2-0.4,0.2-0.6,0.2-0.6s-0.1,0.2-0.2,0.6c-0.1,0.2-0.1,0.4-0.2,0.7
				s-0.2,0.6-0.4,0.9c-0.6,1.3-1.7,3-2.8,4.6c-2.3,3.1-5.2,5.9-5.2,5.9c-0.3,0.3-0.7,0.3-1,0S704,169.7,704.4,169.4
				C704.3,169.4,704.3,169.4,704.4,169.4z"/>
		</g>
		<g id="XMLID_96_">
			<path id="XMLID_98_" class="st11" d="M700.4,160.3c0,0,0.1,0,0.4,0.1s0.7,0.1,1.2,0.1c0.5,0,1.1-0.1,1.8-0.3
				c0.6-0.2,1.3-0.4,2-0.8c0.3-0.2,0.6-0.4,0.9-0.6s0.6-0.4,0.9-0.6c0.5-0.4,1-0.9,1.4-1.3c0.4-0.4,0.7-0.8,0.9-1
				c0.2-0.2,0.3-0.4,0.3-0.4s-0.1,0.2-0.3,0.4s-0.4,0.7-0.8,1.1c-0.3,0.4-0.8,1-1.3,1.5c-0.2,0.3-0.5,0.5-0.8,0.8s-0.6,0.5-0.9,0.7
				c-0.6,0.4-1.3,0.8-2,1.1s-1.4,0.5-2,0.6c-0.6,0.1-1.1,0.1-1.5,0.1c-0.4,0-0.6-0.1-0.6-0.1L700.4,160.3z"/>
		</g>
		<g id="XMLID_10_">
			<path id="XMLID_35_" class="st11" d="M664.6,143c-0.8,1.6-1.7,3.1-2.6,4.5c-1,1.4-2,2.8-3.2,4.2c-0.5,0.7-1.1,1.3-1.8,1.9
				s-1.2,1.2-1.9,1.9c-0.6,0.6-1.3,1.2-2,1.8c-0.7,0.6-1.4,1.1-2.1,1.6l0.2-0.2c-0.9,1-1.8,1.8-2.8,2.6c-0.5,0.4-1.1,0.8-1.7,1.2
				c-0.3,0.2-0.7,0.4-1.1,0.5c-0.5,0.1-0.9,0.3-1.8,0.1c0.1,0-0.6-0.2-0.7-0.4c-0.2-0.2-0.3-0.4-0.5-0.5c-0.2-0.4-0.3-0.6-0.3-0.9
				c-0.1-0.5-0.1-0.9-0.1-1.2c0-0.7,0.1-1.3,0.1-1.9c0.1-1.2,0.3-2.4,0.3-3.6l0.1,0.5c-0.2-0.7-0.5-1.4-0.8-2.1
				c-0.3-0.7-0.6-1.4-1-2.1c-0.7-1.4-1.4-2.8-2.3-4.1c-0.4-0.6-0.9-1.3-1.3-1.9c-0.5-0.6-1-1.2-1.5-1.8l-0.4-0.4
				c-0.2-0.2-0.3-0.4-0.5-0.5c-0.3-0.4-0.6-0.8-0.7-1.4c-0.2-0.6-0.1-1.4,0.3-1.9c0.4-0.5,0.9-0.7,1.3-0.9l0.5,0
				c-0.2-0.1-0.1,0-0.2,0c0,0,0,0,0,0h0.1h0.2l0.4,0l0.9-0.1l1.8-0.2l3.7-0.4c-1.2,0.4-2.3,0.9-3.5,1.2c-0.6,0.2-1.2,0.4-1.8,0.5
				l-0.9,0.2l-0.5,0.1l-0.3,0l-0.2,0h-0.1c-0.1,0,0,0-0.3,0l0.5,0c-0.3,0.2-0.5,0.4-0.6,0.5c-0.1,0.2-0.1,0.2,0,0.4
				c0.1,0.2,0.3,0.4,0.5,0.7c0.1,0.1,0.2,0.2,0.4,0.3l0.5,0.4c0.6,0.6,1.2,1.1,1.8,1.8c0.6,0.6,1.1,1.2,1.6,1.9
				c1,1.3,1.9,2.8,2.7,4.2c0.4,0.7,0.8,1.5,1.1,2.3l0.5,1.2c0.2,0.4,0.3,0.8,0.5,1.2l0.1,0.2l0,0.3c-0.1,1.2-0.2,2.5-0.3,3.7
				c-0.1,0.6-0.1,1.2-0.1,1.7c0,0.2,0,0.5,0,0.6c0,0.1,0,0.1,0,0c0,0-0.1-0.1-0.2-0.2c0,0-0.1-0.1-0.2-0.1c0,0-0.2,0-0.1,0l0.1,0
				c-0.3-0.1-0.1,0,0-0.1c0.2,0,0.4-0.1,0.6-0.2c0.4-0.2,0.9-0.6,1.3-0.9c0.9-0.7,1.8-1.5,2.6-2.3l0.1-0.1l0.1-0.1
				c0.7-0.5,1.4-0.9,2.1-1.4c0.7-0.5,1.3-1,2-1.5c1.3-1,2.6-2.2,3.8-3.3C660,148.1,662.3,145.6,664.6,143z"/>
		</g>
		<g id="XMLID_90_">
			<polygon id="XMLID_151_" class="st11" points="637.6,142.3 643.6,141.7 638.6,145 			"/>
		</g>
		<path id="XMLID_89_" class="st18" d="M642.3,149.3"/>
		<g id="XMLID_82_">
			<polygon id="XMLID_95_" class="st11" points="641.7,148 651.5,144.9 643,150.6 			"/>
		</g>
		<path id="XMLID_79_" class="st18" d="M643.6,154.6"/>
		<g id="XMLID_76_">
			<polygon id="XMLID_92_" class="st11" points="643.1,153.3 656,147.1 644.6,155.8 			"/>
		</g>
		<g id="XMLID_73_">
			<path id="XMLID_162_" class="st11" d="M617.5,134.1c0,0,1.8-0.8,4.4-1.9c2.7-1.1,6.3-2.3,10-3.2c0.9-0.3,1.8-0.4,2.8-0.7
				c0.9-0.2,1.8-0.3,2.7-0.5c0.9-0.1,1.8-0.2,2.5-0.3c0.8,0,1.6-0.1,2.3-0.2c0.7,0,1.4,0,1.9,0c0.6,0,1.1,0.1,1.5,0.1
				c0.8,0.1,1.3,0.2,1.3,0.2s-0.5,0-1.3,0c-0.4,0-0.9,0-1.5,0c-0.6,0-1.2,0.1-1.9,0.2c-0.7,0.1-1.4,0.2-2.2,0.3
				c-0.8,0.2-1.6,0.4-2.5,0.6c-0.8,0.2-1.7,0.5-2.6,0.7c-0.9,0.3-1.8,0.6-2.6,0.9c-3.5,1.3-6.9,2.8-9.4,4.1
				c-2.5,1.3-4.1,2.2-4.1,2.2L617.5,134.1z"/>
		</g>
		<g id="XMLID_69_">
			<path id="XMLID_72_" class="st11" d="M649.9,133.7c0,0,6.9,1.2,17.2,3c5.2,0.9,11.2,1.9,17.6,2.9c6.5,1.1,13.3,2.1,20.2,3
				c6.9,1,13.8,1.9,20.3,2.5c3.2,0.3,6.4,0.6,9.4,0.8c3,0.2,5.8,0.4,8.4,0.4c2.6,0.1,5,0.1,7.1,0c2.1-0.1,4-0.3,5.5-0.4
				c1.5-0.3,2.7-0.4,3.5-0.7c0.8-0.2,1.2-0.3,1.2-0.3s-0.4,0.1-1.2,0.4c-0.8,0.3-1.9,0.6-3.4,0.9c-1.5,0.2-3.3,0.5-5.5,0.7
				c-2.1,0.2-4.5,0.3-7.1,0.3c-2.6,0-5.5-0.1-8.5-0.2c-3-0.1-6.2-0.3-9.4-0.6c-6.5-0.6-13.4-1.4-20.4-2.3c-6.9-1-13.8-2.1-20.2-3.2
				c-6.5-1.1-12.4-2.3-17.5-3.4c-5.1-1-9.4-2-12.3-2.7C651.6,134.1,649.9,133.7,649.9,133.7z"/>
		</g>
		<g id="XMLID_6_">
			<path id="XMLID_84_" class="st11" d="M763,151.9c0,0,1.2-0.8,2.9-1.7c1.8-0.9,4.2-2.1,6.8-2.8c0.6-0.2,1.3-0.4,1.9-0.5
				c0.7-0.1,1.3-0.3,1.9-0.4c0.6-0.1,1.2-0.1,1.8-0.2c0.6,0,1.1,0,1.6,0c0.5,0,1,0.1,1.4,0.1c0.4,0,0.7,0.1,1,0.2
				c0.6,0.1,0.9,0.2,0.9,0.2s-0.3,0-0.9-0.1c-0.3,0-0.6-0.1-1-0.1c-0.4,0-0.8,0-1.3,0c-0.5,0-1,0.1-1.6,0.2
				c-0.5,0.1-1.1,0.2-1.7,0.4c-0.6,0.2-1.2,0.4-1.8,0.5c-0.6,0.2-1.2,0.4-1.8,0.7c-2.4,1-4.6,2.3-6.2,3.4c-1.6,1.1-2.6,1.9-2.6,1.9
				c-0.5,0.4-1.2,0.3-1.5-0.1C762.4,153,762.4,152.4,763,151.9C762.9,151.9,762.9,151.9,763,151.9L763,151.9z"/>
		</g>
		<g id="XMLID_3_">
			<path id="XMLID_78_" class="st11" d="M759.6,158.9c0,0,3.9-1.9,8-3.6c2-0.9,4-1.6,5.6-2.1c0.4-0.1,0.8-0.2,1.1-0.3
				s0.6-0.1,0.9-0.1c0.2-0.1,0.4,0,0.5,0c0.1,0,0.2,0,0.2,0s-0.1,0-0.2,0c-0.1,0-0.3,0-0.5,0.1c-0.2,0.1-0.5,0.1-0.8,0.2
				c-0.3,0.1-0.7,0.2-1,0.4c-1.5,0.7-3.4,1.7-5.3,2.8c-3.8,2.2-7.4,4.5-7.4,4.5c-0.5,0.3-1.2,0.2-1.5-0.3c-0.3-0.5-0.2-1.2,0.3-1.5
				C759.5,158.9,759.5,158.9,759.6,158.9z"/>
		</g>
		<path id="XMLID_2_" class="st11" d="M613.8,131.3c-0.1-0.1-0.1-0.2-0.2-0.3c0-0.4-0.2-0.8-0.7-0.9c-0.1,0-0.5-0.2-0.7-0.2
			c-0.3-0.1-0.7-0.1-1,0c-0.2,0-1,0.3-1.1,0.4c-0.6,0.4-0.8,0.8-1.2,1.4c-0.2,0.4-0.3,0.9,0.1,1.1c0.9,0.4,1.9,1.1,2.9,0.8
			c0.3,0,0.7-0.1,0.9-0.4c0.3-0.3,0.4-0.6,0.5-0.9c0.1-0.3,0.2-0.3,0.2-0.6C613.6,131.9,613.8,131.4,613.8,131.3z"/>
		<g id="XMLID_303_">
			<path id="XMLID_310_" class="st11" d="M814.8,106.7c0,0,0,0.9-0.2,1.7c-0.1,0.4-0.3,0.9-0.6,1.3c-0.3,0.4-0.8,0.6-1.2,1.1
				c-0.7,0.8-1.3,1.6-1.7,2.3c-0.2,0.4-0.3,0.7-0.3,0.9c0,0.2-0.1,0.4-0.1,0.4l-0.3,0.1c0,0-0.1-0.2-0.2-0.4
				c-0.1-0.1-0.1-0.3-0.1-0.5c0-0.2-0.1-0.4-0.1-0.7c0-0.5,0-1.1,0.1-1.6c0.1-0.6,0.3-1.2,0.6-1.8c0.2-0.6,0.4-1.2,0.7-1.7
				c0.3-0.4,0.8-0.8,1.3-1c0.9-0.4,1.8-0.3,1.8-0.3L814.8,106.7z"/>
		</g>
		<path id="XMLID_113_" class="st11" d="M805.5,110.2c0-0.1-0.1-0.1-0.1-0.2c0-0.2-0.2-0.5-0.4-0.5c0,0-0.3-0.1-0.4-0.1
			c-0.2-0.1-0.4-0.1-0.6,0c-0.1,0-0.6,0.2-0.7,0.3c-0.4,0.2-0.5,0.5-0.7,0.9c-0.1,0.2-0.2,0.6,0.1,0.7c0.5,0.3,1.1,0.6,1.8,0.5
			c0.2,0,0.4-0.1,0.5-0.2c0.2-0.2,0.2-0.4,0.3-0.6c0.1-0.2,0.1-0.2,0.1-0.3C805.5,110.5,805.6,110.2,805.5,110.2z"/>
		<g id="XMLID_160_">
			<path id="XMLID_318_" class="st11" d="M635.4,108.5c0,0-2.1,1.2-5.4,2.3c-1.7,0.6-3.6,1.2-5.8,1.7c-1.1,0.2-2.2,0.4-3.3,0.6
				c-1.1,0.2-2.3,0.4-3.5,0.5c-2.3,0.3-4.7,0.6-6.8,0.7c-1.1,0.1-2.2,0.1-3.2,0.1c-1,0-2,0-2.8-0.1c-0.9,0-1.7-0.2-2.4-0.2
				c-0.7-0.1-1.3-0.2-1.8-0.3c-1-0.2-1.6-0.4-1.6-0.4l0.1-0.2c0,0,0.6,0.1,1.6,0.2c0.5,0.1,1.1,0.1,1.8,0.1c0.7,0,1.5,0.1,2.3,0
				c0.9,0,1.8-0.1,2.8-0.2c1-0.1,2-0.2,3.1-0.3c2.1-0.3,4.4-0.7,6.7-1.2c2.3-0.5,4.5-1.1,6.6-1.6c2.1-0.5,4.1-0.8,5.8-1.2
				c3.4-0.6,5.8-0.8,5.8-0.8L635.4,108.5z"/>
		</g>
		<path id="XMLID_4_" class="st11" d="M625.6,118.5c0-0.1-0.1-0.1-0.1-0.2c0-0.2-0.2-0.5-0.4-0.5c0,0-0.3-0.1-0.4-0.1
			c-0.2-0.1-0.4-0.1-0.6,0c-0.1,0-0.6,0.2-0.7,0.3c-0.4,0.2-0.5,0.5-0.7,0.9c-0.1,0.2-0.2,0.6,0.1,0.7c0.5,0.3,1.1,0.6,1.8,0.5
			c0.2,0,0.4-0.1,0.5-0.2c0.2-0.2,0.2-0.4,0.3-0.6c0.1-0.2,0.1-0.2,0.1-0.3C625.5,118.8,625.6,118.6,625.6,118.5z"/>
	</g>
</g>
<g id="guides">
</g>
</svg>
